<svg width="239" height="42" viewBox="0 0 239 42" fill="none" xmlns="http://www.w3.org/2000/svg">
<path d="M9.899 15.8434C9.43474 15.7548 8.99636 15.5425 8.62081 15.2245C6.07884 13.6172 3.46507 12.0661 0.966183 10.3381C0.540042 10.0443 0.231439 9.57804 0.104497 9.03619C0.151185 8.57961 0.151185 8.1185 0.104497 7.66192C0.217401 7.22381 0.427312 6.82463 0.714768 6.5015C1.00222 6.17837 1.35792 5.94172 1.74888 5.81345C2.00927 5.68102 2.29392 5.61929 2.57967 5.63325C2.86541 5.64721 3.14417 5.73649 3.39326 5.89382C4.56371 6.55281 5.66237 7.35653 6.80407 8.05573C6.88397 8.11229 6.94464 8.19715 6.97644 8.29682C7.98171 9.10049 9.13065 9.6872 10.1862 10.4024C10.9473 10.9168 11.8378 11.2061 12.3404 12.1545C12.4819 12.3981 12.5773 12.6716 12.6205 12.9581C12.5488 13.2556 12.5488 13.5689 12.6205 13.8663C12.5567 14.3449 12.3658 14.7908 12.0725 15.1463C11.7792 15.5017 11.3972 15.7502 10.9761 15.8594C10.6197 15.7954 10.2568 15.79 9.899 15.8434Z" fill="white"/>
<path d="M21.9141 8.32284L17.699 5.63853C17.4836 5.5019 17.2825 5.33313 17.0815 5.18043C16.9557 4.92838 16.7755 4.71562 16.5573 4.5616C15.7387 3.13909 16.1911 1.6121 17.6488 0.880751C17.7294 0.922747 17.8195 0.936744 17.9073 0.920935C17.9503 0.920935 17.9935 0.920935 18.0365 0.920935C18.0796 0.920935 17.9216 0.872715 17.8857 0.80842C18.1281 0.692412 18.3921 0.644227 18.6548 0.668032C18.9175 0.691837 19.1712 0.786916 19.3937 0.945045C21.0452 1.98179 22.7112 3.00246 24.3412 4.09547C25.1598 4.64197 25.9999 5.18847 26.8688 5.64656C27.6677 5.96159 28.3316 6.60131 28.7286 7.43877C29.2384 8.75682 28.6352 10.0266 27.2134 10.782H27.1201C26.7324 10.782 26.3374 10.782 25.9568 10.8544C24.9124 10.4118 23.9153 9.8404 22.984 9.15058C22.5747 8.93361 22.1295 8.79699 21.9141 8.32284Z" fill="white"/>
<path d="M21.9141 8.32284L25.2593 10.4058C25.4818 10.5232 25.7095 10.6279 25.9415 10.7192C26.3478 10.683 26.756 10.683 27.1623 10.7192V10.7674C24.5843 12.3748 22.028 14.0705 19.4286 15.6537C18.8989 15.9587 18.2828 16.0166 17.7151 15.8148C17.1473 15.613 16.6739 15.1679 16.3984 14.5768C16.2525 14.2882 16.1613 13.9691 16.1307 13.6393C16.1 13.3095 16.1304 12.9762 16.2201 12.6602C16.3097 12.3441 16.4566 12.0521 16.6516 11.8025C16.8466 11.5529 17.0855 11.351 17.3534 11.2094C18.8757 10.2772 20.399 9.28725 21.9141 8.32284Z" fill="white"/>
<path d="M6.96915 8.29804C5.92192 7.76354 4.91148 7.14305 3.9461 6.44153C3.29749 5.95524 2.51898 5.73387 1.74162 5.81469C4.23333 4.20733 6.76812 2.64016 9.21672 1.03279C10.4662 0.229119 12.405 1.03279 12.6276 2.71248C12.5496 3.00891 12.5496 3.32421 12.6276 3.62064C12.5847 3.99062 12.4579 4.34216 12.2593 4.6418C12.0607 4.94145 11.7969 5.17921 11.493 5.33248C10.0138 6.34514 8.4915 7.30955 6.96915 8.29804Z" fill="white"/>
<path d="M0.0967561 7.66344C0.180332 7.88046 0.223441 8.11426 0.223441 8.3506C0.223441 8.58689 0.180332 8.82075 0.0967561 9.03771C-0.032252 8.59102 -0.032252 8.11019 0.0967561 7.66344Z" fill="white"/>
<path d="M9.898 15.8454C10.0646 15.7405 10.2525 15.6854 10.4437 15.6854C10.6349 15.6854 10.8228 15.7405 10.9895 15.8454C10.6347 15.9738 10.2528 15.9738 9.898 15.8454Z" fill="white"/>
<path d="M16.5552 4.55952C16.828 4.65596 17.101 4.76044 17.0794 5.17835C16.9599 5.11901 16.852 5.03378 16.762 4.92758C16.6721 4.82136 16.6018 4.69628 16.5552 4.55952Z" fill="white"/>
<path d="M12.643 3.62016C12.5612 3.48643 12.5174 3.32815 12.5174 3.16608C12.5174 3.00401 12.5612 2.84572 12.643 2.712C12.6967 3.01173 12.6967 3.32043 12.643 3.62016Z" fill="white"/>
<path d="M12.6346 13.8442C12.5528 13.7104 12.509 13.5522 12.509 13.3901C12.509 13.228 12.5528 13.0697 12.6346 12.936C12.6921 13.2353 12.6921 13.5449 12.6346 13.8442Z" fill="white"/>
<path d="M17.8845 0.832092L18.2866 0.896386C18.194 0.972753 18.082 1.01395 17.967 1.01395C17.8521 1.01395 17.7401 0.972753 17.6475 0.896386L17.8845 0.832092Z" fill="white"/>
<path d="M27.1598 10.7351C26.7626 10.8757 26.3363 10.8757 25.9391 10.7351C26.13 10.6348 26.3385 10.5828 26.5494 10.5828C26.7604 10.5828 26.9688 10.6348 27.1598 10.7351Z" fill="white"/>
<path d="M49.4016 8.03343C49.4016 9.83039 48.8685 11.262 47.8023 12.3282C46.6043 13.598 45.029 14.2329 43.0763 14.2329C41.2074 14.2329 39.6261 13.586 38.3323 12.2922C37.0385 10.9984 36.3916 9.40511 36.3916 7.51231C36.3916 5.61951 37.0385 4.02621 38.3323 2.7324C39.6261 1.43859 41.2074 0.791686 43.0763 0.791686C44.0227 0.791686 44.9152 0.959402 45.7537 1.29483C46.5923 1.63027 47.2812 2.10347 47.8202 2.71443L46.6343 3.90042C46.2389 3.42124 45.7238 3.04986 45.0889 2.78631C44.4659 2.51078 43.7951 2.37301 43.0763 2.37301C41.6747 2.37301 40.4887 2.85819 39.5183 3.82855C38.5599 4.81088 38.0807 6.0388 38.0807 7.51231C38.0807 8.98582 38.5599 10.2137 39.5183 11.1961C40.4887 12.1664 41.6747 12.6516 43.0763 12.6516C44.3581 12.6516 45.4243 12.2922 46.2749 11.5734C47.1254 10.8547 47.6166 9.86632 47.7484 8.60845H43.0763V7.06307H49.3117C49.3716 7.3985 49.4016 7.72195 49.4016 8.03343Z" fill="white"/>
<path d="M50.5318 9.54287C50.5318 8.18916 50.9571 7.06906 51.8077 6.18256C52.6702 5.29606 53.7544 4.85281 55.0602 4.85281C56.3659 4.85281 57.4441 5.29606 58.2947 6.18256C59.1572 7.06906 59.5885 8.18916 59.5885 9.54287C59.5885 10.9086 59.1572 12.0287 58.2947 12.9032C57.4441 13.7897 56.3659 14.2329 55.0602 14.2329C53.7544 14.2329 52.6702 13.7897 51.8077 12.9032C50.9571 12.0167 50.5318 10.8966 50.5318 9.54287ZM52.185 9.54287C52.185 10.4893 52.4606 11.256 53.0116 11.843C53.5627 12.43 54.2455 12.7235 55.0602 12.7235C55.8748 12.7235 56.5576 12.43 57.1087 11.843C57.6598 11.256 57.9353 10.4893 57.9353 9.54287C57.9353 8.60845 57.6598 7.84774 57.1087 7.26074C56.5456 6.66175 55.8628 6.36226 55.0602 6.36226C54.2575 6.36226 53.5747 6.66175 53.0116 7.26074C52.4606 7.84774 52.185 8.60845 52.185 9.54287Z" fill="white"/>
<path d="M60.5871 9.54287C60.5871 8.18916 61.0124 7.06906 61.8629 6.18256C62.7255 5.29606 63.8096 4.85281 65.1154 4.85281C66.4212 4.85281 67.4994 5.29606 68.3499 6.18256C69.2125 7.06906 69.6437 8.18916 69.6437 9.54287C69.6437 10.9086 69.2125 12.0287 68.3499 12.9032C67.4994 13.7897 66.4212 14.2329 65.1154 14.2329C63.8096 14.2329 62.7255 13.7897 61.8629 12.9032C61.0124 12.0167 60.5871 10.8966 60.5871 9.54287ZM62.2403 9.54287C62.2403 10.4893 62.5158 11.256 63.0669 11.843C63.6179 12.43 64.3008 12.7235 65.1154 12.7235C65.93 12.7235 66.6129 12.43 67.1639 11.843C67.715 11.256 67.9905 10.4893 67.9905 9.54287C67.9905 8.60845 67.715 7.84774 67.1639 7.26074C66.6009 6.66175 65.918 6.36226 65.1154 6.36226C64.3128 6.36226 63.6299 6.66175 63.0669 7.26074C62.5158 7.84774 62.2403 8.60845 62.2403 9.54287Z" fill="white"/>
<path d="M75.0988 12.7235C75.9134 12.7235 76.5783 12.43 77.0934 11.843C77.6325 11.256 77.902 10.4893 77.902 9.54287C77.902 8.62043 77.6325 7.85972 77.0934 7.26074C76.5663 6.66175 75.9014 6.36226 75.0988 6.36226C74.3081 6.36226 73.6432 6.66175 73.1041 7.26074C72.5651 7.85972 72.2955 8.62043 72.2955 9.54287C72.2955 10.4773 72.5651 11.238 73.1041 11.825C73.6432 12.424 74.3081 12.7235 75.0988 12.7235ZM75.0449 18.1144C74.5537 18.1144 74.0925 18.0485 73.6612 17.9167C73.2299 17.7969 72.8346 17.6232 72.4752 17.3956C72.1278 17.168 71.8283 16.8984 71.5767 16.5869C71.3252 16.2755 71.1335 15.9281 71.0017 15.5447L72.5651 14.8978C72.7448 15.4129 73.0562 15.8262 73.4995 16.1377C73.9427 16.4492 74.4579 16.6049 75.0449 16.6049C75.9433 16.6049 76.6442 16.3354 77.1473 15.7963C77.6504 15.2572 77.902 14.5145 77.902 13.5681V12.7235H77.8301C77.5187 13.1907 77.0934 13.5621 76.5543 13.8376C76.0272 14.1012 75.4522 14.2329 74.8292 14.2329C73.6792 14.2329 72.6909 13.7837 71.8643 12.8852C71.0496 11.9628 70.6423 10.8487 70.6423 9.54287C70.6423 8.23708 71.0496 7.12896 71.8643 6.2185C72.6909 5.30804 73.6792 4.85281 74.8292 4.85281C75.4522 4.85281 76.0272 4.99058 76.5543 5.26611C77.0934 5.52967 77.5187 5.89505 77.8301 6.36226H77.902V5.14033H79.4834V13.5681C79.4834 14.9817 79.082 16.0898 78.2794 16.8924C77.4648 17.7071 76.3866 18.1144 75.0449 18.1144Z" fill="white"/>
<path d="M83.1522 1.0792V13.9454H81.499V1.0792H83.1522Z" fill="white"/>
<path d="M89.0322 14.2329C87.7384 14.2329 86.6722 13.7897 85.8336 12.9032C84.995 12.0167 84.5758 10.8966 84.5758 9.54287C84.5758 8.20114 84.9831 7.08703 85.7977 6.20053C86.6123 5.30205 87.6545 4.85281 88.9244 4.85281C90.2302 4.85281 91.2664 5.27809 92.0331 6.12865C92.8118 6.96723 93.2012 8.14723 93.2012 9.66866L93.1832 9.84836H86.2649C86.2889 10.7109 86.5764 11.4057 87.1274 11.9328C87.6785 12.4599 88.3374 12.7235 89.1041 12.7235C90.1583 12.7235 90.9849 12.1964 91.5839 11.1422L93.0574 11.8609C92.6621 12.6037 92.111 13.1847 91.4042 13.604C90.7094 14.0233 89.9187 14.2329 89.0322 14.2329ZM86.3907 8.48267H91.4401C91.3922 7.8717 91.1406 7.36855 90.6854 6.97322C90.2422 6.56591 89.6432 6.36226 88.8885 6.36226C88.2655 6.36226 87.7264 6.55393 87.2712 6.93728C86.828 7.32063 86.5344 7.83576 86.3907 8.48267Z" fill="white"/>
<path d="M98.9489 13.9454V1.0792H102.884C104.849 1.0792 106.424 1.6722 107.61 2.85819C108.808 4.04418 109.407 5.59555 109.407 7.51231C109.407 9.44104 108.808 10.9984 107.61 12.1844C106.424 13.3584 104.849 13.9454 102.884 13.9454H98.9489ZM100.602 2.66052V12.3641H102.884C104.382 12.3641 105.562 11.9388 106.424 11.0883C107.287 10.2257 107.718 9.03373 107.718 7.51231C107.718 6.00287 107.287 4.81687 106.424 3.95433C105.562 3.09179 104.382 2.66052 102.884 2.66052H100.602Z" fill="white"/>
<path d="M114.776 14.2329C113.482 14.2329 112.416 13.7897 111.577 12.9032C110.739 12.0167 110.319 10.8966 110.319 9.54287C110.319 8.20114 110.727 7.08703 111.541 6.20053C112.356 5.30205 113.398 4.85281 114.668 4.85281C115.974 4.85281 117.01 5.27809 117.777 6.12865C118.555 6.96723 118.945 8.14723 118.945 9.66866L118.927 9.84836H112.008C112.032 10.7109 112.32 11.4057 112.871 11.9328C113.422 12.4599 114.081 12.7235 114.848 12.7235C115.902 12.7235 116.728 12.1964 117.327 11.1422L118.801 11.8609C118.406 12.6037 117.855 13.1847 117.148 13.604C116.453 14.0233 115.662 14.2329 114.776 14.2329ZM112.134 8.48267H117.184C117.136 7.8717 116.884 7.36855 116.429 6.97322C115.986 6.56591 115.387 6.36226 114.632 6.36226C114.009 6.36226 113.47 6.55393 113.015 6.93728C112.571 7.32063 112.278 7.83576 112.134 8.48267Z" fill="white"/>
<path d="M124.558 13.9454H122.905L119.347 5.14033H121.144L123.731 11.9688H123.767L126.391 5.14033H128.152L124.558 13.9454Z" fill="white"/>
<path d="M132.921 14.2329C131.627 14.2329 130.561 13.7897 129.722 12.9032C128.884 12.0167 128.464 10.8966 128.464 9.54287C128.464 8.20114 128.872 7.08703 129.686 6.20053C130.501 5.30205 131.543 4.85281 132.813 4.85281C134.119 4.85281 135.155 5.27809 135.922 6.12865C136.7 6.96723 137.09 8.14723 137.09 9.66866L137.072 9.84836H130.153C130.177 10.7109 130.465 11.4057 131.016 11.9328C131.567 12.4599 132.226 12.7235 132.993 12.7235C134.047 12.7235 134.874 12.1964 135.472 11.1422L136.946 11.8609C136.551 12.6037 136 13.1847 135.293 13.604C134.598 14.0233 133.807 14.2329 132.921 14.2329ZM130.279 8.48267H135.329C135.281 7.8717 135.029 7.36855 134.574 6.97322C134.131 6.56591 133.532 6.36226 132.777 6.36226C132.154 6.36226 131.615 6.55393 131.16 6.93728C130.717 7.32063 130.423 7.83576 130.279 8.48267Z" fill="white"/>
<path d="M140.255 1.0792V13.9454H138.602V1.0792H140.255Z" fill="white"/>
<path d="M141.678 9.54287C141.678 8.18916 142.104 7.06906 142.954 6.18256C143.817 5.29606 144.901 4.85281 146.207 4.85281C147.512 4.85281 148.591 5.29606 149.441 6.18256C150.304 7.06906 150.735 8.18916 150.735 9.54287C150.735 10.9086 150.304 12.0287 149.441 12.9032C148.591 13.7897 147.512 14.2329 146.207 14.2329C144.901 14.2329 143.817 13.7897 142.954 12.9032C142.104 12.0167 141.678 10.8966 141.678 9.54287ZM143.332 9.54287C143.332 10.4893 143.607 11.256 144.158 11.843C144.709 12.43 145.392 12.7235 146.207 12.7235C147.021 12.7235 147.704 12.43 148.255 11.843C148.806 11.256 149.082 10.4893 149.082 9.54287C149.082 8.60845 148.806 7.84774 148.255 7.26074C147.692 6.66175 147.009 6.36226 146.207 6.36226C145.404 6.36226 144.721 6.66175 144.158 7.26074C143.607 7.84774 143.332 8.60845 143.332 9.54287Z" fill="white"/>
<path d="M156.462 12.7235C157.252 12.7235 157.917 12.424 158.456 11.825C158.995 11.238 159.265 10.4773 159.265 9.54287C159.265 8.62043 158.995 7.85972 158.456 7.26074C157.917 6.66175 157.252 6.36226 156.462 6.36226C155.659 6.36226 154.988 6.66175 154.449 7.26074C153.922 7.85972 153.658 8.62043 153.658 9.54287C153.658 10.4773 153.922 11.244 154.449 11.843C154.988 12.43 155.659 12.7235 156.462 12.7235ZM156.731 14.2329C156.084 14.2329 155.491 14.0952 154.952 13.8196C154.425 13.5441 154.018 13.1787 153.73 12.7235H153.658L153.73 13.9454V17.8268H152.077V5.14033H153.658V6.36226H153.73C154.018 5.90703 154.425 5.54165 154.952 5.26611C155.491 4.99058 156.084 4.85281 156.731 4.85281C157.893 4.85281 158.876 5.30804 159.678 6.2185C160.505 7.14094 160.918 8.24906 160.918 9.54287C160.918 10.8487 160.505 11.9568 159.678 12.8672C158.876 13.7777 157.893 14.2329 156.731 14.2329Z" fill="white"/>
<path d="M166.386 14.2329C165.092 14.2329 164.026 13.7897 163.187 12.9032C162.348 12.0167 161.929 10.8966 161.929 9.54287C161.929 8.20114 162.337 7.08703 163.151 6.20053C163.966 5.30205 165.008 4.85281 166.278 4.85281C167.584 4.85281 168.62 5.27809 169.387 6.12865C170.165 6.96723 170.555 8.14723 170.555 9.66866L170.537 9.84836H163.618C163.642 10.7109 163.93 11.4057 164.481 11.9328C165.032 12.4599 165.691 12.7235 166.458 12.7235C167.512 12.7235 168.338 12.1964 168.937 11.1422L170.411 11.8609C170.015 12.6037 169.464 13.1847 168.758 13.604C168.063 14.0233 167.272 14.2329 166.386 14.2329ZM163.744 8.48267H168.794C168.746 7.8717 168.494 7.36855 168.039 6.97322C167.596 6.56591 166.997 6.36226 166.242 6.36226C165.619 6.36226 165.08 6.55393 164.625 6.93728C164.181 7.32063 163.888 7.83576 163.744 8.48267Z" fill="white"/>
<path d="M173.72 13.9454H172.066V5.14033H173.648V6.57789H173.72C173.887 6.11068 174.229 5.71535 174.744 5.3919C175.271 5.05647 175.786 4.88875 176.289 4.88875C176.768 4.88875 177.176 4.96063 177.511 5.10439L177.008 6.70368C176.804 6.61982 176.481 6.57789 176.038 6.57789C175.415 6.57789 174.87 6.82947 174.402 7.33261C173.947 7.83576 173.72 8.42277 173.72 9.09363V13.9454Z" fill="white"/>
<path d="M184.982 11.5016C184.982 12.2683 184.647 12.9152 183.976 13.4423C183.305 13.9694 182.46 14.2329 181.442 14.2329C180.556 14.2329 179.777 14.0053 179.106 13.5501C178.435 13.0829 177.956 12.4719 177.668 11.7172L179.142 11.0883C179.358 11.6154 179.669 12.0287 180.076 12.3282C180.496 12.6157 180.951 12.7594 181.442 12.7594C181.969 12.7594 182.406 12.6456 182.754 12.418C183.113 12.1904 183.293 11.9208 183.293 11.6094C183.293 11.0463 182.862 10.633 181.999 10.3695L180.49 9.99211C178.777 9.56084 177.92 8.73424 177.92 7.51231C177.92 6.70967 178.243 6.06875 178.89 5.58956C179.549 5.0984 180.388 4.85281 181.406 4.85281C182.185 4.85281 182.886 5.0385 183.509 5.40987C184.143 5.78124 184.587 6.2784 184.838 6.90134L183.365 7.51231C183.197 7.14094 182.922 6.85342 182.538 6.64977C182.167 6.43413 181.748 6.32632 181.28 6.32632C180.849 6.32632 180.46 6.43413 180.112 6.64977C179.777 6.8654 179.609 7.12896 179.609 7.44043C179.609 7.94358 180.082 8.30297 181.029 8.51861L182.358 8.86003C184.108 9.2913 184.982 10.1718 184.982 11.5016Z" fill="white"/>
<path d="M202.687 8.03343C202.687 9.83039 202.154 11.262 201.088 12.3282C199.89 13.598 198.314 14.2329 196.362 14.2329C194.493 14.2329 192.912 13.586 191.618 12.2922C190.324 10.9984 189.677 9.40511 189.677 7.51231C189.677 5.61951 190.324 4.02621 191.618 2.7324C192.912 1.43859 194.493 0.791686 196.362 0.791686C197.308 0.791686 198.201 0.959402 199.039 1.29483C199.878 1.63027 200.567 2.10347 201.106 2.71443L199.92 3.90042C199.524 3.42124 199.009 3.04986 198.374 2.78631C197.751 2.51078 197.08 2.37301 196.362 2.37301C194.96 2.37301 193.774 2.85819 192.804 3.82855C191.845 4.81088 191.366 6.0388 191.366 7.51231C191.366 8.98582 191.845 10.2137 192.804 11.1961C193.774 12.1664 194.96 12.6516 196.362 12.6516C197.644 12.6516 198.71 12.2922 199.56 11.5734C200.411 10.8547 200.902 9.86632 201.034 8.60845H196.362V7.06307H202.597C202.657 7.3985 202.687 7.72195 202.687 8.03343Z" fill="white"/>
<path d="M205.71 13.9454H204.057V5.14033H205.639V6.57789H205.71C205.878 6.11068 206.22 5.71535 206.735 5.3919C207.262 5.05647 207.777 4.88875 208.28 4.88875C208.759 4.88875 209.167 4.96063 209.502 5.10439L208.999 6.70368C208.795 6.61982 208.472 6.57789 208.028 6.57789C207.406 6.57789 206.86 6.82947 206.393 7.33261C205.938 7.83576 205.71 8.42277 205.71 9.09363V13.9454Z" fill="white"/>
<path d="M209.538 9.54287C209.538 8.18916 209.963 7.06906 210.814 6.18256C211.676 5.29606 212.761 4.85281 214.066 4.85281C215.372 4.85281 216.45 5.29606 217.301 6.18256C218.163 7.06906 218.595 8.18916 218.595 9.54287C218.595 10.9086 218.163 12.0287 217.301 12.9032C216.45 13.7897 215.372 14.2329 214.066 14.2329C212.761 14.2329 211.676 13.7897 210.814 12.9032C209.963 12.0167 209.538 10.8966 209.538 9.54287ZM211.191 9.54287C211.191 10.4893 211.467 11.256 212.018 11.843C212.569 12.43 213.252 12.7235 214.066 12.7235C214.881 12.7235 215.564 12.43 216.115 11.843C216.666 11.256 216.942 10.4893 216.942 9.54287C216.942 8.60845 216.666 7.84774 216.115 7.26074C215.552 6.66175 214.869 6.36226 214.066 6.36226C213.264 6.36226 212.581 6.66175 212.018 7.26074C211.467 7.84774 211.191 8.60845 211.191 9.54287Z" fill="white"/>
<path d="M227.736 13.9454H226.154V12.7235H226.082C225.831 13.1548 225.442 13.5141 224.914 13.8017C224.399 14.0892 223.86 14.2329 223.297 14.2329C222.219 14.2329 221.386 13.9274 220.799 13.3165C220.224 12.6935 219.937 11.813 219.937 10.675V5.14033H221.59V10.5671C221.626 12.0047 222.351 12.7235 223.764 12.7235C224.423 12.7235 224.974 12.4599 225.418 11.9328C225.861 11.3937 226.082 10.7528 226.082 10.0101V5.14033H227.736V13.9454Z" fill="white"/>
<path d="M234.061 12.7235C234.851 12.7235 235.516 12.424 236.055 11.825C236.594 11.238 236.864 10.4773 236.864 9.54287C236.864 8.62043 236.594 7.85972 236.055 7.26074C235.516 6.66175 234.851 6.36226 234.061 6.36226C233.258 6.36226 232.587 6.66175 232.048 7.26074C231.521 7.85972 231.258 8.62043 231.258 9.54287C231.258 10.4773 231.521 11.244 232.048 11.843C232.587 12.43 233.258 12.7235 234.061 12.7235ZM234.33 14.2329C233.683 14.2329 233.09 14.0952 232.551 13.8196C232.024 13.5441 231.617 13.1787 231.329 12.7235H231.258L231.329 13.9454V17.8268H229.676V5.14033H231.258V6.36226H231.329C231.617 5.90703 232.024 5.54165 232.551 5.26611C233.09 4.99058 233.683 4.85281 234.33 4.85281C235.492 4.85281 236.475 5.30804 237.277 6.2185C238.104 7.14094 238.517 8.24906 238.517 9.54287C238.517 10.8487 238.104 11.9568 237.277 12.8672C236.475 13.7777 235.492 14.2329 234.33 14.2329Z" fill="white"/>
<path d="M43.0763 41.338C41.1715 41.338 39.5782 40.697 38.2964 39.4152C37.0265 38.1334 36.3916 36.5341 36.3916 34.6173C36.3916 32.7006 37.0265 31.1073 38.2964 29.8374C39.5662 28.5436 41.1595 27.8967 43.0763 27.8967C45.017 27.8967 46.5923 28.5975 47.8023 29.9991L46.6163 31.1492C45.6938 30.0351 44.5138 29.478 43.0763 29.478C41.6507 29.478 40.4587 29.9572 39.5003 30.9156C38.5539 31.862 38.0807 33.0959 38.0807 34.6173C38.0807 36.1388 38.5539 37.3727 39.5003 38.3191C40.4587 39.2774 41.6507 39.7566 43.0763 39.7566C44.5737 39.7566 45.8735 39.1277 46.9757 37.8698L48.1796 39.0378C47.5687 39.7686 46.8199 40.3376 45.9334 40.745C45.0469 41.1403 44.0946 41.338 43.0763 41.338Z" fill="white"/>
<path d="M51.3019 28.1842V41.0504H49.6487V28.1842H51.3019Z" fill="white"/>
<path d="M52.7254 36.6479C52.7254 35.2942 53.1507 34.1741 54.0012 33.2876C54.8638 32.4011 55.9479 31.9578 57.2537 31.9578C58.5595 31.9578 59.6377 32.4011 60.4882 33.2876C61.3508 34.1741 61.782 35.2942 61.782 36.6479C61.782 38.0136 61.3508 39.1337 60.4882 40.0082C59.6377 40.8947 58.5595 41.338 57.2537 41.338C55.9479 41.338 54.8638 40.8947 54.0012 40.0082C53.1507 39.1217 52.7254 38.0016 52.7254 36.6479ZM54.3786 36.6479C54.3786 37.5943 54.6541 38.361 55.2052 38.948C55.7562 39.535 56.4391 39.8285 57.2537 39.8285C58.0683 39.8285 58.7512 39.535 59.3022 38.948C59.8533 38.361 60.1288 37.5943 60.1288 36.6479C60.1288 35.7135 59.8533 34.9528 59.3022 34.3658C58.7392 33.7668 58.0564 33.4673 57.2537 33.4673C56.4511 33.4673 55.7682 33.7668 55.2052 34.3658C54.6541 34.9528 54.3786 35.7135 54.3786 36.6479Z" fill="white"/>
<path d="M70.923 41.0504H69.3416V39.8285H69.2697C69.0182 40.2598 68.6288 40.6192 68.1017 40.9067C67.5866 41.1942 67.0475 41.338 66.4845 41.338C65.4063 41.338 64.5737 41.0325 63.9867 40.4215C63.4117 39.7986 63.1241 38.918 63.1241 37.78V32.2453H64.7774V37.6722C64.8133 39.1097 65.5381 39.8285 66.9517 39.8285C67.6106 39.8285 68.1616 39.5649 68.6049 39.0378C69.0481 38.4988 69.2697 37.8578 69.2697 37.1151V32.2453H70.923V41.0504Z" fill="white"/>
<path d="M76.801 39.8285C77.6156 39.8285 78.2805 39.535 78.7956 38.948C79.3347 38.361 79.6042 37.5943 79.6042 36.6479C79.6042 35.7255 79.3347 34.9647 78.7956 34.3658C78.2685 33.7668 77.6036 33.4673 76.801 33.4673C76.0103 33.4673 75.3454 33.7668 74.8063 34.3658C74.2673 34.9647 73.9977 35.7255 73.9977 36.6479C73.9977 37.5823 74.2673 38.343 74.8063 38.93C75.3454 39.529 76.0103 39.8285 76.801 39.8285ZM76.5314 41.338C75.3814 41.338 74.393 40.8827 73.5664 39.9723C72.7518 39.0498 72.3445 37.9417 72.3445 36.6479C72.3445 35.3541 72.7518 34.246 73.5664 33.3235C74.393 32.4131 75.3814 31.9578 76.5314 31.9578C77.1783 31.9578 77.7653 32.0956 78.2924 32.3711C78.8315 32.6467 79.2448 33.012 79.5323 33.4673H79.6042L79.5323 32.2453V28.1842H81.1855V41.0504H79.6042V39.8285H79.5323C79.2448 40.2837 78.8315 40.6491 78.2924 40.9247C77.7653 41.2002 77.1783 41.338 76.5314 41.338Z" fill="white"/>
<path d="M89.3627 41.0496H87.7067V28.1616H89.3627V41.0496Z" fill="white"/>
<path d="M91.6726 32.2296H93.2566V33.4536H93.3286C93.5806 33.0216 93.9646 32.6616 94.4806 32.3736C95.0086 32.0856 95.5546 31.9416 96.1186 31.9416C97.1986 31.9416 98.0266 32.2536 98.6026 32.8776C99.1906 33.4896 99.4846 34.3656 99.4846 35.5056V41.0496H97.8286V35.6136C97.7926 34.1736 97.0666 33.4536 95.6506 33.4536C94.9906 33.4536 94.4386 33.7236 93.9946 34.2636C93.5506 34.7916 93.3286 35.4276 93.3286 36.1716V41.0496H91.6726V32.2296Z" fill="white"/>
<path d="M105.388 39.8256C106.204 39.8256 106.87 39.5316 107.386 38.9436C107.926 38.3556 108.196 37.5876 108.196 36.6396C108.196 35.7156 107.926 34.9536 107.386 34.3536C106.858 33.7536 106.192 33.4536 105.388 33.4536C104.596 33.4536 103.93 33.7536 103.39 34.3536C102.85 34.9536 102.58 35.7156 102.58 36.6396C102.58 37.5756 102.85 38.3376 103.39 38.9256C103.93 39.5256 104.596 39.8256 105.388 39.8256ZM105.118 41.3376C103.966 41.3376 102.976 40.8816 102.148 39.9696C101.332 39.0456 100.924 37.9356 100.924 36.6396C100.924 35.3436 101.332 34.2336 102.148 33.3096C102.976 32.3976 103.966 31.9416 105.118 31.9416C105.766 31.9416 106.354 32.0796 106.882 32.3556C107.422 32.6316 107.836 32.9976 108.124 33.4536H108.196L108.124 32.2296V28.1616H109.78V41.0496H108.196V39.8256H108.124C107.836 40.2816 107.422 40.6476 106.882 40.9236C106.354 41.1996 105.766 41.3376 105.118 41.3376Z" fill="white"/>
<path d="M113.942 29.1876C113.942 29.5116 113.828 29.7876 113.6 30.0156C113.372 30.2436 113.096 30.3576 112.772 30.3576C112.448 30.3576 112.172 30.2436 111.944 30.0156C111.716 29.7876 111.602 29.5116 111.602 29.1876C111.602 28.8636 111.716 28.5876 111.944 28.3596C112.172 28.1316 112.448 28.0176 112.772 28.0176C113.096 28.0176 113.372 28.1316 113.6 28.3596C113.828 28.5876 113.942 28.8636 113.942 29.1876ZM113.6 32.2296V41.0496H111.944V32.2296H113.6Z" fill="white"/>
<path d="M116.873 38.3496C116.873 38.7816 117.053 39.1416 117.413 39.4296C117.785 39.7176 118.217 39.8616 118.709 39.8616C119.405 39.8616 120.023 39.6036 120.563 39.0876C121.115 38.5716 121.391 37.9656 121.391 37.2696C120.875 36.8616 120.155 36.6576 119.231 36.6576C118.559 36.6576 117.995 36.8196 117.539 37.1436C117.095 37.4676 116.873 37.8696 116.873 38.3496ZM119.015 31.9416C120.239 31.9416 121.205 32.2716 121.913 32.9316C122.621 33.5796 122.975 34.4736 122.975 35.6136V41.0496H121.391V39.8256H121.319C120.635 40.8336 119.723 41.3376 118.583 41.3376C117.611 41.3376 116.795 41.0496 116.135 40.4736C115.487 39.8976 115.163 39.1776 115.163 38.3136C115.163 37.4016 115.505 36.6756 116.189 36.1356C116.885 35.5956 117.809 35.3256 118.961 35.3256C119.945 35.3256 120.755 35.5056 121.391 35.8656V35.4876C121.391 34.9116 121.163 34.4256 120.707 34.0296C120.251 33.6216 119.717 33.4176 119.105 33.4176C118.181 33.4176 117.449 33.8076 116.909 34.5876L115.451 33.6696C116.255 32.5176 117.443 31.9416 119.015 31.9416Z" fill="white"/>
</svg>
