<svg width="1378" height="1442" viewBox="0 0 1378 1442" fill="none" xmlns="http://www.w3.org/2000/svg">
<g opacity="0.08">
<path d="M1.45388 -13.8181C501.886 -13.0965 1002.32 -14.4721 1502.75 -13.8181C1502.24 471.012 1503.24 955.842 1502.75 1440.67C1002.32 1441.6 501.886 1441.6 1.45388 1440.67C0.848707 955.842 0.848707 471.012 1.45388 -13.8181Z" stroke="white" stroke-width="1.14977" stroke-miterlimit="10"/>
<path d="M1.45312 1371.44C141.714 1372.28 285.419 1340.17 424.842 1365.04C541.222 1385.81 643.124 1397.42 761.202 1379.86C815.621 1371.76 866.898 1369.91 921.806 1369.05C977.901 1368.17 1031.34 1355.14 1086.46 1346.77C1229.12 1325.13 1361.42 1373.32 1502.77 1371.58" stroke="white" stroke-width="1.14977" stroke-miterlimit="10"/>
<path d="M1.45312 1302.14C151.42 1295.74 326.036 1215.8 468.135 1286.54C523.625 1314.14 578.277 1356.67 642.123 1364.38C694.168 1370.7 736.46 1351.71 781.034 1329.11C829.238 1304.69 866.084 1299.8 919.432 1291.64C973.665 1283.36 1013.12 1251.05 1060.65 1227.37C1207.61 1154.06 1356.25 1288.25 1502.75 1302.14" stroke="white" stroke-width="1.14977" stroke-miterlimit="10"/>
<path d="M1.45312 1232.85C103.541 1223.83 200.998 1192.87 300.688 1171.47C389.695 1152.37 443.067 1149.05 513.314 1207.8C563.962 1250.15 616.287 1321.9 685.183 1338.43C738.718 1351.24 771.304 1314.53 801.726 1279.19C813.666 1265.34 824.676 1249.87 839.642 1238.6C865.246 1219.61 888.196 1222.81 916.802 1213.79C972.222 1195.96 995.707 1144.45 1033.69 1105.98C1091.7 1047.35 1148.86 1063.47 1219.65 1098.65C1313.31 1145.24 1397.8 1212.01 1502.66 1232.85" stroke="white" stroke-width="1.14977" stroke-miterlimit="10"/>
<path d="M1.45312 1163.6C111.548 1153.13 215.359 1113.76 321.963 1087.2C417.65 1063.38 470.416 1059.05 538.848 1131.53C585.935 1181.41 636.257 1274.91 709.39 1294.79C767.836 1310.58 792.299 1262.44 813.387 1220.79C821.976 1203.83 828.935 1184.05 842.366 1169.78C866.107 1144.52 886.59 1151.92 915.987 1140.71C973.688 1118.65 987.747 1052.31 1017.82 1005.97C1066.7 930.676 1132.55 955.887 1202.37 996.568C1300.53 1053.76 1388.47 1139.2 1502.63 1163.58" stroke="white" stroke-width="1.14977" stroke-miterlimit="10"/>
<path d="M1.45312 1094.37C111.665 1084.61 215.219 1043.77 321.683 1016.78C362.788 1006.36 418.069 987.464 460.85 1000.99C491.9 1010.87 516.922 1038.88 537.242 1061.77C582.909 1113.18 630.345 1210.4 704.339 1230.42C769.512 1248.05 788.133 1191.54 805.31 1144.95C812.572 1125.27 817.53 1101.25 831.123 1084.23C853.259 1056.56 872.647 1063.12 903.511 1052.81C958.07 1034.57 991.541 984.938 1033.13 949.489C1050.52 934.674 1071.28 916.904 1094 910.072C1138.48 896.677 1184.61 924.571 1222.02 945.385C1314.87 997.138 1396.08 1070.97 1502.7 1094.22" stroke="white" stroke-width="1.14977" stroke-miterlimit="10"/>
<path d="M1.45312 1025.1C110.571 1015.2 212.705 973.844 318.006 946.468C358.18 936.004 413.902 916.318 455.706 930.795C486.314 941.417 509.985 971.115 528.862 994.725C570.41 1046.59 614.587 1151.31 687.348 1171.72C760.108 1192.13 770.536 1100.91 779.311 1054.46C791.391 990.463 797.094 941.349 871.298 933.141C938.658 925.676 1006.58 920.715 1074.08 914.108C1146.23 907.05 1209.57 899.428 1277.9 930.232C1353.57 964.418 1418.05 1013.35 1502.75 1025.08" stroke="white" stroke-width="1.14977" stroke-miterlimit="10"/>
<path d="M1.45312 955.847C109.29 945.699 209.819 903.801 313.56 875.997C352.617 865.533 408.828 844.9 449.421 860.505C479.494 872.073 501.559 903.756 518.807 928.155C552.487 975.669 598.643 1100.03 667.517 1114.6C747.283 1131.49 744.77 1007.55 748.983 960.673C753.987 904.861 750.402 794.861 834.452 806.361C931.699 819.689 1026.45 856.761 1120.33 883.032C1159.66 894.059 1200.33 905.943 1240.83 912.348C1274.67 917.715 1308.07 915.46 1341.68 922.856C1397.29 935.101 1444.47 955.734 1502.82 955.892" stroke="white" stroke-width="1.14977" stroke-miterlimit="10"/>
<path d="M1.45312 886.568C108.522 876.375 207.794 834.003 310.534 805.905C348.939 795.397 405.523 774.335 445.534 790.346C475.397 802.41 496.322 835.446 512.406 860.364C543.084 907.72 586.028 1039.05 654.156 1053.55C738.345 1071.59 726.987 919.671 728.756 874.819C730.827 821.758 718.817 679.196 808.383 696.672C928.58 720.124 1043.14 793.232 1153.45 841.602C1231.07 875.653 1300.09 904.608 1386.21 896.715C1425.1 893.152 1463.81 889.071 1502.84 886.635" stroke="white" stroke-width="1.14977" stroke-miterlimit="10"/>
<path d="M1.45312 817.315C108.965 807.28 208.772 764.209 311.931 735.818C350.941 725.085 407.176 704.023 447.629 720.755C476.887 732.864 497.114 764.164 512.802 788.857C542.479 835.513 581.303 960.644 648.151 975.144C729.757 992.846 724.357 846.923 727.964 801.507C732.224 747.973 725.637 612.852 812.572 626.427C930.837 644.941 1043.87 732.188 1147.75 784.008C1219.9 819.908 1295.78 857.68 1378.97 840.023C1422.08 830.868 1457.34 817.473 1502.73 817.247" stroke="white" stroke-width="1.14977" stroke-miterlimit="10"/>
<path d="M1.45312 748.065C111.478 737.422 213.753 693.02 319.332 663.682C402.637 640.546 464.83 625.527 514.222 703.889C541.92 747.817 568.524 845.956 629.903 860.523C703.944 878.18 722.238 768.067 735.203 721.343C749.658 669.275 766.416 566.446 843.925 581.667C942.219 600.97 1028.64 692.998 1107.92 746.013C1177.89 792.805 1239.57 822.278 1324.88 797.518C1386.07 779.748 1437.48 751.47 1502.8 748.043" stroke="white" stroke-width="1.14977" stroke-miterlimit="10"/>
<path d="M1.45312 678.797C114.69 667.228 220.037 621.316 328.689 590.851C399.402 570.984 469.555 545.886 515.479 613.401C542.548 653.202 551.347 718.553 606.511 732.917C671.683 749.898 714.79 680.488 744.537 637.846C774.796 594.391 817.577 525.207 883.145 544.33C958.652 566.316 1009.23 664.319 1057.88 717.155C1077.94 738.916 1105.83 769.629 1135.71 779.754C1174.07 792.721 1220.27 775.041 1256 762.188C1338.72 732.444 1413.79 689.283 1502.73 678.752" stroke="white" stroke-width="1.14977" stroke-miterlimit="10"/>
<path d="M1.45312 609.515C117.228 597.36 225.018 550.14 336.091 518.66C392.838 502.582 476.864 469.185 516.875 528.447C540.733 563.783 539.546 606.2 588.239 618.309C647.407 633.012 707.714 588.16 751.752 557.672C792.253 529.619 860.288 476.694 914.474 499.537C976.412 525.651 992.263 627.127 1017.94 679.15C1028.81 701.136 1044.87 732.774 1069.38 744.253C1107.11 761.932 1167.55 732.842 1201.82 719.673C1301.79 681.337 1395.01 625.39 1502.63 609.583" stroke="white" stroke-width="1.14977" stroke-miterlimit="10"/>
<path d="M1.45312 540.293C117.065 529.153 223.552 479.677 333.903 447.363C392.256 430.27 469.928 400.887 514.827 455.594C540.43 486.848 546.505 525.657 591.498 536.482C647.36 550.012 712.532 508.587 757.781 483.398C799.002 460.487 874.766 410.606 924.949 431.262C986.583 456.654 991.843 563.091 1011.79 614.753C1020.73 637.912 1033.46 668.4 1058.16 680.465C1095.61 698.798 1159.97 668.468 1193.55 655.299C1295.97 615.069 1391.23 553.823 1502.61 540.293" stroke="white" stroke-width="1.14977" stroke-miterlimit="10"/>
<path d="M1.45312 471.019C109.593 459.135 204.489 404.316 305.39 368.483C379.687 342.077 435.991 333.531 504.772 371.843C550.951 397.573 593.406 438.637 648.361 446.259C708.25 454.648 754.592 419.988 800.283 388.35C836.919 362.959 900.881 311.116 950.645 330.441C1013.96 355.111 1027.25 472.147 1049.94 524.215C1059.95 547.217 1074.15 580.23 1099.29 592.452C1134.41 609.5 1195.69 584.695 1227.61 571.999C1320.17 535.242 1399.96 477.288 1502.54 470.929" stroke="white" stroke-width="1.14977" stroke-miterlimit="10"/>
<path d="M1.45312 401.744C99.0956 387.132 177.279 326.111 264.471 285.385C346.169 247.253 409.294 255.619 493.087 280.65C570.386 303.764 649.036 339.145 730.501 346.226C791.81 351.548 823.908 320.812 863.477 280.83C893.084 250.974 940.543 198.003 990.796 215.863C1016.12 224.883 1034 258.708 1045.19 279.342C1071.61 327.825 1089.14 380.006 1114.04 428.94C1126.22 452.911 1144.3 490.863 1171.53 503.807C1203.86 519.186 1255.33 502.454 1284.84 489.172C1360.77 455.053 1414.3 402.105 1502.56 401.587" stroke="white" stroke-width="1.14977" stroke-miterlimit="10"/>
<path d="M1.45312 332.471C91.2749 315.919 153.445 249.238 228.766 204.047C311.116 154.662 392.023 175.228 482.147 192.547C587.448 212.842 694.68 244.097 802.401 250.23C865.246 253.816 887.242 226.079 918.315 178.588C941.032 143.883 974.573 89.8304 1027.39 108.818C1056.22 119.168 1080.59 160.097 1094.89 182.76C1129.64 237.625 1155.94 297.18 1189.29 352.811C1226.84 415.343 1278.23 477.018 1356.25 424.769C1412.32 387.223 1425.12 334.343 1502.66 332.313" stroke="white" stroke-width="1.14977" stroke-miterlimit="10"/>
<path d="M1.45312 263.196C89.6689 246.644 144.204 178.61 215.592 131.638C296.499 78.4643 385.11 103.901 475.537 118.491C591.288 137.163 708.622 165.147 826.072 172.386C888.545 176.22 908.167 148.55 934.887 99.5037C956.231 60.3339 985.349 7.97229 1041.58 32.0108C1076.29 46.8489 1108.41 94.2044 1128.52 121.941C1173.93 184.518 1211.29 252.169 1255.42 315.535C1287.61 361.785 1372.45 485.383 1425.8 393.288C1449.77 351.886 1434.11 267.39 1502.82 263.218" stroke="white" stroke-width="1.14977" stroke-miterlimit="10"/>
<path d="M1.45312 193.917C84.3154 179.463 143.436 126.154 215.219 88.2696C295.591 45.8752 376.521 64.6821 463.084 76.9945C567.663 92.013 673.173 114.157 778.939 120.111C836.756 123.358 863.919 100.785 900.136 61.3221C931.629 27.0006 968.893 -13.3868 1021.17 10.1556C1056.62 26.1212 1089.79 64.7497 1114.27 92.4414C1161.22 145.705 1201.68 203.997 1247.62 258.05C1288.17 305.789 1370.68 411.392 1423.19 323.784C1448.8 281.074 1442.98 210.018 1503.05 194.098" stroke="white" stroke-width="1.14977" stroke-miterlimit="10"/>
<path d="M1.45312 124.715C78.2637 118.717 142.761 84.9589 214.614 62.2508C288.399 38.9113 362.067 48.2922 437.737 56.2975C572.272 70.5718 712.393 108.163 838.339 47.5029C882.377 26.3283 929.79 3.23683 980.322 17.1503C1063.79 40.0839 1127.89 120.182 1192.57 171.056C1248.44 215.029 1308.65 255.89 1375.92 209.075C1421.42 177.505 1445.12 139.17 1502.8 124.85" stroke="white" stroke-width="1.14977" stroke-miterlimit="10"/>
<path d="M1.45312 55.5073C73.6085 56.2289 142.808 42.4282 214.032 34.5581C279.973 27.2744 347.45 30.2736 413.623 33.5434C536.473 39.5643 656.926 48.6295 779.055 31.2884C832.473 23.6889 886.124 17.0141 940.264 20.0133C1007.02 23.7115 1067.58 53.8386 1130.06 73.9083C1258.77 115.243 1373.94 60.3782 1502.68 55.4622" stroke="white" stroke-width="1.14977" stroke-miterlimit="10"/>
<path d="M1359.76 -13.8145C1371.02 85.587 1420.81 174.209 1440.87 271.514C1450 315.78 1446.46 329.265 1419.13 360.97C1400.51 382.529 1383.33 400.433 1368.16 424.855C1332.83 481.704 1304.89 549.851 1300.43 616.803C1296.51 674.937 1323.7 710.319 1359.76 752.555C1392.69 791.116 1428.82 832.067 1418.55 886.504C1409.54 934.198 1369.67 948.269 1338.18 980.223C1291.02 1028.19 1308.71 1095.95 1317.93 1155.66C1332.62 1250.64 1355.03 1344.5 1359.83 1440.68" stroke="white" stroke-width="1.14977" stroke-miterlimit="10"/>
<path d="M1288.34 -13.7451C1312.13 105.568 1385.8 206.796 1421.44 322.253C1436.61 371.458 1439.24 388.934 1391.34 407.087C1359.78 419.039 1330.82 441.228 1307.17 464.117C1254.2 515.126 1199.2 591.774 1188.23 665.784C1178.76 729.601 1238.39 755.985 1288.32 780.564C1324.4 798.334 1411.1 835.993 1387.87 891.061C1368.16 937.875 1291.98 922.405 1253.06 932.012C1168.68 952.848 1203.74 1036.78 1217.54 1100.64C1242.07 1213.84 1276.99 1325.27 1288.25 1440.59" stroke="white" stroke-width="1.14977" stroke-miterlimit="10"/>
<path d="M1216.84 -13.7715C1246.72 119.455 1337.61 229.929 1385.17 357.135C1407.4 416.532 1398.85 421.877 1343.27 430.897C1304.91 437.03 1267.3 458.227 1237.18 481.161C1174.08 529.441 1103.6 612.291 1092.08 693.133C1081.88 764.572 1161.32 780.403 1216.79 796.301C1249.05 805.546 1373.37 834.456 1340.62 894.98C1315.18 941.975 1210.51 904.294 1172.1 903.279C1069.29 900.618 1112.63 1002.05 1128.74 1067.9C1159 1191.67 1203.48 1313.69 1216.77 1440.58" stroke="white" stroke-width="1.14977" stroke-miterlimit="10"/>
<path d="M1145.32 -13.6562C1170.16 109.085 1258.96 203.345 1304.9 317.945C1325.41 368.976 1323.66 382.394 1272.81 396.42C1236.73 406.364 1202.98 430.245 1175.47 454.081C1116.04 505.743 1044.77 589.743 1032.74 670.112C1023.05 734.696 1088.6 755.803 1139.5 773.843C1174.65 786.449 1270.36 817.004 1244.8 872.771C1224.16 917.759 1140.83 903.462 1102.82 912.121C1013.4 932.416 1049.66 1014.36 1065.39 1082.53C1092.86 1201.6 1132.15 1318.86 1145.16 1440.54" stroke="white" stroke-width="1.14977" stroke-miterlimit="10"/>
<path d="M1073.81 -13.7715C1092.43 79.4061 1167.59 135.804 1213.28 215.519C1235.81 254.802 1228.11 260.981 1197.17 285.605C1169.04 307.618 1143.55 332.634 1121.2 360.179C1069.25 424.492 1010.92 509.755 999.467 593.236C992.6 643.185 1014.9 671.959 1050.3 703.101C1140.66 782.613 1083.03 850.737 1032.54 933.925C994.369 996.795 1006.12 1057.27 1018.93 1127.23C1037.99 1231.61 1066.13 1334.69 1073.79 1440.67" stroke="white" stroke-width="1.14977" stroke-miterlimit="10"/>
<path d="M1002.31 -13.9297C1016.61 55.7505 1076.56 55.976 1120.23 99.9265C1157.94 137.991 1088.25 210.738 1067.74 249.976C1026.99 328 980.691 415.269 971.8 503.891C967.866 543.219 964.607 582.005 958.253 621.153C939.958 733.408 954.25 845.054 961.442 958.098C966.097 1031.41 968.122 1105.4 975.966 1178.39C985.276 1265.89 1000.96 1352.66 1002.34 1440.81" stroke="white" stroke-width="1.14977" stroke-miterlimit="10"/>
<path d="M930.826 -13.9287C924.332 50.0914 1001.75 6.3665 1030.56 16.0856C1081.37 33.3366 1024.6 144.78 1012.29 179.056C981.521 264.634 939.135 353.257 930.593 444.585C925.519 498.864 910.436 527.299 872.962 566.018C837.07 602.933 812.002 634.909 818.659 688.804C830.716 786.086 866.91 882.037 892.164 976.432C932.315 1126.59 932.339 1285.96 930.872 1440.72" stroke="white" stroke-width="1.14977" stroke-miterlimit="10"/>
<path d="M859.32 -13.8848C848.706 51.1276 933.523 2.48671 960.64 9.27433C1020.2 24.1575 965.109 146.312 952.004 182.032C920.466 268.038 875.31 353.413 862.462 444.697C854.665 499.967 840.42 529.959 805.25 573.414C772.5 613.891 745.058 649.115 750.621 703.438C760.653 801.081 802.969 897.505 830.551 991.044C874.775 1141.21 855.735 1286.77 859.296 1440.63" stroke="white" stroke-width="1.14977" stroke-miterlimit="10"/>
<path d="M787.818 -13.8594C782.977 54.2198 878.944 24.679 916.72 40.7798C986.292 70.4785 927.59 173.06 905.455 218.927C866.049 300.739 806.486 383.34 790.984 473.97C781.371 530.03 774.854 582.572 759.119 637.73C744.06 690.565 724.81 746.309 730.21 801.873C738.427 886.211 775.11 968.632 799.2 1049.25C820.474 1120.39 832.974 1186.04 819.101 1259.8C807.649 1320.84 789.355 1377.83 787.818 1440.59" stroke="white" stroke-width="1.14977" stroke-miterlimit="10"/>
<path d="M716.401 -13.7881C737.791 63.2435 819.373 49.082 880.286 80.7876C962.124 123.408 900.443 212.12 865.762 266.85C817.767 342.551 739.211 422.739 720.055 512.331C706.322 576.532 719.799 655.751 720.637 721.417C721.498 789.992 718.309 860.8 724.92 929.15C731.46 997.004 760.369 1061.38 780.223 1126.1C798.006 1184.1 813.252 1244.83 783.319 1301.7C757.413 1350.88 723.569 1382.66 716.401 1440.72" stroke="white" stroke-width="1.14977" stroke-miterlimit="10"/>
<path d="M644.912 -13.7715C670.958 69.4163 768.438 72.5057 836.38 112.307C925.573 164.533 865.359 243.617 819.202 303.804C764.527 375.175 671.517 452.004 648.52 541.663C630.411 612.426 663.44 714.714 674.45 785.792C686.949 866.522 695.049 946.756 704.452 1027.64C710.853 1082.69 732.756 1131.65 748.816 1184.37C763.62 1232.87 780.681 1293.51 739.832 1334.64C700.751 1373.99 656.55 1379.29 644.843 1440.63" stroke="white" stroke-width="1.14977" stroke-miterlimit="10"/>
<path d="M573.46 -13.7881C600.903 68.6105 697.638 76.3001 765.301 118.108C853.307 172.432 795.257 247.907 748.426 309.785C694.262 381.337 606.792 456.136 581.7 544.578C561.31 616.446 597.993 722.522 610.888 794.3C625.831 877.284 635.77 958.804 645.336 1042.19C651.272 1093.79 670.94 1139.68 685.674 1189.15C699.779 1236.51 717.329 1298.03 675.549 1336.75C633.768 1375.46 584.144 1376.59 573.391 1440.77" stroke="white" stroke-width="1.14977" stroke-miterlimit="10"/>
<path d="M501.882 -13.7881C522.249 60.6277 592.007 62.8827 647.939 103.834C715.439 153.444 673.193 228.988 645.169 289.49C611.023 363.139 561.376 437.577 545.362 517.901C531.117 589.318 554.463 677.625 563.401 749.177C572.967 825.847 578.507 902.09 585.583 978.828C590.447 1031.71 606.88 1081.03 618.937 1132.55C632.065 1188.55 642.888 1243.88 605.716 1293.61C566.938 1345.47 512.752 1372.19 501.812 1440.75" stroke="white" stroke-width="1.14977" stroke-miterlimit="10"/>
<path d="M430.367 -13.8408C436.884 48.0821 474.591 44.1809 510.786 83.3958C548.609 124.392 531.478 207.625 529.802 258.949C525.147 400.317 523.867 540.579 527.87 681.992C531.408 806.559 535.83 924.745 555.08 1047.89C565.274 1113.11 569.953 1171.15 536.785 1231.72C498.17 1302.19 442.075 1358.79 430.414 1440.65" stroke="white" stroke-width="1.14977" stroke-miterlimit="10"/>
<path d="M358.802 -13.8594C354.263 25.9418 369.788 34.3981 381.822 65.54C390.946 89.105 384.429 116.481 389.62 141.106C396.114 172.112 408.101 203.142 419.413 232.705C445.831 301.731 482.956 371.231 496.223 444.316C506.604 501.256 492.662 566.606 487.309 623.974C476.09 743.896 478.231 855.227 489.939 974.901C496.922 1047.06 497.34 1109.28 467.408 1177.63C429.002 1265.35 371.627 1344.27 358.872 1440.59" stroke="white" stroke-width="1.14977" stroke-miterlimit="10"/>
<path d="M287.413 -13.8408C287.25 71.0383 289.019 148.701 332.242 225.552C369.274 291.377 426.463 357.832 440.219 433.601C450.204 488.488 433.981 551.403 425.067 605.84C405.794 723.507 410.845 833.8 419.41 952.144C424.764 1026.15 424.066 1087.74 395.646 1158.57C357.915 1252.22 301.983 1339.87 287.436 1440.65" stroke="white" stroke-width="1.14977" stroke-miterlimit="10"/>
<path d="M215.918 -13.8848C216.221 78.9545 212.543 168.051 252.834 254.463C283.092 319.182 327.666 383.811 339.234 455.16C348.148 510.183 334.462 571.271 327.433 626.113C312.49 742.518 316.028 853.713 322.778 970.523C326.898 1042.01 326.595 1104.18 302.923 1173.48C272.478 1262.5 228.58 1346.71 215.965 1440.54" stroke="white" stroke-width="1.14977" stroke-miterlimit="10"/>
<path d="M144.439 -13.8145C144.439 91.6756 134.71 203.435 165.271 305.474C183.892 367.781 210.869 429.253 216.781 494.445C221.785 549.784 213.778 607.445 209.379 662.67C200.325 776.91 202.745 889.323 206.749 1003.72C209.076 1069.86 210.589 1133.54 195.832 1198.71C177.561 1279.58 149.723 1357.49 144.439 1440.68" stroke="white" stroke-width="1.14977" stroke-miterlimit="10"/>
<path d="M72.9347 -13.7451C72.9347 107.823 64.439 233.428 78.4977 354.32C91.9167 468.271 96.864 583.009 93.3012 697.647C89.8796 810.398 91.1365 922.811 92.5563 1035.49C94.302 1171.47 71.608 1305.49 72.8882 1440.84" stroke="white" stroke-width="1.14977" stroke-miterlimit="10"/>
</g>
</svg>
