<svg width="127" height="127" viewBox="0 0 127 127" fill="none" xmlns="http://www.w3.org/2000/svg">
<mask id="mask0_41_52" style="mask-type:alpha" maskUnits="userSpaceOnUse" x="0" y="-1" width="127" height="128">
<path d="M58.3289 71.4079C57.8256 71.3119 57.3504 71.0818 56.9433 70.7371C54.1877 68.9947 51.3544 67.3133 48.6455 65.4402C48.1836 65.1217 47.8491 64.6162 47.7115 64.0288C47.7621 63.5339 47.7621 63.034 47.7115 62.5391C47.8338 62.0642 48.0614 61.6315 48.373 61.2812C48.6846 60.9309 49.0702 60.6744 49.494 60.5353C49.7763 60.3918 50.0848 60.3248 50.3946 60.34C50.7043 60.3551 51.0065 60.4519 51.2765 60.6224C52.5453 61.3368 53.7363 62.208 54.9739 62.966C55.0605 63.0273 55.1263 63.1193 55.1608 63.2273C56.2505 64.0985 57.496 64.7345 58.6402 65.5099C59.4653 66.0675 60.4305 66.3811 60.9754 67.4091C61.1288 67.6731 61.2322 67.9697 61.279 68.2803C61.2013 68.6027 61.2013 68.9424 61.279 69.2647C61.2099 69.7835 61.0029 70.2669 60.685 70.6523C60.3671 71.0376 59.9529 71.3069 59.4965 71.4253C59.1101 71.3559 58.7167 71.3501 58.3289 71.4079Z" fill="white"/>
<path d="M71.3535 63.2555L66.7842 60.3457C66.5507 60.1976 66.3327 60.0146 66.1148 59.8491C65.9785 59.5759 65.7831 59.3453 65.5466 59.1783C64.6592 57.6363 65.1496 55.981 66.7297 55.1882C66.8172 55.2337 66.9148 55.2489 67.01 55.2317C67.0567 55.2317 67.1034 55.2317 67.1501 55.2317C67.1968 55.2317 67.0255 55.1795 66.9866 55.1098C67.2494 54.984 67.5355 54.9318 67.8203 54.9576C68.1051 54.9834 68.38 55.0865 68.6213 55.2579C70.4116 56.3817 72.2175 57.4882 73.9844 58.673C74.8718 59.2654 75.7825 59.8578 76.7244 60.3544C77.5904 60.6959 78.3101 61.3894 78.7405 62.2972C79.2932 63.726 78.6393 65.1025 77.098 65.9214H76.9969C76.5765 65.9214 76.1484 65.9214 75.7358 65.9998C74.6037 65.5201 73.5228 64.9006 72.5133 64.1528C72.0696 63.9176 71.5869 63.7695 71.3535 63.2555Z" fill="white"/>
<path d="M71.3535 63.2555L74.9797 65.5135C75.2209 65.6408 75.4677 65.7542 75.7193 65.8532C76.1597 65.814 76.6022 65.814 77.0425 65.8532V65.9055C74.248 67.6479 71.4769 69.4861 68.6592 71.2024C68.0849 71.5329 67.4171 71.5957 66.8016 71.377C66.1861 71.1582 65.673 70.6758 65.3743 70.035C65.2162 69.7221 65.1173 69.3762 65.0841 69.0187C65.0508 68.6612 65.0838 68.2998 65.181 67.9573C65.2781 67.6146 65.4374 67.2982 65.6488 67.0276C65.8602 66.757 66.1192 66.5381 66.4096 66.3847C68.0598 65.3741 69.711 64.301 71.3535 63.2555Z" fill="white"/>
<path d="M55.1529 63.2287C54.0176 62.6492 52.9223 61.9766 51.8758 61.2162C51.1727 60.689 50.3288 60.449 49.4861 60.5367C52.1872 58.7943 54.9349 57.0954 57.5893 55.353C58.9437 54.4818 61.0454 55.353 61.2867 57.1738C61.2021 57.4951 61.2021 57.8369 61.2867 58.1583C61.2402 58.5593 61.1028 58.9404 60.8875 59.2652C60.6722 59.59 60.3863 59.8478 60.0568 60.0139C58.4533 61.1117 56.8031 62.1571 55.1529 63.2287Z" fill="white"/>
<path d="M47.7031 62.5407C47.7937 62.776 47.8404 63.0294 47.8404 63.2856C47.8404 63.5418 47.7937 63.7953 47.7031 64.0305C47.5632 63.5462 47.5632 63.025 47.7031 62.5407Z" fill="white"/>
<path d="M58.3278 71.4101C58.5084 71.2964 58.7121 71.2366 58.9194 71.2366C59.1266 71.2366 59.3303 71.2964 59.5109 71.4101C59.1263 71.5493 58.7123 71.5493 58.3278 71.4101Z" fill="white"/>
<path d="M65.5443 59.176C65.8401 59.2806 66.1359 59.3938 66.1125 59.8469C65.983 59.7825 65.866 59.6901 65.7685 59.575C65.671 59.4599 65.5948 59.3243 65.5443 59.176Z" fill="white"/>
<path d="M61.3034 58.1577C61.2147 58.0128 61.1673 57.8412 61.1673 57.6655C61.1673 57.4898 61.2147 57.3182 61.3034 57.1733C61.3617 57.4982 61.3617 57.8328 61.3034 58.1577Z" fill="white"/>
<path d="M61.2943 69.2408C61.2057 69.0958 61.1582 68.9242 61.1582 68.7485C61.1582 68.5729 61.2057 68.4012 61.2943 68.2563C61.3566 68.5808 61.3566 68.9163 61.2943 69.2408Z" fill="white"/>
<path d="M66.9852 55.1354L67.4212 55.2051C67.3208 55.2879 67.1994 55.3326 67.0748 55.3326C66.9501 55.3326 66.8287 55.2879 66.7284 55.2051L66.9852 55.1354Z" fill="white"/>
<path d="M77.0399 65.8705C76.6093 66.0228 76.1472 66.0228 75.7166 65.8705C75.9236 65.7617 76.1495 65.7053 76.3782 65.7053C76.607 65.7053 76.8328 65.7617 77.0399 65.8705Z" fill="white"/>
<path fill-rule="evenodd" clip-rule="evenodd" d="M126.5 63.2324C126.5 98.1558 98.189 126.467 63.2656 126.467C28.3422 126.467 0.03125 98.1558 0.03125 63.2324C0.03125 28.309 28.3422 -0.00195312 63.2656 -0.00195312C98.189 -0.00195312 126.5 28.309 126.5 63.2324ZM26.607 63.2324C26.607 83.4784 43.0196 99.8911 63.2656 99.8911C83.5117 99.8911 99.9243 83.4784 99.9243 63.2324C99.9243 42.9864 83.5117 26.5738 63.2656 26.5738C43.0196 26.5738 26.607 42.9864 26.607 63.2324ZM49.82 112.364C50.0477 111.083 50.609 110.131 51.504 109.506C52.5187 108.752 53.7219 108.499 55.1136 108.747C56.4456 108.984 57.4907 109.645 58.249 110.731C59.0072 111.817 59.2664 113.035 59.0267 114.384C58.7869 115.733 58.124 116.786 57.0379 117.545C55.9519 118.303 54.7429 118.564 53.4109 118.327C52.7364 118.207 52.1215 117.974 51.5663 117.629C51.0111 117.284 50.5801 116.859 50.2733 116.355L51.2688 115.66C51.4899 116.052 51.81 116.382 52.2291 116.65C52.6382 116.925 53.0989 117.109 53.6112 117.2C54.6102 117.377 55.517 117.182 56.3315 116.613C57.139 116.034 57.6361 115.22 57.8228 114.17C58.0094 113.119 57.8234 112.184 57.2648 111.362C56.6961 110.547 55.9123 110.051 54.9133 109.874C53.9997 109.711 53.1943 109.833 52.497 110.237C51.7997 110.642 51.3244 111.284 51.0712 112.164L54.4011 112.756L54.2054 113.857L49.7612 113.067C49.761 112.82 49.7806 112.586 49.82 112.364ZM45.3052 112.163C46.1224 111.812 46.7219 111.185 47.1037 110.283C47.4856 109.381 47.5181 108.514 47.2011 107.683C46.8761 106.849 46.2784 106.247 45.4079 105.879C44.5373 105.51 43.6935 105.502 42.8764 105.853C42.0546 106.193 41.4511 106.818 41.0659 107.728C40.684 108.631 40.6556 109.499 40.9805 110.333C41.2975 111.164 41.8912 111.764 42.7618 112.132C43.6323 112.501 44.4801 112.511 45.3052 112.163ZM46.0994 108.05C46.3012 108.597 46.2686 109.186 46.0016 109.817C45.738 110.44 45.3397 110.869 44.8067 111.105C44.2624 111.345 43.7227 111.352 43.1876 111.126C42.6525 110.9 42.2817 110.507 42.0753 109.949C41.8735 109.402 41.9044 108.817 42.168 108.195C42.435 107.564 42.835 107.13 43.368 106.894C43.9009 106.658 44.439 106.655 44.9821 106.885C45.5251 107.115 45.8976 107.503 46.0994 108.05ZM38.3182 106.27C37.7691 107.081 37.0598 107.58 36.1902 107.767C35.3135 107.949 34.4836 107.775 33.7007 107.245C32.9177 106.715 32.4511 106.012 32.3006 105.136C32.143 104.254 32.3388 103.408 32.8879 102.596C33.4418 101.777 34.1547 101.281 35.0266 101.106C35.8962 100.92 36.7224 101.091 37.5054 101.621C38.2883 102.15 38.7586 102.856 38.9162 103.737C39.0666 104.614 38.8673 105.458 38.3182 106.27ZM37.3269 105.599C37.7108 105.032 37.8566 104.46 37.7643 103.885C37.6719 103.309 37.3816 102.856 36.8931 102.526C36.4047 102.195 35.8762 102.094 35.3077 102.223C34.7392 102.351 34.263 102.699 33.8791 103.267C33.5001 103.827 33.3568 104.395 33.4491 104.97C33.5437 105.558 33.8317 106.014 34.3129 106.34C34.7942 106.665 35.3251 106.763 35.9056 106.632C36.4742 106.504 36.9479 106.159 37.3269 105.599ZM28.3668 96.1464C28.9311 96.1118 29.4209 96.3038 29.8363 96.7224C30.2395 97.1286 30.4246 97.623 30.3917 98.2054C30.365 98.7817 30.1115 99.3081 29.6314 99.7846C29.1574 100.255 28.6291 100.504 28.0464 100.533C27.4637 100.561 26.9708 100.372 26.5677 99.966C26.1584 99.5536 25.9733 99.0592 26.0123 98.4829C26.0452 97.9005 26.2986 97.3741 26.7726 96.9038C27.2589 96.4212 27.7903 96.1687 28.3668 96.1464ZM33.2378 94.813C33.0856 94.5242 32.8843 94.2536 32.6338 94.0012C31.9496 93.3118 31.1906 92.9655 30.3566 92.9623C29.5349 92.9591 28.7609 93.3179 28.0345 94.0387L23.7041 98.3361L24.5104 99.1487L25.1383 98.5256L25.1749 98.5625C25.0937 98.9608 25.1228 99.3656 25.2622 99.777C25.3894 100.188 25.6119 100.554 25.9295 100.874C26.5159 101.465 27.2538 101.741 28.1431 101.701C29.0263 101.656 29.8034 101.3 30.4744 100.634C31.1453 99.9682 31.5101 99.1908 31.5687 98.3019C31.6089 97.419 31.3358 96.6821 30.7493 96.0912C30.4317 95.7711 30.0708 95.5428 29.6666 95.4064C29.2501 95.2699 28.8424 95.2407 28.4435 95.3189L28.4069 95.2819L28.8409 94.8513C29.3272 94.3687 29.8371 94.1193 30.3706 94.1029C30.9042 94.0866 31.4001 94.3092 31.8582 94.7709C32.1575 95.0725 32.3402 95.4166 32.4061 95.8032C32.4721 96.1898 32.4186 96.5606 32.2455 96.9156L33.3751 97.389C33.5049 97.1258 33.5856 96.8502 33.6174 96.5621C33.6492 96.274 33.6349 95.9827 33.5748 95.6881C33.5085 95.3874 33.3961 95.0957 33.2378 94.813ZM18.1373 95.9605L25.6317 90.4304L26.3423 91.3934L18.8478 96.9235L18.1373 95.9605ZM22.8314 87.663C23.1089 86.8243 23.0258 85.9926 22.582 85.1678C22.278 84.6027 21.8731 84.1705 21.3675 83.8714C20.8578 83.5646 20.2984 83.4126 19.6893 83.4153L19.7365 84.6012C20.614 84.6215 21.2335 84.9677 21.5951 85.6397C21.8581 86.1285 21.916 86.6389 21.769 87.171C21.622 87.7031 21.2777 88.1247 20.736 88.4358L18.3632 84.0254L18.2425 84.0756C17.2726 84.5974 16.6539 85.2503 16.3863 86.0344C16.1071 86.8148 16.1914 87.6213 16.6392 88.4538C17.0748 89.2633 17.7186 89.7736 18.5708 89.9848C19.4153 90.2 20.2653 90.0776 21.1206 89.6174C21.9836 89.1531 22.5538 88.5016 22.8314 87.663ZM18.0904 85.605L19.8223 88.824C19.3605 88.9542 18.9315 88.9438 18.5351 88.7927C18.1346 88.634 17.8275 88.3561 17.6138 87.959C17.355 87.4778 17.2794 87.0261 17.387 86.6039C17.4829 86.1781 17.7173 85.8451 18.0904 85.605ZM18.3645 75.5598L9.21942 77.3249L8.67953 74.5278C8.41 73.1313 8.61537 71.9302 9.29565 70.9246C9.97429 69.9103 10.9948 69.2718 12.3572 69.0088C13.7281 68.7442 14.9172 68.9563 15.9246 69.6451C16.9217 70.327 17.5551 71.3662 17.8246 72.7627L18.3645 75.5598ZM10.1166 75.9329L17.0137 74.6017L16.7007 72.9796C16.4952 71.9152 16.031 71.1348 15.3082 70.6385C14.5767 70.1437 13.6703 70.0007 12.5889 70.2094C11.516 70.4165 10.7322 70.8857 10.2375 71.6172C9.74273 72.3486 9.59808 73.2465 9.80351 74.3108L10.1166 75.9329ZM16.0606 64.873C16.7114 64.2757 17.0438 63.5087 17.0579 62.5723C17.0675 61.9306 16.9244 61.356 16.6284 60.8485C16.3326 60.3324 15.9181 59.9272 15.3848 59.6329L14.8485 60.6917C15.605 61.1367 15.9775 61.7407 15.9661 62.5038C15.9577 63.0588 15.7598 63.5328 15.3723 63.926C14.9848 64.3191 14.4787 64.5196 13.8541 64.5276L13.9294 59.52L13.7995 59.505C12.6983 59.4885 11.8399 59.7575 11.2245 60.312C10.6005 60.8577 10.2814 61.6031 10.2672 62.5483C10.2534 63.4674 10.5672 64.2267 11.2087 64.8261C11.8415 65.4254 12.6435 65.7323 13.6146 65.7469C14.5945 65.7616 15.4098 65.4703 16.0606 64.873ZM12.9219 60.7668L12.867 64.4217C12.4003 64.3106 12.0306 64.0926 11.758 63.7676C11.4855 63.4339 11.3526 63.0416 11.3594 62.5907C11.3676 62.0444 11.5215 61.6131 11.8211 61.2967C12.1122 60.9715 12.4791 60.7948 12.9219 60.7668ZM17.8313 53.705L17.5999 54.8792L10.8482 56.1741L11.0997 54.8978L16.3117 54.0155L16.3167 53.99L11.834 51.171L12.0804 49.9203L17.8313 53.705ZM18.499 48.1769C19.3182 47.8463 19.8989 47.2451 20.2411 46.3733C20.4756 45.7759 20.5434 45.1877 20.4447 44.6085C20.3491 44.0214 20.1033 43.4963 19.7074 43.0335L18.8333 43.8363C19.3852 44.5188 19.5218 45.2152 19.2429 45.9256C19.0401 46.4422 18.6883 46.8165 18.1873 47.0484C17.6864 47.2803 17.1421 47.2903 16.5546 47.0783L18.3845 42.4164L18.2681 42.3568C17.2429 41.9543 16.3448 41.9046 15.5738 42.2075C14.7978 42.4991 14.2372 43.0849 13.8918 43.9648C13.5559 44.8205 13.5829 45.6417 13.9729 46.4282C14.3548 47.2116 14.9978 47.7808 15.9019 48.1357C16.8141 48.4938 17.6798 48.5075 18.499 48.1769ZM17.0032 43.2297L15.6676 46.6323C15.2697 46.3643 15.0002 46.0303 14.8591 45.6302C14.7212 45.222 14.7346 44.8081 14.8994 44.3883C15.099 43.8797 15.3947 43.53 15.7864 43.339C16.1732 43.1368 16.5788 43.1004 17.0032 43.2297ZM15.0312 35.3098L23.1317 39.9067L22.541 40.9475L14.4406 36.3507L15.0312 35.3098ZM20.6816 33.2199C20.8093 34.1 21.2596 34.8413 22.0326 35.4437C22.8055 36.0461 23.6343 36.3017 24.519 36.2105C25.409 36.1125 26.1445 35.6907 26.7256 34.9451C27.3066 34.1995 27.5333 33.3867 27.4056 32.5065C27.2901 31.6249 26.8425 30.8802 26.0627 30.2725C25.2897 29.6701 24.4583 29.4179 23.5683 29.5159C22.6836 29.6071 21.9508 30.0255 21.3697 30.7711C20.7886 31.5166 20.5593 32.3329 20.6816 33.2199ZM24.4494 35.0513C23.869 35.1047 23.3086 34.9209 22.7682 34.4997C22.2347 34.0839 21.923 33.5881 21.833 33.0122C21.7415 32.4242 21.8744 31.901 22.2316 31.4427C22.5887 30.9845 23.0636 30.7278 23.6562 30.6729C24.2365 30.6194 24.7935 30.8006 25.327 31.2164C25.8674 31.6376 26.1826 32.1361 26.2725 32.7119C26.3625 33.2878 26.2262 33.8083 25.8637 34.2734C25.5012 34.7386 25.0298 34.9978 24.4494 35.0513ZM32.3249 27.4518C32.7573 27.0769 32.9789 26.5978 32.9897 26.0145C33.0062 25.4378 32.7929 24.8939 32.3498 24.3828C31.9123 23.8783 31.4041 23.5901 30.8252 23.5181C30.2463 23.4462 29.7407 23.5976 29.3082 23.9726C28.8692 24.3532 28.6443 24.8352 28.6335 25.4184C28.6293 25.996 28.8459 26.5371 29.2833 27.0416C29.7264 27.5527 30.2342 27.847 30.8065 27.9247C31.3798 27.9901 31.8859 27.8325 32.3249 27.4518ZM33.1881 28.1496C32.8343 28.4564 32.4446 28.6622 32.0191 28.7672C31.6001 28.8664 31.2041 28.8597 30.831 28.7471L30.7917 28.7812L31.4104 29.4154L33.2511 31.5383L32.3469 32.3223L26.3306 25.3835L27.1955 24.6336L27.775 25.302L27.8143 25.2679C27.7557 24.8826 27.8052 24.4896 27.9628 24.0889C28.127 23.6825 28.386 23.326 28.7398 23.0192C29.3754 22.4681 30.1285 22.2513 30.9993 22.3686C31.8889 22.4811 32.6404 22.8912 33.254 23.5988C33.8732 24.313 34.1726 25.1151 34.1523 26.0051C34.1451 26.8837 33.8237 27.5985 33.1881 28.1496ZM37.6627 23.5419C38.5093 23.7942 39.3382 23.6862 40.1493 23.2179C40.7051 22.897 41.1249 22.4794 41.4087 21.9651C41.7001 21.4464 41.8353 20.8827 41.8143 20.274L40.6304 20.3567C40.6364 21.2344 40.309 21.864 39.648 22.2456C39.1674 22.5231 38.6589 22.5963 38.1227 22.4653C37.5864 22.3343 37.1547 22.0028 36.8275 21.4707L41.1647 18.9667L41.1109 18.8475C40.5603 17.8937 39.8891 17.2949 39.0974 17.051C38.3089 16.7952 37.5053 16.9037 36.6867 17.3763C35.8906 17.8359 35.3998 18.4948 35.2143 19.3529C35.0244 20.2035 35.1723 21.0494 35.6579 21.8905C36.1479 22.7392 36.8162 23.2897 37.6627 23.5419ZM39.5777 18.7414L36.412 20.569C36.268 20.1114 36.2656 19.6822 36.4047 19.2815C36.5514 18.8764 36.8199 18.5611 37.2105 18.3356C37.6836 18.0624 38.1329 17.9733 38.5582 18.0683C38.9867 18.1513 39.3265 18.3757 39.5777 18.7414ZM46.4009 19.9782L45.2804 20.3987L43.0409 14.4311L44.1126 14.0289L44.4782 15.0032L44.5269 14.9849C44.5218 14.6256 44.6526 14.2708 44.9195 13.9206C45.1914 13.5592 45.4979 13.3145 45.8389 13.1865C46.1637 13.0646 46.458 13.0098 46.7219 13.0219L46.7877 14.2338C46.6283 14.2287 46.3984 14.2826 46.098 14.3953C45.6758 14.5538 45.3704 14.8629 45.1817 15.3228C45.0012 15.7796 44.9962 16.2353 45.1668 16.69L46.4009 19.9782ZM55.4929 17.0584C55.8904 16.5857 56.0324 16.0777 55.9191 15.5343C55.7225 14.592 54.9725 14.0974 53.6693 14.0503L52.6765 14.005C51.974 13.9921 51.5855 13.8074 51.5111 13.4509C51.4651 13.2301 51.545 13.0186 51.7508 12.8162C51.9651 12.612 52.2251 12.478 52.5307 12.4143C52.8618 12.3452 53.1748 12.3596 53.4699 12.4575C53.7717 12.5451 54.0094 12.7081 54.1832 12.9465L55.137 12.2957C54.8667 11.8914 54.479 11.6047 53.9742 11.4354C53.4778 11.2643 52.9538 11.2363 52.402 11.3515C51.6804 11.502 51.1224 11.8 50.7281 12.2455C50.3406 12.6807 50.2061 13.1827 50.3248 13.7515C50.5054 14.6174 51.2346 15.0766 52.5124 15.1289L53.6378 15.1731C54.288 15.2324 54.6548 15.4615 54.738 15.8605C54.7841 16.0812 54.6966 16.2988 54.4755 16.5132C54.263 16.7259 53.97 16.8712 53.5964 16.9491C53.2484 17.0217 52.9045 16.9872 52.5649 16.8454C52.232 16.6934 51.9501 16.4466 51.7194 16.1049L50.7682 16.7685C51.0835 17.2608 51.5134 17.6229 52.0579 17.8548C52.6006 18.0782 53.1861 18.1244 53.8143 17.9933C54.5359 17.8428 55.0954 17.5311 55.4929 17.0584ZM65.0059 16.8342L63.8096 16.8029L64.0534 7.49217L65.2497 7.5235L65.0059 16.8342ZM70.6096 10.9127L69.4818 10.7167L68.3907 16.9967L69.5698 17.2015L70.1732 13.7283C70.2653 13.1986 70.502 12.7732 70.8835 12.4522C71.2664 12.1227 71.6929 11.9987 72.1628 12.0804C73.171 12.2555 73.5988 12.858 73.4463 13.8877L72.7738 17.7582L73.9529 17.9631L74.6388 14.0157C74.7798 13.204 74.6788 12.5439 74.3359 12.0354C74.003 11.5199 73.452 11.1953 72.6831 11.0617C72.2815 10.9919 71.8749 11.0269 71.4633 11.1666C71.0603 11.3079 70.7424 11.5167 70.5095 11.7931L70.4582 11.7842L70.6096 10.9127ZM79.8862 18.928C80.4376 19.1373 80.9629 19.1094 81.4624 18.8445C81.978 18.5857 82.3574 18.136 82.6005 17.4955C82.8374 16.8712 82.8504 16.2871 82.6395 15.7433C82.4366 15.2025 82.0635 14.829 81.5203 14.6228C80.9852 14.4197 80.4583 14.4516 79.9396 14.7185C79.4209 14.9854 79.043 15.431 78.8061 16.0553C78.566 16.6877 78.553 17.2718 78.7671 17.8075C78.9781 18.3514 79.3511 18.7249 79.8862 18.928ZM79.316 19.8803C78.5377 19.5849 77.9858 19.0229 77.6602 18.1944C77.3458 17.3608 77.3548 16.5062 77.6872 15.6306C78.0195 14.755 78.5799 14.1096 79.3682 13.6946C80.1615 13.2907 80.9473 13.2365 81.7256 13.532C82.1635 13.6981 82.5254 13.9422 82.8113 14.2641C83.1054 14.589 83.2912 14.9425 83.3689 15.3244L83.4175 15.3429L83.6828 14.4974L84.726 11.7489L85.8449 12.1736L82.5398 20.8813L81.4695 20.4751L81.7834 19.6481L81.7348 19.6296C81.4233 19.8639 81.0497 20.005 80.6141 20.053C80.1865 20.1041 79.7539 20.0465 79.316 19.8803ZM90.2911 16.0029C90.5152 15.9393 90.6843 15.8052 90.7983 15.6007C90.9124 15.3961 90.9375 15.1818 90.8739 14.9577C90.8102 14.7335 90.6761 14.5644 90.4716 14.4504C90.2671 14.3364 90.0527 14.3112 89.8286 14.3749C89.6044 14.4385 89.4353 14.5726 89.3213 14.7772C89.2073 14.9817 89.1821 15.196 89.2458 15.4201C89.3095 15.6443 89.4436 15.8134 89.6481 15.9274C89.8526 16.0414 90.0669 16.0666 90.2911 16.0029ZM86.408 22.9676L89.5119 17.4004L88.4666 16.8176L85.3627 22.3848L86.408 22.9676ZM90.9901 23.5287C90.8019 23.7778 90.7489 24.0638 90.831 24.3867C90.9201 24.7148 91.1064 24.986 91.3901 25.2003C91.7915 25.5035 92.2602 25.624 92.7964 25.5617C93.3395 25.5046 93.7626 25.2754 94.0658 24.8741C93.946 24.414 93.6197 23.9827 93.0869 23.5802C92.6994 23.2875 92.3036 23.1352 91.8995 23.1234C91.5023 23.1168 91.1992 23.2519 90.9901 23.5287ZM95.0167 20.7668C95.7225 21.3 96.1358 21.9111 96.2565 22.6001C96.3825 23.2821 96.1972 23.9518 95.7006 24.6092L93.3325 27.7437L92.4191 27.0537L92.9523 26.3479L92.9108 26.3166C92.0773 26.5998 91.3319 26.4932 90.6745 25.9966C90.114 25.5731 89.769 25.0516 89.6393 24.4319C89.5166 23.8175 89.6434 23.2612 90.0198 22.763C90.4171 22.2371 90.9305 21.9675 91.5602 21.9541C92.1967 21.9459 92.8472 22.1927 93.5114 22.6945C94.0788 23.1232 94.4675 23.5798 94.6774 24.0645L94.8421 23.8465C95.093 23.5144 95.1732 23.1348 95.0828 22.7078C94.9976 22.2739 94.7785 21.9237 94.4256 21.6571C93.8928 21.2546 93.3008 21.1606 92.6497 21.3751L92.2089 20.2106C93.1743 19.8966 94.1103 20.082 95.0167 20.7668ZM99.5518 34.2119L102.738 31.8045L105.044 34.8558L105.936 34.1814L103.631 31.1301L106.07 29.2872L108.626 32.6707L109.539 31.9806L106.262 27.6423L98.8303 33.2571L99.5518 34.2119ZM112.211 36.5098L104.076 41.0459L103.493 40.0007L111.628 35.4646L112.211 36.5098ZM107.144 44.669C107.244 44.3511 107.439 44.1357 107.73 44.0227C108.054 43.8972 108.383 43.9416 108.717 44.156C109.055 44.3785 109.311 44.7161 109.487 45.1688C109.729 45.7913 109.78 46.3297 109.64 46.784C109.171 46.966 108.69 46.9386 108.198 46.7017C107.709 46.4728 107.374 46.124 107.192 45.6551C107.063 45.3236 107.047 44.9949 107.144 44.669ZM112.699 46.0011C112.958 45.3515 112.928 44.6144 112.608 43.7898C112.197 42.7308 111.498 42.0811 110.511 41.8407L110.274 43.0631C110.941 43.2229 111.395 43.614 111.637 44.2365C111.797 44.6488 111.799 45.0619 111.644 45.4758C111.496 45.8866 111.228 46.1673 110.84 46.318L110.585 46.4168C110.662 45.8942 110.571 45.3014 110.314 44.6385C110.012 43.8624 109.589 43.3105 109.043 42.9829C108.5 42.6633 107.922 42.6228 107.307 42.8613C106.725 43.0873 106.325 43.4939 106.106 44.0811C105.891 44.6763 105.91 45.3014 106.165 45.9562C106.463 46.7242 107.041 47.2068 107.899 47.404L107.918 47.4525L107.093 47.7726L107.507 48.8398L111.17 47.418C111.938 47.1199 112.447 46.6476 112.699 46.0011ZM109.777 54.4168C109.884 54.9966 110.181 55.4311 110.667 55.7203C111.156 56.0266 111.737 56.1173 112.411 55.9924C113.067 55.8706 113.573 55.5784 113.928 55.1157C114.285 54.6614 114.411 54.1487 114.305 53.5774C114.2 53.0146 113.899 52.5809 113.402 52.2762C112.905 51.9715 112.328 51.8801 111.671 52.0018C111.006 52.1251 110.5 52.4174 110.153 52.8785C109.798 53.3413 109.673 53.854 109.777 54.4168ZM105.933 55.0898C105.868 54.7402 105.854 54.4032 105.891 54.0789C105.919 53.7561 105.991 53.4518 106.105 53.166C106.221 52.8886 106.374 52.6399 106.562 52.4197C106.751 52.1996 106.973 52.0173 107.228 51.8729L107.895 52.9003C107.552 53.0962 107.299 53.3724 107.136 53.729C106.973 54.0856 106.93 54.4728 107.007 54.8906C107.126 55.5301 107.41 55.9934 107.86 56.2804C108.31 56.5674 108.872 56.6484 109.546 56.5235L110.147 56.4121L110.137 56.3609C109.764 56.2009 109.443 55.9472 109.176 55.5998C108.919 55.2594 108.749 54.8675 108.667 54.4241C108.515 53.6056 108.705 52.8428 109.235 52.1359C109.784 51.4343 110.523 50.9974 111.453 50.8251C112.382 50.6528 113.225 50.7965 113.98 51.2561C114.737 51.7244 115.192 52.3677 115.344 53.1863C115.426 53.6297 115.404 54.0572 115.277 54.4687C115.161 54.8872 114.957 55.2381 114.665 55.5215L114.675 55.5726L115.544 55.4114L115.753 56.5369L109.754 57.6491C108.748 57.8356 107.907 57.6962 107.229 57.2308C106.542 56.7585 106.11 56.0448 105.933 55.0898ZM110.093 64.8723C110.477 65.3565 110.946 65.5975 111.501 65.5954C112.464 65.5918 113.099 64.9563 113.406 63.6889L113.649 62.7254C113.803 62.0397 114.062 61.6962 114.426 61.6948C114.651 61.6939 114.843 61.8146 115 62.0568C115.157 62.3077 115.236 62.5893 115.237 62.9015C115.238 63.2397 115.161 63.5435 115.006 63.8129C114.86 64.091 114.653 64.2913 114.384 64.4137L114.831 65.4787C115.281 65.2948 115.64 64.9726 115.907 64.512C116.174 64.06 116.306 63.5522 116.304 62.9885C116.301 62.2514 116.121 61.645 115.764 61.1694C115.415 60.7024 114.95 60.47 114.369 60.4722C113.485 60.4756 112.889 61.0979 112.581 62.3392L112.312 63.4329C112.124 64.0581 111.826 64.3714 111.418 64.3729C111.193 64.3738 110.997 64.2445 110.831 63.9849C110.666 63.7341 110.582 63.4178 110.581 63.0363C110.579 62.6807 110.682 62.3508 110.889 62.0465C111.105 61.7508 111.403 61.5242 111.784 61.3666L111.325 60.3017C110.779 60.5119 110.338 60.8605 110.002 61.3474C109.674 61.8343 109.511 62.3986 109.514 63.0403C109.517 63.7775 109.71 64.3881 110.093 64.8723ZM118.708 69.9419L118.503 71.121L115.606 70.6179L114.744 70.4153L114.735 70.4666C115.011 70.6994 115.22 71.0174 115.361 71.4204C115.501 71.8319 115.536 72.2385 115.466 72.6401C115.333 73.4091 115.008 73.96 114.493 74.293C113.984 74.636 113.324 74.737 112.513 74.596L108.565 73.9104L108.77 72.7313L112.487 73.3768C113.614 73.5727 114.265 73.1708 114.439 72.1711C114.522 71.6927 114.392 71.2519 114.048 70.849C113.711 70.456 113.278 70.2135 112.748 70.1215L109.326 69.5272L109.531 68.3481L118.708 69.9419ZM114.854 80.6096C114.96 80.8172 115.124 80.9572 115.346 81.0296C115.569 81.1019 115.784 81.0852 115.992 80.9794C116.2 80.8736 116.34 80.7093 116.412 80.4866C116.484 80.2639 116.467 80.0488 116.362 79.8411C116.256 79.6335 116.092 79.4936 115.869 79.4212C115.646 79.3489 115.431 79.3656 115.223 79.4714C115.016 79.5772 114.876 79.7415 114.804 79.9642C114.731 80.1869 114.748 80.402 114.854 80.6096ZM107.27 78.1461L113.332 80.1153L113.702 78.9771L107.64 77.0079L107.27 78.1461ZM105.664 84.3007C105.41 84.8136 105.391 85.3411 105.606 85.8833C105.813 86.4216 106.22 86.8409 106.826 87.1411C107.425 87.4375 108.005 87.5071 108.567 87.3499C109.128 87.1927 109.536 86.8577 109.79 86.3448C110.048 85.8241 110.07 85.2927 109.854 84.7505C109.635 84.2161 109.226 83.8007 108.628 83.5043C108.022 83.2041 107.44 83.1287 106.882 83.2781C106.328 83.4392 105.922 83.78 105.664 84.3007ZM104.598 83.9905C104.806 83.5709 105.086 83.2305 105.438 82.9693C105.786 82.7159 106.154 82.5691 106.542 82.5289L106.565 82.4823L105.749 82.1363L103.231 80.889L103.763 79.8167L111.992 83.8932L111.484 84.919L110.691 84.5264L110.668 84.573C110.871 84.9058 110.977 85.2874 110.986 85.7179C110.992 86.1561 110.891 86.585 110.683 87.0047C110.31 87.7584 109.699 88.2494 108.85 88.4775C107.986 88.7172 107.134 88.6293 106.295 88.2135C105.448 87.7939 104.862 87.1698 104.537 86.341C104.205 85.5278 104.225 84.7443 104.598 83.9905ZM101.44 102.407L102.279 103.185L105.977 99.1989L99.1493 92.8645L95.4513 96.8508L96.2905 97.6293L99.1746 94.5204L101.339 96.5287L98.7384 99.3324L99.5586 100.093L102.16 97.2895L104.324 99.2978L101.44 102.407ZM90.6845 100.741L91.642 100.023L97.5265 103.578L96.4858 104.358L92.0217 101.527L92.0009 101.543L93.4468 106.637L92.4268 107.402L90.6845 100.741ZM86.4899 104.404C85.6599 104.101 84.8261 104.16 83.9884 104.579C83.4145 104.866 82.9705 105.258 82.6565 105.754C82.3347 106.255 82.1661 106.809 82.1508 107.418L83.3375 107.406C83.3839 106.53 83.7483 105.921 84.4308 105.579C84.9272 105.331 85.4391 105.288 85.9666 105.451C86.494 105.614 86.9052 105.97 87.2001 106.521L82.7212 108.762L82.7677 108.884C83.2605 109.869 83.8947 110.507 84.6705 110.798C85.4423 111.1 86.2509 111.04 87.0963 110.617C87.9184 110.205 88.4477 109.577 88.684 108.731C88.9243 107.894 88.8272 107.04 88.3926 106.172C87.9542 105.295 87.3199 104.706 86.4899 104.404ZM84.2919 109.081L87.561 107.446C87.6774 107.911 87.6543 108.34 87.4915 108.732C87.3209 109.127 87.034 109.426 86.6307 109.628C86.1421 109.872 85.6883 109.934 85.2694 109.814C84.8467 109.706 84.5209 109.461 84.2919 109.081ZM80.4949 113.256L79.3937 113.569L79.1519 112.719L79.1019 112.733C79.0121 113.083 78.8162 113.409 78.5144 113.711C78.2043 114.016 77.8532 114.224 77.4611 114.335C76.7103 114.548 76.0731 114.495 75.5494 114.175C75.0198 113.866 74.6424 113.315 74.4172 112.522L73.322 108.668L74.4731 108.341L75.547 112.12C75.8565 113.114 76.5034 113.471 77.4877 113.191C77.9465 113.061 78.2769 112.764 78.4789 112.301C78.6833 111.846 78.7119 111.361 78.565 110.843L77.6013 107.452L78.7525 107.125L80.4949 113.256ZM69.0999 109.699C68.7182 109.42 68.2689 109.311 67.7521 109.371C67.3386 109.42 66.9834 109.518 66.6863 109.666L67.1845 110.682C67.258 110.638 67.3407 110.598 67.4324 110.561C67.5165 110.534 67.606 110.515 67.7007 110.504C67.9075 110.479 68.1012 110.531 68.2819 110.658C68.4637 110.794 68.5791 111.073 68.6283 111.496L68.9959 114.648L67.4454 114.829L67.572 115.914L69.1225 115.734L69.3484 117.672L70.5371 117.533L70.3111 115.595L71.4223 115.465L71.2958 114.38L70.1846 114.51L69.7719 110.969C69.697 110.402 69.473 109.978 69.0999 109.699Z" fill="white"/>
</mask>
<g mask="url(#mask0_41_52)">
<rect x="235.753" y="171.037" width="344.974" height="215.609" transform="rotate(180 235.753 171.037)" fill="url(#paint0_radial_41_52)"/>
<rect x="235.753" y="171.037" width="344.974" height="215.609" transform="rotate(180 235.753 171.037)" fill="url(#paint1_angular_41_52)" style="mix-blend-mode:difference"/>
<rect x="235.753" y="171.037" width="344.974" height="215.609" transform="rotate(180 235.753 171.037)" fill="url(#paint2_angular_41_52)" style="mix-blend-mode:screen"/>
</g>
<defs>
<radialGradient id="paint0_radial_41_52" cx="0" cy="0" r="1" gradientUnits="userSpaceOnUse" gradientTransform="translate(270.613 231.928) rotate(19.6165) scale(292.213 216.224)">
<stop offset="0.0760668" stop-color="#FB6EA9"/>
<stop offset="0.416667" stop-color="#42D2FF"/>
<stop offset="0.666667" stop-color="#FFEC42"/>
<stop offset="1" stop-color="#FF4242"/>
</radialGradient>
<radialGradient id="paint1_angular_41_52" cx="0" cy="0" r="1" gradientUnits="userSpaceOnUse" gradientTransform="translate(408.24 278.841) rotate(90) scale(107.804 172.487)">
<stop offset="0.0833333" stop-color="white"/>
<stop offset="0.265625"/>
<stop offset="0.46875" stop-color="white"/>
<stop offset="0.635417"/>
<stop offset="0.791667" stop-color="white"/>
<stop offset="1"/>
</radialGradient>
<radialGradient id="paint2_angular_41_52" cx="0" cy="0" r="1" gradientUnits="userSpaceOnUse" gradientTransform="translate(408.24 278.841) rotate(90) scale(107.804 172.487)">
<stop offset="0.046875" stop-color="white" stop-opacity="0.72"/>
<stop offset="0.244792"/>
<stop offset="0.421875" stop-color="white" stop-opacity="0.72"/>
<stop offset="0.625"/>
<stop offset="0.802083" stop-color="white" stop-opacity="0.72"/>
<stop offset="1"/>
</radialGradient>
</defs>
</svg>
