<svg width="854" height="271" viewBox="0 0 854 271" fill="none" xmlns="http://www.w3.org/2000/svg">
<rect x="28.543" y="49.707" width="191.017" height="54" rx="27" transform="rotate(-15 28.543 49.707)" fill="#36A852"/>
<path d="M69.7735 59.4812L72.1207 58.8523L75.4564 71.3011L73.1092 71.93L69.7735 59.4812ZM77.841 62.7237L77.98 62.6864C78.1317 62.1861 78.401 61.7537 78.7878 61.3891C79.1715 61.013 79.6532 60.7473 80.2327 60.592C80.7659 60.4491 81.2587 60.4103 81.7109 60.4754C82.1632 60.5406 82.5603 60.7013 82.9023 60.9575C83.2528 61.199 83.5523 61.5287 83.8009 61.9466C84.058 62.3498 84.2596 62.8238 84.4056 63.3686L85.7892 68.5324L83.5115 69.1427L82.2024 64.2571C82.0378 63.6427 81.7776 63.228 81.4218 63.0127C81.0744 62.7828 80.64 62.7377 80.1184 62.8775C79.8054 62.9613 79.5458 63.1054 79.3397 63.3097C79.142 63.4993 78.9873 63.7334 78.8756 64.0118C78.7723 64.2755 78.7163 64.5762 78.7074 64.914C78.707 65.2372 78.7534 65.5726 78.8466 65.9203L79.9647 70.0931L77.687 70.7034L75.4042 62.1839L77.5428 61.6109L77.841 62.7237ZM86.4072 61.3228L84.9119 61.7235L84.3901 59.7762L85.8854 59.3755L85.1866 56.7675L87.4642 56.1572L88.1631 58.7652L90.2495 58.2062L90.7712 60.1535L88.6848 60.7125L89.57 64.016C89.6228 64.213 89.6899 64.3938 89.7712 64.5584C89.8611 64.7082 89.9795 64.8256 90.1265 64.9104C90.3384 65.0524 90.5951 65.083 90.8965 65.0023C91.0935 64.9495 91.2453 64.8902 91.3519 64.8243C91.4554 64.7469 91.55 64.6595 91.6357 64.562L92.8147 66.389C92.5823 66.588 92.3174 66.7584 92.02 66.9002C91.7372 67.0505 91.4104 67.1753 91.0395 67.2747C90.6106 67.3896 90.2052 67.4299 89.8233 67.3956C89.4499 67.3466 89.1162 67.2372 88.8223 67.0675C88.1378 66.6919 87.6666 66.023 87.4088 65.061L86.4072 61.3228ZM91.925 57.7572L94.0635 57.1842L94.3803 58.3665L94.5194 58.3292C94.5678 58.0926 94.6557 57.8641 94.7829 57.6437C94.9102 57.4232 95.0611 57.2213 95.2356 57.0379C95.4216 56.8513 95.6271 56.6907 95.8518 56.5559C96.0882 56.4181 96.3281 56.3165 96.5715 56.2513C96.8729 56.1705 97.1357 56.1312 97.3598 56.1332C97.5956 56.1322 97.8012 56.1578 97.9768 56.2102L97.9226 58.4423C97.7649 58.41 97.5944 58.3997 97.4113 58.4116C97.2366 58.4087 97.0275 58.4398 96.7841 58.5051C96.4711 58.5889 96.2042 58.7288 95.9834 58.9246C95.7594 59.1088 95.5842 59.3359 95.4578 59.6058C95.3429 59.8727 95.2737 60.1707 95.2502 60.5001C95.2351 60.8147 95.2741 61.1459 95.3673 61.4936L96.4854 65.6664L94.2077 66.2767L91.925 57.7572ZM102.438 54.6421C103.099 54.465 103.733 54.4195 104.339 54.5053C104.955 54.5765 105.514 54.7621 106.017 55.0622C106.528 55.3476 106.968 55.7389 107.338 56.2363C107.719 56.7306 107.998 57.308 108.175 57.9687C108.352 58.6294 108.399 59.269 108.316 59.8875C108.245 60.5029 108.061 61.0678 107.764 61.5822C107.475 62.0819 107.084 62.5222 106.59 62.9031C106.104 63.2693 105.531 63.5409 104.87 63.7179C104.209 63.895 103.571 63.9479 102.956 63.8767C102.349 63.7909 101.79 63.6053 101.279 63.3199C100.776 63.0198 100.334 62.6226 99.953 62.1284C99.5837 61.631 99.3105 61.052 99.1335 60.3913C98.9564 59.7306 98.9035 59.0925 98.9747 58.4772C99.0574 57.8587 99.243 57.2996 99.5315 56.7999C99.8285 56.2855 100.22 55.8452 100.706 55.479C101.2 55.0981 101.777 54.8191 102.438 54.6421ZM104.306 61.6141C104.596 61.5365 104.86 61.4098 105.099 61.234C105.346 61.0436 105.546 60.8161 105.699 60.5515C105.851 60.287 105.945 59.9885 105.981 59.6561C106.027 59.3205 105.999 58.9615 105.897 58.579C105.794 58.1965 105.639 57.8717 105.431 57.6045C105.234 57.3341 105.004 57.1226 104.739 56.9699C104.474 56.8172 104.189 56.7259 103.883 56.6961C103.585 56.6516 103.292 56.6682 103.002 56.7459C102.7 56.8266 102.432 56.9607 102.196 57.148C101.958 57.3238 101.762 57.5439 101.609 57.8085C101.457 58.073 101.357 58.373 101.31 58.7086C101.275 59.041 101.309 59.3985 101.411 59.781C101.514 60.1635 101.663 60.4899 101.86 60.7602C102.068 61.0274 102.305 61.2374 102.569 61.3901C102.834 61.5428 103.115 61.6415 103.412 61.6859C103.707 61.7188 104.005 61.6949 104.306 61.6141ZM116.851 59.1101L116.712 59.1473C116.599 59.5626 116.357 59.9567 115.985 60.3297C115.613 60.7027 115.102 60.9762 114.453 61.1502C113.908 61.2961 113.357 61.3258 112.8 61.2391C112.251 61.1377 111.732 60.9412 111.244 60.6496C110.764 60.3433 110.34 59.9415 109.971 59.4441C109.601 58.9468 109.328 58.3677 109.151 57.707C108.974 57.0463 108.921 56.4083 108.992 55.7929C109.064 55.1775 109.232 54.6231 109.497 54.1296C109.771 53.6214 110.122 53.192 110.549 52.8413C110.986 52.476 111.476 52.2203 112.021 52.0743C112.67 51.9004 113.249 51.8819 113.758 52.0189C114.267 52.1559 114.674 52.3761 114.979 52.6795L115.118 52.6422L114.652 51.4624L113.651 47.7243L115.928 47.114L119.264 59.5629L117.126 60.1359L116.851 59.1101ZM114.359 58.9206C114.66 58.8398 114.93 58.7116 115.169 58.5358C115.416 58.3454 115.616 58.1179 115.769 57.8533C115.921 57.5888 116.021 57.2887 116.068 56.9532C116.115 56.6177 116.087 56.2587 115.984 55.8761C115.882 55.4936 115.726 55.1688 115.518 54.9016C115.31 54.6344 115.073 54.4244 114.809 54.2717C114.544 54.1189 114.259 54.0277 113.953 53.9979C113.655 53.9534 113.356 53.9716 113.054 54.0523C112.753 54.1331 112.479 54.2687 112.232 54.4591C111.996 54.6465 111.802 54.8724 111.649 55.137C111.496 55.4015 111.397 55.7015 111.35 56.0371C111.303 56.3726 111.329 56.7258 111.429 57.0967C111.528 57.4677 111.682 57.7867 111.89 58.0539C112.099 58.3211 112.335 58.5311 112.6 58.6838C112.864 58.8366 113.145 58.9352 113.443 58.9796C113.752 59.021 114.057 59.0013 114.359 58.9206ZM126.801 56.3508L126.661 56.3881C126.51 56.8884 126.242 57.3266 125.858 57.7028C125.472 58.0673 124.988 58.3272 124.409 58.4825C123.331 58.7714 122.437 58.6569 121.726 58.139C121.028 57.6181 120.531 56.8071 120.236 55.7059L118.852 50.5421L121.13 49.9318L122.439 54.8174C122.604 55.4318 122.86 55.8539 123.207 56.0838C123.563 56.2991 124.002 56.3368 124.523 56.197C124.836 56.1132 125.091 55.9764 125.289 55.7868C125.495 55.5825 125.65 55.3485 125.753 55.0848C125.865 54.8064 125.921 54.5056 125.921 54.1825C125.93 53.8447 125.888 53.5019 125.795 53.1542L124.677 48.9814L126.954 48.3711L129.237 56.8906L127.099 57.4636L126.801 56.3508ZM138.606 52.0509C138.428 52.8689 138.064 53.5998 137.516 54.2436C136.977 54.8727 136.209 55.3208 135.212 55.5879C134.551 55.7649 133.913 55.8178 133.298 55.7467C132.691 55.6608 132.13 55.4694 131.616 55.1724C131.113 54.8723 130.673 54.481 130.295 53.9983C129.925 53.5009 129.652 52.9219 129.475 52.2612C129.298 51.6005 129.245 50.9625 129.316 50.3471C129.399 49.7286 129.585 49.1695 129.873 48.6698C130.17 48.1554 130.562 47.7151 131.047 47.3489C131.542 46.968 132.119 46.6891 132.78 46.512C133.765 46.248 134.654 46.252 135.448 46.5239C136.241 46.7958 136.891 47.2492 137.396 47.884L135.543 49.3123C135.24 48.9711 134.906 48.7438 134.54 48.6306C134.183 48.5027 133.772 48.5009 133.309 48.6251C133.007 48.7059 132.739 48.8399 132.503 49.0273C132.268 49.2146 132.074 49.4406 131.921 49.7051C131.78 49.9666 131.692 50.2635 131.657 50.5959C131.621 50.9283 131.654 51.28 131.753 51.6509C131.852 52.0218 132 52.3425 132.197 52.6128C132.394 52.8831 132.618 53.0962 132.871 53.252C133.136 53.4047 133.417 53.5033 133.715 53.5478C134.012 53.5923 134.312 53.5741 134.613 53.4934C135.088 53.3661 135.46 53.1546 135.729 52.859C136.006 52.5487 136.189 52.1643 136.277 51.7058L138.606 52.0509ZM139.234 43.7578C139.036 43.8106 138.836 43.8271 138.632 43.8073C138.436 43.7727 138.252 43.7103 138.079 43.6201C137.914 43.5152 137.767 43.3866 137.64 43.2345C137.524 43.0793 137.438 42.8973 137.382 42.6887C137.326 42.4801 137.309 42.2795 137.332 42.087C137.367 41.8914 137.431 41.7127 137.524 41.5511C137.626 41.3747 137.754 41.2285 137.91 41.1123C138.073 40.9815 138.254 40.8897 138.451 40.8369C138.857 40.7282 139.243 40.7799 139.611 40.992C139.975 41.1926 140.211 41.4957 140.32 41.9014C140.429 42.3071 140.377 42.6936 140.165 43.061C139.95 43.4169 139.639 43.6491 139.234 43.7578ZM140.717 53.8146L138.434 45.2951L140.712 44.6848L142.995 53.2043L140.717 53.8146ZM145.231 44.6665L145.37 44.6292C145.522 44.1289 145.791 43.6965 146.178 43.3319C146.562 42.9558 147.043 42.6901 147.623 42.5348C148.156 42.3919 148.649 42.3531 149.101 42.4182C149.554 42.4834 149.951 42.6441 150.293 42.9003C150.643 43.1419 150.943 43.4716 151.191 43.8894C151.448 44.2926 151.65 44.7666 151.796 45.3114L153.18 50.4753L150.902 51.0855L149.593 46.1999C149.428 45.5856 149.168 45.1708 148.812 44.9555C148.465 44.7256 148.03 44.6805 147.509 44.8203C147.196 44.9041 146.936 45.0482 146.73 45.2525C146.532 45.4422 146.378 45.6762 146.266 45.9546C146.163 46.2183 146.107 46.5191 146.098 46.8569C146.097 47.18 146.144 47.5154 146.237 47.8631L147.355 52.0359L145.077 52.6462L142.795 44.1268L144.933 43.5537L145.231 44.6665ZM159.986 52.9747C159.384 53.1362 158.823 53.1995 158.304 53.1645C157.8 53.1381 157.34 53.0439 156.924 52.8821C156.511 52.7319 156.148 52.5371 155.836 52.2979C155.523 52.0586 155.274 51.8023 155.089 51.5289L157.03 50.0772C157.313 50.4858 157.673 50.7621 158.109 50.9061C158.548 51.0617 158.994 51.0789 159.446 50.9578C160.165 50.7653 160.672 50.387 160.968 49.8232C161.267 49.2709 161.31 48.5949 161.096 47.7951L160.937 47.2039L160.798 47.2412C160.631 47.6836 160.357 48.0739 159.975 48.4121C159.602 48.7357 159.12 48.9766 158.529 49.135C158.019 49.2717 157.493 49.3009 156.95 49.2227C156.419 49.1414 155.916 48.9592 155.443 48.6761C154.967 48.3814 154.539 47.9927 154.162 47.51C153.784 47.0274 153.505 46.4499 153.325 45.7776C153.145 45.1053 153.097 44.4657 153.183 43.8588C153.266 43.2403 153.442 42.6902 153.71 42.2083C153.975 41.7148 154.318 41.3 154.737 40.9641C155.168 40.625 155.638 40.3871 156.148 40.2505C156.739 40.0921 157.279 40.0655 157.767 40.1708C158.263 40.2615 158.694 40.4565 159.06 40.756L159.2 40.7187L158.953 39.7972L161.126 39.2149L163.246 47.1258C163.438 47.8445 163.5 48.5173 163.432 49.1442C163.367 49.7828 163.191 50.3519 162.902 50.8516C162.617 51.3629 162.224 51.7974 161.723 52.1552C161.238 52.5214 160.659 52.7945 159.986 52.9747ZM158.466 46.953C158.744 46.8784 159.003 46.7533 159.241 46.5775C159.492 46.3987 159.695 46.1828 159.85 45.9298C160.003 45.6653 160.104 45.371 160.154 45.0471C160.201 44.7115 160.173 44.3525 160.071 43.97C159.968 43.5875 159.813 43.2627 159.605 42.9955C159.396 42.7283 159.161 42.5241 158.9 42.3829C158.635 42.2302 158.35 42.1389 158.044 42.1092C157.749 42.0763 157.463 42.0971 157.185 42.1716C156.907 42.2462 156.648 42.3713 156.41 42.5471C156.171 42.7228 155.975 42.943 155.823 43.2075C155.67 43.4721 155.57 43.7721 155.523 44.1076C155.474 44.4316 155.5 44.7848 155.602 45.1673C155.705 45.5498 155.86 45.8747 156.068 46.1419C156.274 46.3975 156.508 46.6017 156.773 46.7544C157.034 46.8956 157.312 46.9826 157.607 47.0155C157.902 47.0483 158.188 47.0275 158.466 46.953Z" fill="#1F2023"/>
<path d="M174.254 30.7246C172.646 31.1158 171.215 32.0346 170.19 33.3341C169.165 34.6337 168.606 36.2391 168.6 37.8942C168.561 37.9154 168.636 37.868 168.6 37.8942C166.157 40.6414 167.261 44.9058 170.655 46.3189L170.658 46.3123L170.659 46.3367C171.739 46.7752 172.933 46.8461 174.057 46.5384L178.017 45.4775L178.046 45.4943L182.02 44.4295C187.149 43.0987 187.431 35.9206 182.422 34.1906C181.696 32.9418 180.621 31.9321 179.329 31.2851L179.305 31.3268L179.3 31.2873C177.737 30.5107 175.95 30.3114 174.254 30.7246ZM174.83 33.9713C175.774 33.6856 176.833 33.7366 177.734 34.1366C178.292 34.3952 178.785 34.7755 179.176 35.2495C179.567 35.7236 179.847 36.2794 179.996 36.876L180.102 37.2724C182.789 36.4949 183.883 40.5759 181.167 41.2471L177.192 42.3121L177.188 42.3206L177.18 42.29L173.204 43.3552C172.923 43.4304 172.628 43.445 172.341 43.398C172.012 43.3439 171.703 43.2107 171.437 43.0104C171.171 42.81 170.958 42.5482 170.816 42.2474C170.674 41.9466 170.606 41.6158 170.62 41.2833C170.633 40.9509 170.728 40.6266 170.894 40.3385C171.06 40.0503 171.294 39.8067 171.575 39.6287C171.856 39.4507 172.176 39.3436 172.508 39.3164C172.84 39.2893 173.173 39.3429 173.479 39.4728C173.786 39.6027 174.056 39.805 174.267 40.0623L175.955 37.139C174.921 36.3457 173.633 35.9572 172.333 36.0465C172.345 36.0352 172.358 36.0184 172.37 36.0178C172.623 35.5297 172.971 35.0972 173.394 34.7458C173.817 34.3944 174.306 34.1312 174.832 33.9717L174.83 33.9713Z" fill="#333333"/>
<path d="M149.535 92.399H183.231C183.423 93.167 183.583 94.095 183.711 95.183C183.839 96.271 183.903 97.359 183.903 98.447C183.903 102.863 183.231 107.023 181.887 110.927C180.543 114.831 178.431 118.319 175.551 121.391C172.479 124.655 168.799 127.183 164.511 128.975C160.223 130.767 155.327 131.663 149.823 131.663C144.831 131.663 140.127 130.767 135.711 128.975C131.295 127.183 127.455 124.687 124.191 121.487C120.927 118.287 118.335 114.511 116.415 110.159C114.495 105.743 113.535 100.943 113.535 95.759C113.535 90.575 114.495 85.807 116.415 81.455C118.335 77.0389 120.927 73.2309 124.191 70.0309C127.455 66.8309 131.295 64.3349 135.711 62.5429C140.127 60.7509 144.831 59.8549 149.823 59.8549C155.391 59.8549 160.351 60.8149 164.703 62.735C169.119 64.6549 172.895 67.3109 176.031 70.703L167.103 79.439C164.863 77.071 162.367 75.279 159.615 74.0629C156.863 72.7829 153.567 72.143 149.727 72.143C146.591 72.143 143.615 72.719 140.799 73.871C137.983 74.959 135.519 76.527 133.407 78.575C131.295 80.623 129.599 83.119 128.319 86.063C127.103 88.943 126.495 92.175 126.495 95.759C126.495 99.343 127.103 102.607 128.319 105.551C129.599 108.431 131.295 110.895 133.407 112.943C135.583 114.991 138.079 116.591 140.895 117.743C143.711 118.831 146.719 119.375 149.919 119.375C153.567 119.375 156.639 118.863 159.135 117.839C161.695 116.751 163.871 115.375 165.663 113.711C166.943 112.559 168.031 111.119 168.927 109.391C169.887 107.599 170.623 105.615 171.135 103.439H149.535V92.399ZM214.881 81.5509C218.529 81.5509 221.857 82.1909 224.865 83.471C227.937 84.687 230.561 86.415 232.737 88.655C234.977 90.831 236.705 93.455 237.921 96.527C239.201 99.599 239.841 102.959 239.841 106.607C239.841 110.255 239.201 113.615 237.921 116.687C236.705 119.759 234.977 122.415 232.737 124.655C230.561 126.831 227.937 128.559 224.865 129.839C221.857 131.055 218.529 131.663 214.881 131.663C211.233 131.663 207.873 131.055 204.801 129.839C201.793 128.559 199.169 126.831 196.929 124.655C194.753 122.415 193.025 119.759 191.745 116.687C190.529 113.615 189.921 110.255 189.921 106.607C189.921 102.959 190.529 99.599 191.745 96.527C193.025 93.455 194.753 90.831 196.929 88.655C199.169 86.415 201.793 84.687 204.801 83.471C207.873 82.1909 211.233 81.5509 214.881 81.5509ZM214.881 120.047C216.481 120.047 218.017 119.759 219.489 119.183C221.025 118.543 222.369 117.647 223.521 116.495C224.673 115.343 225.569 113.935 226.209 112.271C226.913 110.607 227.265 108.719 227.265 106.607C227.265 104.495 226.913 102.607 226.209 100.943C225.569 99.279 224.673 97.871 223.521 96.719C222.369 95.567 221.025 94.703 219.489 94.127C218.017 93.487 216.481 93.167 214.881 93.167C213.217 93.167 211.649 93.487 210.177 94.127C208.705 94.703 207.393 95.567 206.241 96.719C205.089 97.871 204.161 99.279 203.457 100.943C202.817 102.607 202.497 104.495 202.497 106.607C202.497 108.719 202.817 110.607 203.457 112.271C204.161 113.935 205.089 115.343 206.241 116.495C207.393 117.647 208.705 118.543 210.177 119.183C211.649 119.759 213.217 120.047 214.881 120.047ZM270.194 81.5509C273.842 81.5509 277.17 82.1909 280.178 83.471C283.25 84.687 285.874 86.415 288.05 88.655C290.29 90.831 292.018 93.455 293.234 96.527C294.514 99.599 295.154 102.959 295.154 106.607C295.154 110.255 294.514 113.615 293.234 116.687C292.018 119.759 290.29 122.415 288.05 124.655C285.874 126.831 283.25 128.559 280.178 129.839C277.17 131.055 273.842 131.663 270.194 131.663C266.546 131.663 263.186 131.055 260.114 129.839C257.106 128.559 254.482 126.831 252.242 124.655C250.066 122.415 248.338 119.759 247.058 116.687C245.842 113.615 245.234 110.255 245.234 106.607C245.234 102.959 245.842 99.599 247.058 96.527C248.338 93.455 250.066 90.831 252.242 88.655C254.482 86.415 257.106 84.687 260.114 83.471C263.186 82.1909 266.546 81.5509 270.194 81.5509ZM270.194 120.047C271.794 120.047 273.33 119.759 274.802 119.183C276.338 118.543 277.682 117.647 278.834 116.495C279.986 115.343 280.882 113.935 281.522 112.271C282.226 110.607 282.578 108.719 282.578 106.607C282.578 104.495 282.226 102.607 281.522 100.943C280.882 99.279 279.986 97.871 278.834 96.719C277.682 95.567 276.338 94.703 274.802 94.127C273.33 93.487 271.794 93.167 270.194 93.167C268.53 93.167 266.962 93.487 265.49 94.127C264.018 94.703 262.706 95.567 261.554 96.719C260.402 97.871 259.474 99.279 258.77 100.943C258.13 102.607 257.81 104.495 257.81 106.607C257.81 108.719 258.13 110.607 258.77 112.271C259.474 113.935 260.402 115.343 261.554 116.495C262.706 117.647 264.018 118.543 265.49 119.183C266.962 119.759 268.53 120.047 270.194 120.047ZM324.93 152.399C321.602 152.399 318.626 151.951 316.002 151.055C313.442 150.223 311.202 149.103 309.282 147.695C307.362 146.351 305.762 144.847 304.482 143.183C303.202 141.519 302.274 139.855 301.698 138.191L313.698 133.391C314.594 135.887 316.066 137.807 318.114 139.151C320.162 140.559 322.434 141.263 324.93 141.263C328.898 141.263 332.034 140.015 334.338 137.519C336.642 135.087 337.794 131.663 337.794 127.247V123.983H337.026C335.554 126.031 333.602 127.663 331.17 128.879C328.802 130.031 325.986 130.607 322.722 130.607C319.906 130.607 317.154 130.031 314.466 128.879C311.842 127.727 309.506 126.095 307.458 123.983C305.41 121.807 303.746 119.215 302.466 116.207C301.186 113.199 300.546 109.839 300.546 106.127C300.546 102.415 301.186 99.055 302.466 96.047C303.746 92.975 305.41 90.383 307.458 88.271C309.506 86.095 311.842 84.431 314.466 83.2789C317.154 82.1269 319.906 81.5509 322.722 81.5509C325.986 81.5509 328.802 82.1589 331.17 83.375C333.602 84.527 335.554 86.127 337.026 88.175H337.794V83.087H349.794V126.767C349.794 130.735 349.186 134.287 347.97 137.423C346.754 140.623 345.058 143.311 342.882 145.487C340.706 147.727 338.082 149.423 335.01 150.575C332.002 151.791 328.642 152.399 324.93 152.399ZM325.41 119.279C326.946 119.279 328.45 118.991 329.922 118.415C331.458 117.839 332.802 117.007 333.954 115.919C335.106 114.767 336.034 113.391 336.738 111.791C337.442 110.127 337.794 108.239 337.794 106.127C337.794 104.015 337.442 102.127 336.738 100.463C336.034 98.799 335.106 97.423 333.954 96.335C332.802 95.183 331.458 94.319 329.922 93.743C328.45 93.167 326.946 92.879 325.41 92.879C323.874 92.879 322.37 93.167 320.898 93.743C319.426 94.319 318.114 95.183 316.962 96.335C315.81 97.487 314.882 98.895 314.178 100.559C313.474 102.159 313.122 104.015 313.122 106.127C313.122 108.239 313.474 110.127 314.178 111.791C314.882 113.391 315.81 114.767 316.962 115.919C318.114 117.007 319.426 117.839 320.898 118.415C322.37 118.991 323.874 119.279 325.41 119.279ZM360.516 130.127V61.391H373.092V130.127H360.516ZM427.935 118.799C425.759 122.639 422.815 125.743 419.103 128.111C415.455 130.479 410.975 131.663 405.663 131.663C402.079 131.663 398.751 131.055 395.679 129.839C392.671 128.559 390.047 126.799 387.807 124.559C385.567 122.319 383.807 119.695 382.527 116.687C381.311 113.615 380.703 110.255 380.703 106.607C380.703 103.215 381.311 100.015 382.527 97.007C383.743 93.935 385.439 91.279 387.615 89.0389C389.791 86.735 392.351 84.911 395.295 83.567C398.303 82.2229 401.599 81.5509 405.183 81.5509C408.959 81.5509 412.319 82.1909 415.263 83.471C418.207 84.687 420.671 86.415 422.655 88.655C424.639 90.831 426.143 93.423 427.167 96.431C428.191 99.439 428.703 102.703 428.703 106.223C428.703 106.671 428.703 107.055 428.703 107.375C428.639 107.759 428.607 108.111 428.607 108.431C428.543 108.751 428.511 109.103 428.511 109.487H393.087C393.343 111.407 393.855 113.071 394.623 114.479C395.455 115.823 396.447 116.975 397.599 117.935C398.815 118.831 400.127 119.503 401.535 119.951C402.943 120.335 404.383 120.527 405.855 120.527C408.735 120.527 411.103 119.887 412.959 118.607C414.879 117.263 416.383 115.599 417.471 113.615L427.935 118.799ZM416.511 100.559C416.447 99.727 416.159 98.799 415.647 97.775C415.199 96.751 414.495 95.791 413.535 94.895C412.639 93.999 411.487 93.263 410.079 92.687C408.735 92.111 407.103 91.823 405.183 91.823C402.495 91.823 400.127 92.591 398.079 94.127C396.031 95.663 394.591 97.807 393.759 100.559H416.511ZM517.585 119.087C514.193 123.183 510.193 126.319 505.585 128.495C500.977 130.607 495.825 131.663 490.129 131.663C485.009 131.663 480.241 130.735 475.825 128.879C471.473 127.023 467.697 124.495 464.497 121.295C461.297 118.095 458.769 114.319 456.913 109.967C455.057 105.551 454.129 100.815 454.129 95.759C454.129 90.703 455.057 85.999 456.913 81.647C458.769 77.231 461.297 73.423 464.497 70.223C467.697 67.023 471.473 64.495 475.825 62.639C480.241 60.7829 485.009 59.8549 490.129 59.8549C495.633 59.8549 500.465 60.8149 504.625 62.735C508.849 64.6549 512.593 67.4389 515.857 71.087L506.737 79.919C504.689 77.551 502.321 75.663 499.633 74.255C497.009 72.847 493.873 72.143 490.225 72.143C487.025 72.143 484.017 72.719 481.201 73.871C478.385 74.959 475.921 76.527 473.809 78.575C471.761 80.623 470.129 83.119 468.913 86.063C467.697 88.943 467.089 92.175 467.089 95.759C467.089 99.343 467.697 102.607 468.913 105.551C470.129 108.431 471.761 110.895 473.809 112.943C475.921 114.991 478.385 116.591 481.201 117.743C484.017 118.831 487.025 119.375 490.225 119.375C494.065 119.375 497.457 118.607 500.401 117.071C503.409 115.471 506.065 113.231 508.369 110.351L517.585 119.087ZM525.516 130.127V61.391H538.092V130.127H525.516ZM570.663 81.5509C574.311 81.5509 577.639 82.1909 580.647 83.471C583.719 84.687 586.343 86.415 588.519 88.655C590.759 90.831 592.487 93.455 593.703 96.527C594.983 99.599 595.623 102.959 595.623 106.607C595.623 110.255 594.983 113.615 593.703 116.687C592.487 119.759 590.759 122.415 588.519 124.655C586.343 126.831 583.719 128.559 580.647 129.839C577.639 131.055 574.311 131.663 570.663 131.663C567.015 131.663 563.655 131.055 560.583 129.839C557.575 128.559 554.951 126.831 552.711 124.655C550.535 122.415 548.807 119.759 547.527 116.687C546.311 113.615 545.703 110.255 545.703 106.607C545.703 102.959 546.311 99.599 547.527 96.527C548.807 93.455 550.535 90.831 552.711 88.655C554.951 86.415 557.575 84.687 560.583 83.471C563.655 82.1909 567.015 81.5509 570.663 81.5509ZM570.663 120.047C572.263 120.047 573.799 119.759 575.271 119.183C576.807 118.543 578.151 117.647 579.303 116.495C580.455 115.343 581.351 113.935 581.991 112.271C582.695 110.607 583.047 108.719 583.047 106.607C583.047 104.495 582.695 102.607 581.991 100.943C581.351 99.279 580.455 97.871 579.303 96.719C578.151 95.567 576.807 94.703 575.271 94.127C573.799 93.487 572.263 93.167 570.663 93.167C568.999 93.167 567.431 93.487 565.959 94.127C564.487 94.703 563.175 95.567 562.023 96.719C560.871 97.871 559.943 99.279 559.239 100.943C558.599 102.607 558.279 104.495 558.279 106.607C558.279 108.719 558.599 110.607 559.239 112.271C559.943 113.935 560.871 115.343 562.023 116.495C563.175 117.647 564.487 118.543 565.959 119.183C567.431 119.759 568.999 120.047 570.663 120.047ZM635.778 123.983H635.01C633.538 126.351 631.554 128.239 629.058 129.647C626.562 130.991 623.714 131.663 620.514 131.663C614.562 131.663 610.114 129.839 607.17 126.191C604.29 122.543 602.85 117.679 602.85 111.599V83.087H615.426V110.063C615.426 113.455 616.162 115.983 617.634 117.647C619.17 119.247 621.378 120.047 624.258 120.047C625.986 120.047 627.49 119.695 628.77 118.991C630.114 118.223 631.234 117.231 632.13 116.015C633.09 114.735 633.794 113.263 634.242 111.599C634.754 109.871 635.01 108.047 635.01 106.127V83.087H647.586V130.127H635.778V123.983ZM692.931 124.463H692.163C691.011 126.447 689.219 128.143 686.787 129.551C684.355 130.959 681.347 131.663 677.763 131.663C674.755 131.663 671.875 131.055 669.123 129.839C666.435 128.559 664.035 126.831 661.923 124.655C659.875 122.415 658.243 119.759 657.027 116.687C655.811 113.615 655.203 110.255 655.203 106.607C655.203 102.959 655.811 99.599 657.027 96.527C658.243 93.455 659.875 90.831 661.923 88.655C664.035 86.415 666.435 84.687 669.123 83.471C671.875 82.1909 674.755 81.5509 677.763 81.5509C681.347 81.5509 684.355 82.2549 686.787 83.663C689.219 85.071 691.011 86.767 692.163 88.751H692.931L692.163 82.0309V61.391H704.739V130.127H692.931V124.463ZM680.355 120.047C682.019 120.047 683.587 119.759 685.059 119.183C686.595 118.543 687.939 117.647 689.091 116.495C690.243 115.343 691.171 113.935 691.875 112.271C692.579 110.607 692.931 108.719 692.931 106.607C692.931 104.495 692.579 102.607 691.875 100.943C691.171 99.279 690.243 97.871 689.091 96.719C687.939 95.567 686.595 94.703 685.059 94.127C683.587 93.487 682.019 93.167 680.355 93.167C678.691 93.167 677.091 93.487 675.555 94.127C674.083 94.767 672.771 95.663 671.619 96.815C670.467 97.967 669.539 99.375 668.835 101.039C668.131 102.703 667.779 104.559 667.779 106.607C667.779 108.655 668.131 110.511 668.835 112.175C669.539 113.839 670.467 115.247 671.619 116.399C672.771 117.551 674.083 118.447 675.555 119.087C677.091 119.727 678.691 120.047 680.355 120.047ZM98.1945 235.087C94.8025 239.183 90.8025 242.319 86.1945 244.495C81.5865 246.607 76.4345 247.663 70.7385 247.663C65.6185 247.663 60.8505 246.735 56.4345 244.879C52.0825 243.023 48.3065 240.495 45.1065 237.295C41.9065 234.095 39.3785 230.319 37.5225 225.967C35.6665 221.551 34.7385 216.815 34.7385 211.759C34.7385 206.703 35.6665 201.999 37.5225 197.647C39.3785 193.231 41.9065 189.423 45.1065 186.223C48.3065 183.023 52.0825 180.495 56.4345 178.639C60.8505 176.783 65.6185 175.855 70.7385 175.855C76.2425 175.855 81.0745 176.815 85.2345 178.735C89.4585 180.655 93.2025 183.439 96.4665 187.087L87.3465 195.919C85.2985 193.551 82.9305 191.663 80.2425 190.255C77.6185 188.847 74.4825 188.143 70.8345 188.143C67.6345 188.143 64.6265 188.719 61.8105 189.871C58.9945 190.959 56.5305 192.527 54.4185 194.575C52.3705 196.623 50.7385 199.119 49.5225 202.063C48.3065 204.943 47.6985 208.175 47.6985 211.759C47.6985 215.343 48.3065 218.607 49.5225 221.551C50.7385 224.431 52.3705 226.895 54.4185 228.943C56.5305 230.991 58.9945 232.591 61.8105 233.743C64.6265 234.831 67.6345 235.375 70.8345 235.375C74.6745 235.375 78.0665 234.607 81.0105 233.071C84.0185 231.471 86.6745 229.231 88.9785 226.351L98.1945 235.087ZM127.46 197.551C131.108 197.551 134.436 198.191 137.444 199.471C140.516 200.687 143.14 202.415 145.316 204.655C147.556 206.831 149.284 209.455 150.5 212.527C151.78 215.599 152.42 218.959 152.42 222.607C152.42 226.255 151.78 229.615 150.5 232.687C149.284 235.759 147.556 238.415 145.316 240.655C143.14 242.831 140.516 244.559 137.444 245.839C134.436 247.055 131.108 247.663 127.46 247.663C123.812 247.663 120.452 247.055 117.38 245.839C114.372 244.559 111.748 242.831 109.508 240.655C107.332 238.415 105.604 235.759 104.324 232.687C103.108 229.615 102.5 226.255 102.5 222.607C102.5 218.959 103.108 215.599 104.324 212.527C105.604 209.455 107.332 206.831 109.508 204.655C111.748 202.415 114.372 200.687 117.38 199.471C120.452 198.191 123.812 197.551 127.46 197.551ZM127.46 236.047C129.06 236.047 130.596 235.759 132.068 235.183C133.604 234.543 134.948 233.647 136.1 232.495C137.252 231.343 138.148 229.935 138.788 228.271C139.492 226.607 139.844 224.719 139.844 222.607C139.844 220.495 139.492 218.607 138.788 216.943C138.148 215.279 137.252 213.871 136.1 212.719C134.948 211.567 133.604 210.703 132.068 210.127C130.596 209.487 129.06 209.167 127.46 209.167C125.796 209.167 124.228 209.487 122.756 210.127C121.284 210.703 119.972 211.567 118.82 212.719C117.668 213.871 116.74 215.279 116.036 216.943C115.396 218.607 115.076 220.495 115.076 222.607C115.076 224.719 115.396 226.607 116.036 228.271C116.74 229.935 117.668 231.343 118.82 232.495C119.972 233.647 121.284 234.543 122.756 235.183C124.228 235.759 125.796 236.047 127.46 236.047ZM159.563 199.087H171.371V205.231H172.139C173.611 202.927 175.595 201.071 178.091 199.663C180.651 198.255 183.467 197.551 186.539 197.551C190.123 197.551 193.131 198.383 195.563 200.047C197.995 201.711 199.723 203.759 200.747 206.191C202.219 203.823 204.299 201.807 206.987 200.143C209.675 198.415 212.939 197.551 216.779 197.551C219.659 197.551 222.155 198.031 224.267 198.991C226.379 199.887 228.107 201.167 229.451 202.831C230.859 204.495 231.915 206.511 232.619 208.879C233.323 211.183 233.675 213.711 233.675 216.463V246.127H221.099V218.767C221.099 212.367 218.475 209.167 213.227 209.167C211.563 209.167 210.091 209.551 208.811 210.319C207.531 211.023 206.443 212.015 205.547 213.295C204.715 214.511 204.043 215.983 203.531 217.711C203.083 219.439 202.859 221.295 202.859 223.279V246.127H190.283V218.767C190.283 212.367 187.531 209.167 182.027 209.167C180.427 209.167 179.019 209.551 177.803 210.319C176.587 211.023 175.563 212.015 174.731 213.295C173.899 214.511 173.259 215.983 172.811 217.711C172.363 219.439 172.139 221.295 172.139 223.279V246.127H159.563V199.087ZM244.031 199.087H255.839V205.231H256.607C258.079 202.927 260.063 201.071 262.559 199.663C265.119 198.255 267.935 197.551 271.007 197.551C274.591 197.551 277.599 198.383 280.031 200.047C282.463 201.711 284.191 203.759 285.215 206.191C286.687 203.823 288.767 201.807 291.455 200.143C294.143 198.415 297.407 197.551 301.247 197.551C304.127 197.551 306.623 198.031 308.735 198.991C310.847 199.887 312.575 201.167 313.919 202.831C315.327 204.495 316.383 206.511 317.087 208.879C317.791 211.183 318.143 213.711 318.143 216.463V246.127H305.567V218.767C305.567 212.367 302.943 209.167 297.695 209.167C296.031 209.167 294.559 209.551 293.279 210.319C291.999 211.023 290.911 212.015 290.015 213.295C289.183 214.511 288.511 215.983 287.999 217.711C287.551 219.439 287.327 221.295 287.327 223.279V246.127H274.751V218.767C274.751 212.367 271.999 209.167 266.495 209.167C264.895 209.167 263.487 209.551 262.271 210.319C261.055 211.023 260.031 212.015 259.199 213.295C258.367 214.511 257.727 215.983 257.279 217.711C256.831 219.439 256.607 221.295 256.607 223.279V246.127H244.031V199.087ZM361.044 239.983H360.276C358.804 242.351 356.82 244.239 354.324 245.647C351.828 246.991 348.98 247.663 345.78 247.663C339.828 247.663 335.38 245.839 332.436 242.191C329.556 238.543 328.116 233.679 328.116 227.599V199.087H340.692V226.063C340.692 229.455 341.428 231.983 342.9 233.647C344.436 235.247 346.644 236.047 349.524 236.047C351.252 236.047 352.756 235.695 354.036 234.991C355.38 234.223 356.5 233.231 357.396 232.015C358.356 230.735 359.06 229.263 359.508 227.599C360.02 225.871 360.276 224.047 360.276 222.127V199.087H372.852V246.127H361.044V239.983ZM395.433 205.231H396.201C397.673 202.863 399.657 201.007 402.153 199.663C404.649 198.255 407.497 197.551 410.697 197.551C413.641 197.551 416.233 198.031 418.473 198.991C420.713 199.951 422.537 201.327 423.945 203.119C425.417 204.847 426.505 206.959 427.209 209.455C427.977 211.887 428.361 214.607 428.361 217.615V246.127H415.785V219.151C415.785 215.759 415.017 213.263 413.481 211.663C412.009 209.999 409.833 209.167 406.953 209.167C405.225 209.167 403.689 209.551 402.345 210.319C401.065 211.023 399.945 212.015 398.985 213.295C398.089 214.511 397.385 215.983 396.873 217.711C396.425 219.375 396.201 221.167 396.201 223.087V246.127H383.625V199.087H395.433V205.231ZM445.758 192.271C444.67 192.271 443.614 192.079 442.59 191.695C441.63 191.247 440.766 190.671 439.998 189.967C439.294 189.199 438.718 188.335 438.27 187.375C437.886 186.415 437.694 185.359 437.694 184.207C437.694 183.055 437.886 181.999 438.27 181.039C438.718 180.079 439.294 179.247 439.998 178.543C440.766 177.775 441.63 177.199 442.59 176.815C443.614 176.367 444.67 176.143 445.758 176.143C447.998 176.143 449.918 176.943 451.518 178.543C453.118 180.079 453.918 181.967 453.918 184.207C453.918 186.447 453.118 188.367 451.518 189.967C449.918 191.503 447.998 192.271 445.758 192.271ZM439.518 246.127V199.087H452.094V246.127H439.518ZM468.309 209.839H460.053V199.087H468.309V184.687H480.885V199.087H492.405V209.839H480.885V228.079C480.885 229.167 480.981 230.191 481.173 231.151C481.429 232.047 481.877 232.815 482.517 233.455C483.413 234.479 484.693 234.991 486.357 234.991C487.445 234.991 488.309 234.895 488.949 234.703C489.589 234.447 490.197 234.127 490.773 233.743L494.325 244.783C492.853 245.487 491.253 245.999 489.525 246.319C487.861 246.703 486.005 246.895 483.957 246.895C481.589 246.895 479.445 246.543 477.525 245.839C475.669 245.071 474.101 244.047 472.821 242.767C469.813 239.887 468.309 235.791 468.309 230.479V209.839ZM516.909 243.823L497.133 199.087H511.437L523.341 227.599H524.013L535.437 199.087H549.453L519.981 266.863H506.445L516.909 243.823ZM577.817 177.391H601.049C606.489 177.391 611.385 178.223 615.737 179.887C620.089 181.551 623.801 183.919 626.873 186.991C629.945 189.999 632.281 193.615 633.881 197.839C635.545 202.063 636.377 206.703 636.377 211.759C636.377 216.879 635.545 221.551 633.881 225.775C632.281 229.999 629.945 233.615 626.873 236.623C623.801 239.631 620.089 241.967 615.737 243.631C611.385 245.295 606.489 246.127 601.049 246.127H577.817V177.391ZM600.473 233.839C604.249 233.839 607.577 233.327 610.457 232.303C613.337 231.215 615.737 229.711 617.657 227.791C619.577 225.871 621.017 223.567 621.977 220.879C622.937 218.127 623.417 215.087 623.417 211.759C623.417 208.431 622.937 205.423 621.977 202.735C621.017 199.983 619.577 197.647 617.657 195.727C615.737 193.807 613.337 192.335 610.457 191.311C607.577 190.223 604.249 189.679 600.473 189.679H590.777V233.839H600.473ZM674.273 241.135H673.505C672.033 242.927 670.241 244.463 668.129 245.743C666.081 247.023 663.425 247.663 660.161 247.663C657.729 247.663 655.425 247.247 653.249 246.415C651.137 245.647 649.281 244.559 647.681 243.151C646.081 241.743 644.833 240.047 643.937 238.063C643.041 236.079 642.593 233.903 642.593 231.535C642.593 229.103 643.073 226.927 644.033 225.007C644.993 223.023 646.337 221.327 648.065 219.919C649.793 218.511 651.809 217.455 654.113 216.751C656.481 215.983 659.041 215.599 661.793 215.599C664.865 215.599 667.393 215.855 669.377 216.367C671.361 216.815 672.993 217.295 674.273 217.807V216.367C674.273 213.871 673.281 211.823 671.297 210.223C669.313 208.559 666.849 207.727 663.905 207.727C659.553 207.727 655.873 209.551 652.865 213.199L643.745 206.959C648.737 200.687 655.553 197.551 664.193 197.551C671.489 197.551 677.057 199.279 680.897 202.735C684.737 206.127 686.657 211.183 686.657 217.903V246.127H674.273V241.135ZM674.273 227.023C672.801 226.319 671.265 225.775 669.665 225.391C668.129 224.943 666.433 224.719 664.577 224.719C661.569 224.719 659.233 225.391 657.569 226.735C655.969 228.015 655.169 229.615 655.169 231.535C655.169 233.455 655.937 234.991 657.473 236.143C659.073 237.295 660.897 237.871 662.945 237.871C664.609 237.871 666.145 237.583 667.553 237.007C668.961 236.367 670.145 235.567 671.105 234.607C672.129 233.583 672.897 232.431 673.409 231.151C673.985 229.807 674.273 228.431 674.273 227.023ZM710.503 243.823L690.727 199.087H705.031L716.935 227.599H717.607L729.031 199.087H743.047L713.575 266.863H700.039L710.503 243.823ZM766.468 247.663C763.396 247.663 760.644 247.279 758.212 246.511C755.844 245.743 753.764 244.751 751.972 243.535C750.244 242.255 748.772 240.815 747.556 239.215C746.34 237.551 745.412 235.887 744.772 234.223L756.004 229.423C757.092 231.855 758.532 233.679 760.324 234.895C762.18 236.047 764.228 236.623 766.468 236.623C768.772 236.623 770.596 236.207 771.94 235.375C773.284 234.543 773.956 233.551 773.956 232.399C773.956 231.119 773.38 230.095 772.228 229.327C771.14 228.495 769.22 227.759 766.468 227.119L759.844 225.679C758.372 225.359 756.836 224.847 755.236 224.143C753.7 223.439 752.292 222.543 751.012 221.455C749.732 220.367 748.676 219.055 747.844 217.519C747.012 215.983 746.596 214.191 746.596 212.143C746.596 209.839 747.076 207.791 748.036 205.999C749.06 204.207 750.436 202.703 752.164 201.487C753.892 200.207 755.908 199.247 758.212 198.607C760.58 197.903 763.108 197.551 765.796 197.551C770.276 197.551 774.276 198.447 777.796 200.239C781.316 201.967 783.908 204.751 785.572 208.591L774.724 213.007C773.828 211.151 772.516 209.807 770.788 208.975C769.06 208.143 767.332 207.727 765.604 207.727C763.812 207.727 762.244 208.111 760.9 208.879C759.556 209.583 758.884 210.511 758.884 211.663C758.884 212.751 759.428 213.615 760.516 214.255C761.668 214.895 763.204 215.471 765.124 215.983L772.324 217.711C777.124 218.863 780.676 220.719 782.98 223.279C785.348 225.775 786.532 228.751 786.532 232.207C786.532 234.255 786.052 236.207 785.092 238.063C784.132 239.919 782.756 241.583 780.964 243.055C779.236 244.463 777.124 245.583 774.628 246.415C772.196 247.247 769.476 247.663 766.468 247.663Z" fill="white"/>
<mask id="mask0_41_47" style="mask-type:alpha" maskUnits="userSpaceOnUse" x="727" y="50" width="127" height="128">
<path d="M785.329 122.408C784.826 122.312 784.35 122.082 783.943 121.737C781.188 119.995 778.354 118.313 775.646 116.44C775.184 116.122 774.849 115.616 774.711 115.029C774.762 114.534 774.762 114.034 774.711 113.539C774.834 113.064 775.061 112.631 775.373 112.281C775.685 111.931 776.07 111.674 776.494 111.535C776.776 111.392 777.085 111.325 777.395 111.34C777.704 111.355 778.007 111.452 778.277 111.622C779.545 112.337 780.736 113.208 781.974 113.966C782.061 114.027 782.126 114.119 782.161 114.227C783.25 115.099 784.496 115.735 785.64 116.51C786.465 117.067 787.431 117.381 787.975 118.409C788.129 118.673 788.232 118.97 788.279 119.28C788.201 119.603 788.201 119.942 788.279 120.265C788.21 120.784 788.003 121.267 787.685 121.652C787.367 122.038 786.953 122.307 786.496 122.425C786.11 122.356 785.717 122.35 785.329 122.408Z" fill="white"/>
<path d="M798.353 114.256L793.784 111.346C793.551 111.198 793.333 111.015 793.115 110.849C792.978 110.576 792.783 110.345 792.547 110.178C791.659 108.636 792.15 106.981 793.73 106.188C793.817 106.234 793.915 106.249 794.01 106.232C794.057 106.232 794.103 106.232 794.15 106.232C794.197 106.232 794.026 106.179 793.987 106.11C794.249 105.984 794.536 105.932 794.82 105.958C795.105 105.983 795.38 106.086 795.621 106.258C797.412 107.382 799.217 108.488 800.984 109.673C801.872 110.265 802.783 110.858 803.724 111.354C804.59 111.696 805.31 112.389 805.74 113.297C806.293 114.726 805.639 116.102 804.098 116.921H803.997C803.577 116.921 803.148 116.921 802.736 117C801.604 116.52 800.523 115.901 799.513 115.153C799.07 114.918 798.587 114.77 798.353 114.256Z" fill="white"/>
<path d="M798.353 114.256L801.98 116.513C802.221 116.641 802.468 116.754 802.719 116.853C803.16 116.814 803.602 116.814 804.043 116.853V116.906C801.248 118.648 798.477 120.486 795.659 122.202C795.085 122.533 794.417 122.596 793.802 122.377C793.186 122.158 792.673 121.676 792.374 121.035C792.216 120.722 792.117 120.376 792.084 120.019C792.051 119.661 792.084 119.3 792.181 118.957C792.278 118.615 792.437 118.298 792.649 118.028C792.86 117.757 793.119 117.538 793.41 117.385C795.06 116.374 796.711 115.301 798.353 114.256Z" fill="white"/>
<path d="M782.153 114.229C781.018 113.649 779.922 112.977 778.876 112.216C778.173 111.689 777.329 111.449 776.486 111.537C779.187 109.794 781.935 108.095 784.589 106.353C785.944 105.482 788.045 106.353 788.287 108.174C788.202 108.495 788.202 108.837 788.287 109.158C788.24 109.559 788.103 109.94 787.887 110.265C787.672 110.59 787.386 110.848 787.057 111.014C785.453 112.112 783.803 113.157 782.153 114.229Z" fill="white"/>
<path d="M774.703 113.541C774.794 113.776 774.84 114.029 774.84 114.286C774.84 114.542 774.794 114.795 774.703 115.03C774.563 114.546 774.563 114.025 774.703 113.541Z" fill="white"/>
<path d="M785.328 122.41C785.508 122.296 785.712 122.237 785.919 122.237C786.127 122.237 786.33 122.296 786.511 122.41C786.126 122.549 785.712 122.549 785.328 122.41Z" fill="white"/>
<path d="M792.544 110.176C792.84 110.281 793.136 110.394 793.113 110.847C792.983 110.783 792.866 110.69 792.769 110.575C792.671 110.46 792.595 110.324 792.544 110.176Z" fill="white"/>
<path d="M788.303 109.158C788.215 109.013 788.167 108.841 788.167 108.666C788.167 108.49 788.215 108.318 788.303 108.173C788.362 108.498 788.362 108.833 788.303 109.158Z" fill="white"/>
<path d="M788.294 120.241C788.206 120.096 788.158 119.924 788.158 119.749C788.158 119.573 788.206 119.401 788.294 119.256C788.357 119.581 788.357 119.916 788.294 120.241Z" fill="white"/>
<path d="M793.985 106.135L794.421 106.205C794.321 106.288 794.199 106.333 794.075 106.333C793.95 106.333 793.829 106.288 793.728 106.205L793.985 106.135Z" fill="white"/>
<path d="M804.04 116.871C803.609 117.023 803.147 117.023 802.717 116.871C802.924 116.762 803.15 116.705 803.378 116.705C803.607 116.705 803.833 116.762 804.04 116.871Z" fill="white"/>
<path fill-rule="evenodd" clip-rule="evenodd" d="M853.5 114.232C853.5 149.156 825.189 177.467 790.266 177.467C755.342 177.467 727.031 149.156 727.031 114.232C727.031 79.309 755.342 50.998 790.266 50.998C825.189 50.998 853.5 79.309 853.5 114.232ZM753.607 114.232C753.607 134.478 770.02 150.891 790.266 150.891C810.512 150.891 826.924 134.478 826.924 114.232C826.924 93.9864 810.512 77.5738 790.266 77.5738C770.02 77.5738 753.607 93.9864 753.607 114.232ZM776.82 163.364C777.048 162.083 777.609 161.131 778.504 160.506C779.519 159.752 780.722 159.499 782.114 159.747C783.446 159.984 784.491 160.645 785.249 161.731C786.007 162.817 786.266 164.035 786.027 165.384C785.787 166.733 785.124 167.786 784.038 168.545C782.952 169.303 781.743 169.564 780.411 169.327C779.736 169.207 779.122 168.974 778.566 168.629C778.011 168.284 777.58 167.859 777.273 167.355L778.269 166.66C778.49 167.052 778.81 167.382 779.229 167.65C779.638 167.925 780.099 168.109 780.611 168.2C781.61 168.377 782.517 168.182 783.331 167.613C784.139 167.034 784.636 166.22 784.823 165.17C785.009 164.119 784.823 163.184 784.265 162.362C783.696 161.547 782.912 161.051 781.913 160.874C781 160.711 780.194 160.833 779.497 161.237C778.8 161.642 778.324 162.284 778.071 163.164L781.401 163.756L781.205 164.857L776.761 164.067C776.761 163.82 776.781 163.586 776.82 163.364ZM772.305 163.163C773.122 162.812 773.722 162.185 774.104 161.283C774.486 160.381 774.518 159.514 774.201 158.683C773.876 157.849 773.278 157.247 772.408 156.879C771.537 156.51 770.693 156.502 769.876 156.853C769.055 157.193 768.451 157.818 768.066 158.728C767.684 159.631 767.656 160.499 767.981 161.333C768.297 162.164 768.891 162.764 769.762 163.132C770.632 163.501 771.48 163.511 772.305 163.163ZM773.099 159.05C773.301 159.597 773.269 160.186 773.002 160.817C772.738 161.44 772.34 161.869 771.807 162.105C771.262 162.345 770.723 162.352 770.188 162.126C769.652 161.9 769.282 161.507 769.075 160.949C768.874 160.402 768.904 159.817 769.168 159.195C769.435 158.564 769.835 158.13 770.368 157.894C770.901 157.658 771.439 157.655 771.982 157.885C772.525 158.115 772.898 158.503 773.099 159.05ZM765.318 157.27C764.769 158.081 764.06 158.58 763.19 158.767C762.313 158.949 761.484 158.775 760.701 158.245C759.918 157.715 759.451 157.012 759.301 156.136C759.143 155.254 759.339 154.408 759.888 153.596C760.442 152.777 761.155 152.281 762.027 152.106C762.896 151.92 763.722 152.091 764.505 152.621C765.288 153.15 765.759 153.856 765.916 154.737C766.067 155.614 765.867 156.458 765.318 157.27ZM764.327 156.599C764.711 156.032 764.857 155.46 764.764 154.885C764.672 154.309 764.382 153.856 763.893 153.526C763.405 153.195 762.876 153.094 762.308 153.223C761.739 153.351 761.263 153.699 760.879 154.267C760.5 154.827 760.357 155.395 760.449 155.97C760.544 156.558 760.832 157.014 761.313 157.34C761.794 157.665 762.325 157.763 762.906 157.632C763.474 157.504 763.948 157.159 764.327 156.599ZM755.367 147.146C755.931 147.112 756.421 147.304 756.836 147.722C757.239 148.129 757.425 148.623 757.392 149.205C757.365 149.782 757.112 150.308 756.631 150.785C756.157 151.255 755.629 151.504 755.046 151.533C754.464 151.561 753.971 151.372 753.568 150.966C753.158 150.554 752.973 150.059 753.012 149.483C753.045 148.901 753.299 148.374 753.773 147.904C754.259 147.421 754.79 147.169 755.367 147.146ZM760.238 145.813C760.086 145.524 759.884 145.254 759.634 145.001C758.95 144.312 758.191 143.965 757.357 143.962C756.535 143.959 755.761 144.318 755.035 145.039L750.704 149.336L751.51 150.149L752.138 149.526L752.175 149.563C752.094 149.961 752.123 150.366 752.262 150.777C752.389 151.188 752.612 151.554 752.929 151.874C753.516 152.465 754.254 152.741 755.143 152.701C756.026 152.656 756.803 152.3 757.474 151.634C758.145 150.968 758.51 150.191 758.569 149.302C758.609 148.419 758.336 147.682 757.749 147.091C757.432 146.771 757.071 146.543 756.667 146.406C756.25 146.27 755.842 146.241 755.444 146.319L755.407 146.282L755.841 145.851C756.327 145.369 756.837 145.119 757.371 145.103C757.904 145.087 758.4 145.309 758.858 145.771C759.158 146.073 759.34 146.417 759.406 146.803C759.472 147.19 759.419 147.561 759.245 147.916L760.375 148.389C760.505 148.126 760.586 147.85 760.617 147.562C760.649 147.274 760.635 146.983 760.575 146.688C760.508 146.387 760.396 146.096 760.238 145.813ZM745.137 146.961L752.632 141.43L753.342 142.393L745.848 147.923L745.137 146.961ZM749.831 138.663C750.109 137.824 750.026 136.993 749.582 136.168C749.278 135.603 748.873 135.171 748.368 134.871C747.858 134.565 747.298 134.413 746.689 134.415L746.736 135.601C747.614 135.621 748.234 135.968 748.595 136.64C748.858 137.128 748.916 137.639 748.769 138.171C748.622 138.703 748.278 139.125 747.736 139.436L745.363 135.025L745.242 135.076C744.273 135.597 743.654 136.25 743.386 137.034C743.107 137.815 743.191 138.621 743.639 139.454C744.075 140.263 744.719 140.774 745.571 140.985C746.415 141.2 747.265 141.078 748.121 140.617C748.984 140.153 749.554 139.502 749.831 138.663ZM745.09 136.605L746.822 139.824C746.361 139.954 745.931 139.944 745.535 139.793C745.135 139.634 744.827 139.356 744.614 138.959C744.355 138.478 744.279 138.026 744.387 137.604C744.483 137.178 744.717 136.845 745.09 136.605ZM745.365 126.56L736.219 128.325L735.68 125.528C735.41 124.131 735.615 122.93 736.296 121.925C736.974 120.91 737.995 120.272 739.357 120.009C740.728 119.744 741.917 119.956 742.925 120.645C743.922 121.327 744.555 122.366 744.825 123.763L745.365 126.56ZM737.117 126.933L744.014 125.602L743.701 123.98C743.495 122.915 743.031 122.135 742.308 121.638C741.577 121.144 740.67 121.001 739.589 121.209C738.516 121.417 737.732 121.886 737.237 122.617C736.743 123.349 736.598 124.246 736.804 125.311L737.117 126.933ZM743.061 115.873C743.711 115.276 744.044 114.509 744.058 113.572C744.068 112.931 743.924 112.356 743.628 111.849C743.333 111.332 742.918 110.927 742.385 110.633L741.848 111.692C742.605 112.137 742.978 112.741 742.966 113.504C742.958 114.059 742.76 114.533 742.372 114.926C741.985 115.319 741.479 115.52 740.854 115.528L740.929 110.52L740.799 110.505C739.698 110.489 738.84 110.757 738.224 111.312C737.6 111.858 737.281 112.603 737.267 113.548C737.253 114.467 737.567 115.227 738.209 115.826C738.841 116.425 739.643 116.732 740.615 116.747C741.594 116.762 742.41 116.47 743.061 115.873ZM739.922 111.767L739.867 115.422C739.4 115.311 739.031 115.093 738.758 114.768C738.485 114.434 738.353 114.042 738.359 113.591C738.368 113.044 738.521 112.613 738.821 112.297C739.112 111.971 739.479 111.795 739.922 111.767ZM744.831 104.705L744.6 105.879L737.848 107.174L738.1 105.898L743.312 105.015L743.317 104.99L738.834 102.171L739.08 100.92L744.831 104.705ZM745.499 99.1769C746.318 98.8463 746.899 98.2451 747.241 97.3733C747.476 96.7759 747.543 96.1877 747.445 95.6085C747.349 95.0214 747.103 94.4963 746.707 94.0335L745.833 94.8363C746.385 95.5188 746.522 96.2152 746.243 96.9256C746.04 97.4422 745.688 97.8165 745.187 98.0484C744.686 98.2803 744.142 98.2903 743.555 98.0783L745.384 93.4164L745.268 93.3568C744.243 92.9543 743.345 92.9046 742.574 93.2075C741.798 93.4991 741.237 94.0849 740.892 94.9648C740.556 95.8205 740.583 96.6417 740.973 97.4282C741.355 98.2116 741.998 98.7808 742.902 99.1357C743.814 99.4938 744.68 99.5075 745.499 99.1769ZM744.003 94.2297L742.668 97.6323C742.27 97.3643 742 97.0303 741.859 96.6302C741.721 96.222 741.735 95.8081 741.899 95.3883C742.099 94.8797 742.395 94.53 742.786 94.339C743.173 94.1368 743.579 94.1004 744.003 94.2297ZM742.031 86.3098L750.132 90.9067L749.541 91.9475L741.441 87.3507L742.031 86.3098ZM747.682 84.2199C747.809 85.1 748.26 85.8413 749.033 86.4437C749.806 87.0461 750.634 87.3017 751.519 87.2105C752.409 87.1125 753.145 86.6907 753.726 85.9451C754.307 85.1995 754.533 84.3867 754.406 83.5065C754.29 82.6249 753.842 81.8802 753.063 81.2725C752.29 80.6701 751.458 80.4179 750.568 80.5159C749.684 80.6071 748.951 81.0255 748.37 81.7711C747.789 82.5166 747.559 83.3329 747.682 84.2199ZM751.449 86.0513C750.869 86.1047 750.309 85.9209 749.768 85.4997C749.235 85.0839 748.923 84.5881 748.833 84.0122C748.742 83.4242 748.874 82.901 749.232 82.4427C749.589 81.9845 750.064 81.7278 750.656 81.6729C751.237 81.6194 751.793 81.8006 752.327 82.2164C752.867 82.6376 753.183 83.1361 753.273 83.7119C753.362 84.2878 753.226 84.8083 752.864 85.2734C752.501 85.7386 752.03 85.9978 751.449 86.0513ZM759.325 78.4518C759.757 78.0769 759.979 77.5978 759.99 77.0145C760.006 76.4378 759.793 75.8939 759.35 75.3828C758.912 74.8783 758.404 74.5901 757.825 74.5181C757.246 74.4462 756.741 74.5976 756.308 74.9726C755.869 75.3532 755.644 75.8352 755.634 76.4184C755.629 76.996 755.846 77.5371 756.283 78.0416C756.726 78.5527 757.234 78.847 757.807 78.9247C758.38 78.9901 758.886 78.8325 759.325 78.4518ZM760.188 79.1496C759.834 79.4564 759.445 79.6622 759.019 79.7672C758.6 79.8664 758.204 79.8597 757.831 79.7471L757.792 79.7812L758.41 80.4154L760.251 82.5383L759.347 83.3223L753.331 76.3835L754.196 75.6336L754.775 76.302L754.814 76.2679C754.756 75.8826 754.805 75.4896 754.963 75.0889C755.127 74.6825 755.386 74.326 755.74 74.0192C756.375 73.4681 757.129 73.2513 757.999 73.3686C758.889 73.4811 759.64 73.8912 760.254 74.5988C760.873 75.313 761.173 76.1151 761.152 77.0051C761.145 77.8837 760.824 78.5985 760.188 79.1496ZM764.663 74.5419C765.509 74.7942 766.338 74.6862 767.149 74.2179C767.705 73.897 768.125 73.4794 768.409 72.9651C768.7 72.4464 768.835 71.8827 768.814 71.274L767.63 71.3567C767.636 72.2344 767.309 72.864 766.648 73.2456C766.167 73.5231 765.659 73.5963 765.123 73.4653C764.586 73.3343 764.155 73.0028 763.827 72.4707L768.165 69.9667L768.111 69.8475C767.56 68.8937 766.889 68.2949 766.097 68.051C765.309 67.7952 764.505 67.9037 763.687 68.3763C762.891 68.8359 762.4 69.4948 762.214 70.3529C762.024 71.2035 762.172 72.0494 762.658 72.8905C763.148 73.7392 763.816 74.2897 764.663 74.5419ZM766.578 69.7414L763.412 71.569C763.268 71.1114 763.266 70.6822 763.405 70.2815C763.551 69.8764 763.82 69.5611 764.21 69.3356C764.684 69.0624 765.133 68.9733 765.558 69.0683C765.987 69.1513 766.326 69.3757 766.578 69.7414ZM773.401 70.9782L772.28 71.3987L770.041 65.4311L771.113 65.0289L771.478 66.0032L771.527 65.9849C771.522 65.6256 771.653 65.2708 771.919 64.9206C772.191 64.5592 772.498 64.3145 772.839 64.1865C773.164 64.0646 773.458 64.0098 773.722 64.0219L773.788 65.2338C773.628 65.2287 773.398 65.2826 773.098 65.3953C772.676 65.5538 772.37 65.8629 772.182 66.3228C772.001 66.7796 771.996 67.2353 772.167 67.69L773.401 70.9782ZM782.493 68.0584C782.89 67.5857 783.032 67.0777 782.919 66.5343C782.722 65.592 781.973 65.0974 780.669 65.0503L779.677 65.005C778.974 64.9921 778.586 64.8074 778.511 64.4509C778.465 64.2301 778.545 64.0186 778.751 63.8162C778.965 63.612 779.225 63.478 779.531 63.4143C779.862 63.3452 780.175 63.3596 780.47 63.4575C780.772 63.5451 781.009 63.7081 781.183 63.9465L782.137 63.2957C781.867 62.8914 781.479 62.6047 780.974 62.4354C780.478 62.2643 779.954 62.2363 779.402 62.3515C778.68 62.502 778.122 62.8 777.728 63.2455C777.341 63.6807 777.206 64.1827 777.325 64.7515C777.505 65.6174 778.235 66.0766 779.512 66.1289L780.638 66.1731C781.288 66.2324 781.655 66.4615 781.738 66.8605C781.784 67.0812 781.697 67.2988 781.476 67.5132C781.263 67.7259 780.97 67.8712 780.596 67.9491C780.248 68.0217 779.905 67.9872 779.565 67.8454C779.232 67.6934 778.95 67.4466 778.719 67.1049L777.768 67.7685C778.084 68.2608 778.513 68.6229 779.058 68.8548C779.601 69.0782 780.186 69.1244 780.814 68.9933C781.536 68.8428 782.095 68.5311 782.493 68.0584ZM792.006 67.8342L790.81 67.8029L791.053 58.4922L792.25 58.5235L792.006 67.8342ZM797.61 61.9127L796.482 61.7167L795.391 67.9967L796.57 68.2015L797.173 64.7283C797.265 64.1986 797.502 63.7732 797.883 63.4522C798.266 63.1227 798.693 62.9987 799.163 63.0804C800.171 63.2555 800.599 63.858 800.446 64.8877L799.774 68.7582L800.953 68.9631L801.639 65.0157C801.78 64.204 801.679 63.5439 801.336 63.0354C801.003 62.5199 800.452 62.1953 799.683 62.0617C799.281 61.9919 798.875 62.0269 798.463 62.1666C798.06 62.3079 797.742 62.5167 797.509 62.7931L797.458 62.7842L797.61 61.9127ZM806.886 69.928C807.438 70.1373 807.963 70.1094 808.462 69.8445C808.978 69.5857 809.357 69.136 809.6 68.4955C809.837 67.8712 809.85 67.2871 809.639 66.7433C809.437 66.2025 809.064 65.829 808.52 65.6228C807.985 65.4197 807.458 65.4516 806.94 65.7185C806.421 65.9854 806.043 66.431 805.806 67.0553C805.566 67.6877 805.553 68.2718 805.767 68.8075C805.978 69.3514 806.351 69.7249 806.886 69.928ZM806.316 70.8803C805.538 70.5849 804.986 70.0229 804.66 69.1944C804.346 68.3608 804.355 67.5062 804.687 66.6306C805.02 65.755 805.58 65.1096 806.368 64.6946C807.161 64.2907 807.947 64.2365 808.726 64.532C809.163 64.6981 809.525 64.9422 809.811 65.2641C810.105 65.589 810.291 65.9425 810.369 66.3244L810.418 66.3429L810.683 65.4974L811.726 62.7489L812.845 63.1736L809.54 71.8813L808.47 71.4751L808.783 70.6481L808.735 70.6296C808.423 70.8639 808.05 71.005 807.614 71.053C807.187 71.1041 806.754 71.0465 806.316 70.8803ZM817.291 67.0029C817.515 66.9393 817.684 66.8052 817.798 66.6007C817.912 66.3961 817.938 66.1818 817.874 65.9577C817.81 65.7335 817.676 65.5644 817.472 65.4504C817.267 65.3364 817.053 65.3112 816.829 65.3749C816.604 65.4385 816.435 65.5726 816.321 65.7772C816.207 65.9817 816.182 66.196 816.246 66.4201C816.309 66.6443 816.444 66.8134 816.648 66.9274C816.853 67.0414 817.067 67.0666 817.291 67.0029ZM813.408 73.9676L816.512 68.4004L815.467 67.8176L812.363 73.3848L813.408 73.9676ZM817.99 74.5287C817.802 74.7778 817.749 75.0638 817.831 75.3867C817.92 75.7148 818.106 75.986 818.39 76.2003C818.791 76.5035 819.26 76.624 819.796 76.5617C820.339 76.5046 820.763 76.2754 821.066 75.8741C820.946 75.414 820.62 74.9827 820.087 74.5802C819.699 74.2875 819.304 74.1352 818.9 74.1234C818.502 74.1168 818.199 74.2519 817.99 74.5287ZM822.017 71.7668C822.723 72.3 823.136 72.9111 823.257 73.6001C823.382 74.2821 823.197 74.9518 822.701 75.6092L820.333 78.7437L819.419 78.0537L819.952 77.3479L819.911 77.3166C819.077 77.5998 818.332 77.4932 817.675 76.9966C817.114 76.5731 816.769 76.0516 816.639 75.4319C816.517 74.8175 816.643 74.2612 817.02 73.763C817.417 73.2371 817.931 72.9675 818.56 72.9541C819.197 72.9459 819.847 73.1927 820.511 73.6945C821.079 74.1232 821.467 74.5798 821.677 75.0645L821.842 74.8465C822.093 74.5144 822.173 74.1348 822.083 73.7078C821.998 73.2739 821.779 72.9237 821.426 72.6571C820.893 72.2546 820.301 72.1606 819.65 72.3751L819.209 71.2106C820.174 70.8966 821.11 71.082 822.017 71.7668ZM826.552 85.2119L829.738 82.8045L832.044 85.8558L832.936 85.1814L830.631 82.1301L833.07 80.2872L835.626 83.6707L836.539 82.9806L833.262 78.6423L825.83 84.2571L826.552 85.2119ZM839.211 87.5098L831.076 92.0459L830.493 91.0007L838.628 86.4646L839.211 87.5098ZM834.144 95.669C834.244 95.3511 834.439 95.1357 834.73 95.0227C835.054 94.8972 835.383 94.9416 835.717 95.156C836.055 95.3785 836.311 95.7161 836.487 96.1688C836.729 96.7913 836.78 97.3297 836.64 97.784C836.171 97.966 835.69 97.9386 835.198 97.7017C834.709 97.4728 834.374 97.124 834.192 96.6551C834.063 96.3236 834.047 95.9949 834.144 95.669ZM839.699 97.0011C839.958 96.3515 839.928 95.6144 839.608 94.7898C839.197 93.7308 838.498 93.0811 837.511 92.8407L837.274 94.0631C837.941 94.2229 838.395 94.614 838.637 95.2365C838.797 95.6488 838.799 96.0619 838.644 96.4758C838.496 96.8866 838.228 97.1673 837.84 97.318L837.585 97.4168C837.662 96.8942 837.571 96.3014 837.314 95.6385C837.012 94.8624 836.589 94.3105 836.043 93.9829C835.5 93.6633 834.922 93.6228 834.307 93.8613C833.725 94.0873 833.325 94.4939 833.106 95.0811C832.891 95.6763 832.91 96.3014 833.165 96.9562C833.463 97.7242 834.041 98.2068 834.899 98.404L834.918 98.4525L834.093 98.7726L834.507 99.8398L838.17 98.418C838.938 98.1199 839.447 97.6476 839.699 97.0011ZM836.777 105.417C836.884 105.997 837.181 106.431 837.667 106.72C838.156 107.027 838.737 107.117 839.411 106.992C840.067 106.871 840.573 106.578 840.928 106.116C841.285 105.661 841.411 105.149 841.305 104.577C841.2 104.015 840.899 103.581 840.402 103.276C839.905 102.972 839.328 102.88 838.671 103.002C838.006 103.125 837.5 103.417 837.153 103.879C836.798 104.341 836.673 104.854 836.777 105.417ZM832.933 106.09C832.868 105.74 832.854 105.403 832.891 105.079C832.919 104.756 832.991 104.452 833.105 104.166C833.221 103.889 833.374 103.64 833.562 103.42C833.751 103.2 833.973 103.017 834.228 102.873L834.895 103.9C834.552 104.096 834.299 104.372 834.136 104.729C833.973 105.086 833.93 105.473 834.007 105.891C834.126 106.53 834.41 106.993 834.86 107.28C835.31 107.567 835.872 107.648 836.546 107.524L837.147 107.412L837.137 107.361C836.764 107.201 836.443 106.947 836.176 106.6C835.919 106.259 835.749 105.868 835.667 105.424C835.515 104.606 835.705 103.843 836.235 103.136C836.784 102.434 837.523 101.997 838.453 101.825C839.382 101.653 840.225 101.796 840.98 102.256C841.737 102.724 842.192 103.368 842.344 104.186C842.426 104.63 842.404 105.057 842.277 105.469C842.161 105.887 841.957 106.238 841.665 106.521L841.675 106.573L842.544 106.411L842.753 107.537L836.754 108.649C835.748 108.836 834.907 108.696 834.229 108.231C833.542 107.758 833.11 107.045 832.933 106.09ZM837.093 115.872C837.477 116.356 837.946 116.598 838.501 116.595C839.464 116.592 840.099 115.956 840.406 114.689L840.649 113.725C840.803 113.04 841.062 112.696 841.426 112.695C841.651 112.694 841.843 112.815 842 113.057C842.157 113.308 842.236 113.589 842.237 113.901C842.238 114.24 842.161 114.544 842.006 114.813C841.86 115.091 841.653 115.291 841.384 115.414L841.831 116.479C842.281 116.295 842.64 115.973 842.907 115.512C843.174 115.06 843.306 114.552 843.304 113.988C843.301 113.251 843.121 112.645 842.764 112.169C842.415 111.702 841.95 111.47 841.369 111.472C840.485 111.476 839.889 112.098 839.581 113.339L839.312 114.433C839.124 115.058 838.826 115.371 838.418 115.373C838.193 115.374 837.997 115.244 837.831 114.985C837.666 114.734 837.582 114.418 837.581 114.036C837.579 113.681 837.682 113.351 837.889 113.046C838.105 112.751 838.403 112.524 838.784 112.367L838.325 111.302C837.779 111.512 837.338 111.86 837.002 112.347C836.674 112.834 836.511 113.399 836.514 114.04C836.517 114.777 836.71 115.388 837.093 115.872ZM845.708 120.942L845.503 122.121L842.606 121.618L841.744 121.415L841.735 121.467C842.011 121.699 842.22 122.017 842.361 122.42C842.501 122.832 842.536 123.239 842.466 123.64C842.333 124.409 842.008 124.96 841.493 125.293C840.984 125.636 840.324 125.737 839.513 125.596L835.565 124.91L835.77 123.731L839.487 124.377C840.614 124.573 841.265 124.171 841.439 123.171C841.522 122.693 841.392 122.252 841.048 121.849C840.711 121.456 840.278 121.214 839.748 121.122L836.326 120.527L836.531 119.348L845.708 120.942ZM841.854 131.61C841.96 131.817 842.124 131.957 842.346 132.03C842.569 132.102 842.784 132.085 842.992 131.979C843.2 131.874 843.34 131.709 843.412 131.487C843.484 131.264 843.467 131.049 843.362 130.841C843.256 130.634 843.092 130.494 842.869 130.421C842.646 130.349 842.431 130.366 842.223 130.471C842.016 130.577 841.876 130.741 841.804 130.964C841.731 131.187 841.748 131.402 841.854 131.61ZM834.27 129.146L840.332 131.115L840.702 129.977L834.64 128.008L834.27 129.146ZM832.664 135.301C832.41 135.814 832.391 136.341 832.606 136.883C832.813 137.422 833.22 137.841 833.826 138.141C834.425 138.438 835.005 138.507 835.567 138.35C836.128 138.193 836.536 137.858 836.79 137.345C837.048 136.824 837.07 136.293 836.854 135.751C836.635 135.216 836.226 134.801 835.628 134.504C835.022 134.204 834.44 134.129 833.882 134.278C833.328 134.439 832.922 134.78 832.664 135.301ZM831.598 134.991C831.806 134.571 832.086 134.23 832.438 133.969C832.786 133.716 833.154 133.569 833.542 133.529L833.565 133.482L832.749 133.136L830.231 131.889L830.763 130.817L838.992 134.893L838.484 135.919L837.691 135.526L837.668 135.573C837.871 135.906 837.977 136.287 837.986 136.718C837.992 137.156 837.891 137.585 837.683 138.005C837.31 138.758 836.699 139.249 835.85 139.477C834.986 139.717 834.134 139.629 833.295 139.214C832.448 138.794 831.862 138.17 831.537 137.341C831.205 136.528 831.225 135.744 831.598 134.991ZM828.44 153.407L829.279 154.185L832.977 150.199L826.149 143.865L822.451 147.851L823.291 148.629L826.175 145.52L828.339 147.529L825.738 150.332L826.559 151.093L829.16 148.29L831.324 150.298L828.44 153.407ZM817.685 151.741L818.642 151.023L824.527 154.578L823.486 155.358L819.022 152.527L819.001 152.543L820.447 157.637L819.427 158.402L817.685 151.741ZM813.49 155.404C812.66 155.101 811.826 155.16 810.988 155.579C810.415 155.866 809.971 156.258 809.657 156.754C809.335 157.255 809.166 157.809 809.151 158.418L810.338 158.406C810.384 157.53 810.748 156.921 811.431 156.579C811.927 156.331 812.439 156.288 812.967 156.451C813.494 156.614 813.905 156.97 814.2 157.521L809.721 159.762L809.768 159.884C810.26 160.869 810.895 161.507 811.67 161.798C812.442 162.1 813.251 162.04 814.096 161.617C814.918 161.205 815.448 160.577 815.684 159.731C815.924 158.894 815.827 158.04 815.393 157.172C814.954 156.295 814.32 155.706 813.49 155.404ZM811.292 160.081L814.561 158.446C814.677 158.911 814.654 159.34 814.491 159.732C814.321 160.127 814.034 160.426 813.631 160.628C813.142 160.872 812.688 160.934 812.269 160.814C811.847 160.706 811.521 160.461 811.292 160.081ZM807.495 164.256L806.394 164.569L806.152 163.719L806.102 163.733C806.012 164.083 805.816 164.409 805.514 164.711C805.204 165.016 804.853 165.224 804.461 165.335C803.71 165.548 803.073 165.495 802.549 165.175C802.02 164.866 801.642 164.315 801.417 163.522L800.322 159.668L801.473 159.341L802.547 163.12C802.856 164.114 803.503 164.471 804.488 164.191C804.947 164.061 805.277 163.764 805.479 163.301C805.683 162.846 805.712 162.361 805.565 161.843L804.601 158.452L805.753 158.125L807.495 164.256ZM796.1 160.699C795.718 160.42 795.269 160.311 794.752 160.371C794.339 160.42 793.983 160.518 793.686 160.666L794.185 161.682C794.258 161.638 794.341 161.598 794.432 161.561C794.517 161.534 794.606 161.515 794.701 161.504C794.907 161.479 795.101 161.531 795.282 161.658C795.464 161.794 795.579 162.073 795.628 162.496L795.996 165.648L794.445 165.829L794.572 166.914L796.122 166.734L796.348 168.672L797.537 168.533L797.311 166.595L798.422 166.465L798.296 165.38L797.185 165.51L796.772 161.969C796.697 161.402 796.473 160.978 796.1 160.699Z" fill="white"/>
</mask>
<g mask="url(#mask0_41_47)">
<rect x="962.753" y="222.037" width="344.974" height="215.609" transform="rotate(180 962.753 222.037)" fill="url(#paint0_radial_41_47)"/>
<rect x="962.753" y="222.037" width="344.974" height="215.609" transform="rotate(180 962.753 222.037)" fill="url(#paint1_angular_41_47)" style="mix-blend-mode:difference"/>
<rect x="962.753" y="222.037" width="344.974" height="215.609" transform="rotate(180 962.753 222.037)" fill="url(#paint2_angular_41_47)" style="mix-blend-mode:screen"/>
</g>
<defs>
<radialGradient id="paint0_radial_41_47" cx="0" cy="0" r="1" gradientUnits="userSpaceOnUse" gradientTransform="translate(997.613 282.928) rotate(19.6165) scale(292.213 216.224)">
<stop offset="0.0760668" stop-color="#FB6EA9"/>
<stop offset="0.416667" stop-color="#42D2FF"/>
<stop offset="0.666667" stop-color="#FFEC42"/>
<stop offset="1" stop-color="#FF4242"/>
</radialGradient>
<radialGradient id="paint1_angular_41_47" cx="0" cy="0" r="1" gradientUnits="userSpaceOnUse" gradientTransform="translate(1135.24 329.841) rotate(90) scale(107.804 172.487)">
<stop offset="0.0833333" stop-color="white"/>
<stop offset="0.265625"/>
<stop offset="0.46875" stop-color="white"/>
<stop offset="0.635417"/>
<stop offset="0.791667" stop-color="white"/>
<stop offset="1"/>
</radialGradient>
<radialGradient id="paint2_angular_41_47" cx="0" cy="0" r="1" gradientUnits="userSpaceOnUse" gradientTransform="translate(1135.24 329.841) rotate(90) scale(107.804 172.487)">
<stop offset="0.046875" stop-color="white" stop-opacity="0.72"/>
<stop offset="0.244792"/>
<stop offset="0.421875" stop-color="white" stop-opacity="0.72"/>
<stop offset="0.625"/>
<stop offset="0.802083" stop-color="white" stop-opacity="0.72"/>
<stop offset="1"/>
</radialGradient>
</defs>
</svg>
