<svg width="200" height="102" viewBox="0 0 200 102" fill="none" xmlns="http://www.w3.org/2000/svg">
<rect x="0.542969" y="49.707" width="191.017" height="54" rx="27" transform="rotate(-15 0.542969 49.707)" fill="#36A852"/>
<path d="M41.7735 59.4812L44.1207 58.8523L47.4564 71.3011L45.1092 71.93L41.7735 59.4812ZM49.841 62.7237L49.98 62.6864C50.1317 62.1861 50.401 61.7537 50.7878 61.3891C51.1715 61.013 51.6532 60.7473 52.2327 60.592C52.7659 60.4491 53.2587 60.4103 53.7109 60.4754C54.1632 60.5406 54.5603 60.7013 54.9023 60.9575C55.2528 61.199 55.5523 61.5287 55.8009 61.9466C56.058 62.3498 56.2596 62.8238 56.4056 63.3686L57.7892 68.5324L55.5115 69.1427L54.2024 64.2571C54.0378 63.6427 53.7776 63.228 53.4218 63.0127C53.0744 62.7828 52.64 62.7377 52.1184 62.8775C51.8054 62.9613 51.5458 63.1054 51.3397 63.3097C51.142 63.4993 50.9873 63.7334 50.8756 64.0118C50.7723 64.2755 50.7163 64.5762 50.7074 64.914C50.707 65.2372 50.7534 65.5726 50.8466 65.9203L51.9647 70.0931L49.687 70.7034L47.4042 62.1839L49.5428 61.6109L49.841 62.7237ZM58.4072 61.3228L56.9119 61.7235L56.3901 59.7762L57.8854 59.3755L57.1866 56.7675L59.4642 56.1572L60.1631 58.7652L62.2495 58.2062L62.7712 60.1535L60.6848 60.7125L61.57 64.016C61.6228 64.213 61.6899 64.3938 61.7712 64.5584C61.8611 64.7082 61.9795 64.8256 62.1265 64.9104C62.3384 65.0524 62.5951 65.083 62.8965 65.0023C63.0935 64.9495 63.2453 64.8902 63.3519 64.8243C63.4554 64.7469 63.55 64.6595 63.6357 64.562L64.8147 66.389C64.5823 66.588 64.3174 66.7584 64.02 66.9002C63.7372 67.0505 63.4104 67.1753 63.0395 67.2747C62.6106 67.3896 62.2052 67.4299 61.8233 67.3956C61.4499 67.3466 61.1162 67.2372 60.8223 67.0675C60.1378 66.6919 59.6666 66.023 59.4088 65.061L58.4072 61.3228ZM63.925 57.7572L66.0635 57.1842L66.3803 58.3665L66.5194 58.3292C66.5678 58.0926 66.6557 57.8641 66.7829 57.6437C66.9102 57.4232 67.0611 57.2213 67.2356 57.0379C67.4216 56.8513 67.6271 56.6907 67.8518 56.5559C68.0882 56.4181 68.3281 56.3165 68.5715 56.2513C68.8729 56.1705 69.1357 56.1312 69.3598 56.1332C69.5956 56.1322 69.8012 56.1578 69.9768 56.2102L69.9226 58.4423C69.7649 58.41 69.5944 58.3997 69.4113 58.4116C69.2366 58.4087 69.0275 58.4398 68.7841 58.5051C68.4711 58.5889 68.2042 58.7288 67.9834 58.9246C67.7594 59.1088 67.5842 59.3359 67.4578 59.6058C67.3429 59.8727 67.2737 60.1707 67.2502 60.5001C67.2351 60.8147 67.2741 61.1459 67.3673 61.4936L68.4854 65.6664L66.2077 66.2767L63.925 57.7572ZM74.4381 54.6421C75.0988 54.465 75.7326 54.4195 76.3395 54.5053C76.9549 54.5765 77.5139 54.7621 78.0167 55.0622C78.528 55.3476 78.9683 55.7389 79.3376 56.2363C79.7185 56.7306 79.9975 57.308 80.1745 57.9687C80.3516 58.6294 80.3987 59.269 80.316 59.8875C80.2448 60.5029 80.0608 61.0678 79.7638 61.5822C79.4753 62.0819 79.0839 62.5222 78.5896 62.9031C78.1039 63.2693 77.5306 63.5409 76.8699 63.7179C76.2093 63.895 75.5712 63.9479 74.9558 63.8767C74.3489 63.7909 73.7898 63.6053 73.2786 63.3199C72.7758 63.0198 72.3339 62.6226 71.953 62.1284C71.5837 61.631 71.3105 61.052 71.1335 60.3913C70.9564 59.7306 70.9035 59.0925 70.9747 58.4772C71.0574 57.8587 71.243 57.2996 71.5315 56.7999C71.8285 56.2855 72.2199 55.8452 72.7057 55.479C73.1999 55.0981 73.7774 54.8191 74.4381 54.6421ZM76.3062 61.6141C76.596 61.5365 76.8602 61.4098 77.0989 61.234C77.346 61.0436 77.5459 60.8161 77.6987 60.5515C77.8514 60.287 77.9453 59.9885 77.9805 59.6561C78.0273 59.3205 77.9994 58.9615 77.8969 58.579C77.7944 58.1965 77.639 57.8717 77.4308 57.6045C77.2341 57.3341 77.0035 57.1226 76.739 56.9699C76.4744 56.8172 76.1891 56.7259 75.8829 56.6961C75.5853 56.6516 75.2916 56.6682 75.0018 56.7459C74.7004 56.8266 74.432 56.9607 74.1964 57.148C73.9578 57.3238 73.7621 57.5439 73.6094 57.8085C73.4566 58.073 73.3569 58.373 73.3101 58.7086C73.275 59.041 73.3086 59.3985 73.4111 59.781C73.5136 60.1635 73.6632 60.4899 73.8599 60.7602C74.0681 61.0274 74.3045 61.2374 74.5691 61.3901C74.8336 61.5428 75.1147 61.6415 75.4124 61.6859C75.7069 61.7188 76.0049 61.6949 76.3062 61.6141ZM88.8507 59.1101L88.7116 59.1473C88.5992 59.5626 88.357 59.9567 87.9848 60.3297C87.6127 60.7027 87.1021 60.9762 86.453 61.1502C85.9082 61.2961 85.3571 61.3258 84.7997 61.2391C84.2507 61.1377 83.7322 60.9412 83.2441 60.6496C82.7645 60.3433 82.34 59.9415 81.9707 59.4441C81.6014 58.9468 81.3282 58.3677 81.1512 57.707C80.9742 57.0463 80.9212 56.4083 80.9924 55.7929C81.0635 55.1775 81.2318 54.6231 81.4971 54.1296C81.7709 53.6214 82.1217 53.192 82.5495 52.8413C82.9858 52.476 83.4763 52.2203 84.0211 52.0743C84.6702 51.9004 85.2492 51.8819 85.758 52.0189C86.2668 52.1559 86.6736 52.3761 86.9785 52.6795L87.1176 52.6422L86.6524 51.4624L85.6508 47.7243L87.9284 47.114L91.2641 59.5629L89.1255 60.1359L88.8507 59.1101ZM86.3587 58.9206C86.6601 58.8398 86.9301 58.7116 87.1687 58.5358C87.4159 58.3454 87.6158 58.1179 87.7685 57.8533C87.9213 57.5888 88.021 57.2887 88.0678 56.9532C88.1145 56.6177 88.0866 56.2587 87.9841 55.8761C87.8817 55.4936 87.7263 55.1688 87.518 54.9016C87.3098 54.6344 87.0734 54.4244 86.8088 54.2717C86.5443 54.1189 86.2589 54.0277 85.9528 53.9979C85.6552 53.9534 85.3556 53.9716 85.0543 54.0523C84.7529 54.1331 84.4787 54.2687 84.2315 54.4591C83.996 54.6465 83.8019 54.8724 83.6491 55.137C83.4964 55.4015 83.3966 55.7015 83.3499 56.0371C83.3031 56.3726 83.3295 56.7258 83.4288 57.0967C83.5282 57.4677 83.682 57.7867 83.8903 58.0539C84.0986 58.3211 84.335 58.5311 84.5995 58.6838C84.864 58.8366 85.1451 58.9352 85.4428 58.9796C85.752 59.021 86.0574 59.0013 86.3587 58.9206ZM98.8005 56.3508L98.6614 56.3881C98.5098 56.8884 98.2421 57.3266 97.8583 57.7028C97.4715 58.0673 96.9883 58.3272 96.4088 58.4825C95.3308 58.7714 94.4367 58.6569 93.7265 58.139C93.0278 57.6181 92.531 56.8071 92.2359 55.7059L90.8523 50.5421L93.1299 49.9318L94.439 54.8174C94.6037 55.4318 94.8596 55.8539 95.207 56.0838C95.5628 56.2991 96.0015 56.3368 96.5231 56.197C96.8361 56.1132 97.0914 55.9764 97.2891 55.7868C97.4952 55.5825 97.6499 55.3485 97.7532 55.0848C97.8649 54.8064 97.921 54.5056 97.9214 54.1825C97.9302 53.8447 97.8881 53.5019 97.7949 53.1542L96.6768 48.9814L98.9545 48.3711L101.237 56.8906L99.0987 57.4636L98.8005 56.3508ZM110.606 52.0509C110.428 52.8689 110.064 53.5998 109.516 54.2436C108.977 54.8727 108.209 55.3208 107.212 55.5879C106.551 55.7649 105.913 55.8178 105.298 55.7467C104.691 55.6608 104.13 55.4694 103.616 55.1724C103.113 54.8723 102.673 54.481 102.295 53.9983C101.925 53.5009 101.652 52.9219 101.475 52.2612C101.298 51.6005 101.245 50.9625 101.316 50.3471C101.399 49.7286 101.585 49.1695 101.873 48.6698C102.17 48.1554 102.562 47.7151 103.047 47.3489C103.542 46.968 104.119 46.6891 104.78 46.512C105.765 46.248 106.654 46.252 107.448 46.5239C108.241 46.7958 108.891 47.2492 109.396 47.884L107.543 49.3123C107.24 48.9711 106.906 48.7438 106.54 48.6306C106.183 48.5027 105.772 48.5009 105.309 48.6251C105.007 48.7059 104.739 48.8399 104.503 49.0273C104.268 49.2146 104.074 49.4406 103.921 49.7051C103.78 49.9666 103.692 50.2635 103.657 50.5959C103.621 50.9283 103.654 51.28 103.753 51.6509C103.852 52.0218 104 52.3425 104.197 52.6128C104.394 52.8831 104.618 53.0962 104.871 53.252C105.136 53.4047 105.417 53.5033 105.715 53.5478C106.012 53.5923 106.312 53.5741 106.613 53.4934C107.088 53.3661 107.46 53.1546 107.729 52.859C108.006 52.5487 108.189 52.1643 108.277 51.7058L110.606 52.0509ZM111.234 43.7578C111.036 43.8106 110.836 43.8271 110.632 43.8073C110.436 43.7727 110.252 43.7103 110.079 43.6201C109.914 43.5152 109.767 43.3866 109.64 43.2345C109.524 43.0793 109.438 42.8973 109.382 42.6887C109.326 42.4801 109.309 42.2795 109.332 42.087C109.367 41.8914 109.431 41.7127 109.524 41.5511C109.626 41.3747 109.754 41.2285 109.91 41.1123C110.073 40.9815 110.254 40.8897 110.451 40.8369C110.857 40.7282 111.243 40.7799 111.611 40.992C111.975 41.1926 112.211 41.4957 112.32 41.9014C112.429 42.3071 112.377 42.6936 112.165 43.061C111.95 43.4169 111.639 43.6491 111.234 43.7578ZM112.717 53.8146L110.434 45.2951L112.712 44.6848L114.995 53.2043L112.717 53.8146ZM117.231 44.6665L117.37 44.6292C117.522 44.1289 117.791 43.6965 118.178 43.3319C118.562 42.9558 119.043 42.6901 119.623 42.5348C120.156 42.3919 120.649 42.3531 121.101 42.4182C121.554 42.4834 121.951 42.6441 122.293 42.9003C122.643 43.1419 122.943 43.4716 123.191 43.8894C123.448 44.2926 123.65 44.7666 123.796 45.3114L125.18 50.4753L122.902 51.0855L121.593 46.1999C121.428 45.5856 121.168 45.1708 120.812 44.9555C120.465 44.7256 120.03 44.6805 119.509 44.8203C119.196 44.9041 118.936 45.0482 118.73 45.2525C118.532 45.4422 118.378 45.6762 118.266 45.9546C118.163 46.2183 118.107 46.5191 118.098 46.8569C118.097 47.18 118.144 47.5154 118.237 47.8631L119.355 52.0359L117.077 52.6462L114.795 44.1268L116.933 43.5537L117.231 44.6665ZM131.986 52.9747C131.384 53.1362 130.823 53.1995 130.304 53.1645C129.8 53.1381 129.34 53.0439 128.924 52.8821C128.511 52.7319 128.148 52.5371 127.836 52.2979C127.523 52.0586 127.274 51.8023 127.089 51.5289L129.03 50.0772C129.313 50.4858 129.673 50.7621 130.109 50.9061C130.548 51.0617 130.994 51.0789 131.446 50.9578C132.165 50.7653 132.672 50.387 132.968 49.8232C133.267 49.2709 133.31 48.5949 133.096 47.7951L132.937 47.2039L132.798 47.2412C132.631 47.6836 132.357 48.0739 131.975 48.4121C131.602 48.7357 131.12 48.9766 130.529 49.135C130.019 49.2717 129.493 49.3009 128.95 49.2227C128.419 49.1414 127.916 48.9592 127.443 48.6761C126.967 48.3814 126.539 47.9927 126.162 47.51C125.784 47.0274 125.505 46.4499 125.325 45.7776C125.145 45.1053 125.097 44.4657 125.183 43.8588C125.266 43.2403 125.442 42.6902 125.71 42.2083C125.975 41.7148 126.318 41.3 126.737 40.9641C127.168 40.625 127.638 40.3871 128.148 40.2505C128.739 40.0921 129.279 40.0655 129.767 40.1708C130.263 40.2615 130.694 40.4565 131.06 40.756L131.2 40.7187L130.953 39.7972L133.126 39.2149L135.246 47.1258C135.438 47.8445 135.5 48.5173 135.432 49.1442C135.367 49.7828 135.191 50.3519 134.902 50.8516C134.617 51.3629 134.224 51.7974 133.723 52.1552C133.238 52.5214 132.659 52.7945 131.986 52.9747ZM130.466 46.953C130.744 46.8784 131.003 46.7533 131.241 46.5775C131.492 46.3987 131.695 46.1828 131.85 45.9298C132.003 45.6653 132.104 45.371 132.154 45.0471C132.201 44.7115 132.173 44.3525 132.071 43.97C131.968 43.5875 131.813 43.2627 131.605 42.9955C131.396 42.7283 131.161 42.5241 130.9 42.3829C130.635 42.2302 130.35 42.1389 130.044 42.1092C129.749 42.0763 129.463 42.0971 129.185 42.1716C128.907 42.2462 128.648 42.3713 128.41 42.5471C128.171 42.7228 127.975 42.943 127.823 43.2075C127.67 43.4721 127.57 43.7721 127.523 44.1076C127.474 44.4316 127.5 44.7848 127.602 45.1673C127.705 45.5498 127.86 45.8747 128.068 46.1419C128.274 46.3975 128.508 46.6017 128.773 46.7544C129.034 46.8956 129.312 46.9826 129.607 47.0155C129.902 47.0483 130.188 47.0275 130.466 46.953Z" fill="#1F2023"/>
<path d="M146.254 30.7246C144.646 31.1158 143.215 32.0346 142.19 33.3341C141.165 34.6337 140.606 36.2391 140.6 37.8942C140.561 37.9154 140.636 37.868 140.6 37.8942C138.157 40.6414 139.261 44.9058 142.655 46.3189L142.658 46.3123L142.659 46.3367C143.739 46.7752 144.933 46.8461 146.057 46.5384L150.017 45.4775L150.046 45.4943L154.02 44.4295C159.149 43.0987 159.431 35.9206 154.422 34.1906C153.696 32.9418 152.621 31.9321 151.329 31.2851L151.305 31.3268L151.3 31.2873C149.737 30.5107 147.95 30.3114 146.254 30.7246ZM146.83 33.9713C147.774 33.6856 148.833 33.7366 149.734 34.1366C150.292 34.3952 150.785 34.7755 151.176 35.2495C151.567 35.7236 151.847 36.2794 151.996 36.876L152.102 37.2724C154.789 36.4949 155.883 40.5759 153.167 41.2471L149.192 42.3121L149.188 42.3206L149.18 42.29L145.204 43.3552C144.923 43.4304 144.628 43.445 144.341 43.398C144.012 43.3439 143.703 43.2107 143.437 43.0104C143.171 42.81 142.958 42.5482 142.816 42.2474C142.674 41.9466 142.606 41.6158 142.62 41.2833C142.633 40.9509 142.728 40.6266 142.894 40.3385C143.06 40.0503 143.294 39.8067 143.575 39.6287C143.856 39.4507 144.176 39.3436 144.508 39.3164C144.84 39.2893 145.173 39.3429 145.479 39.4728C145.786 39.6027 146.056 39.805 146.267 40.0623L147.955 37.139C146.921 36.3457 145.633 35.9572 144.333 36.0465C144.345 36.0352 144.358 36.0184 144.37 36.0178C144.623 35.5297 144.971 35.0972 145.394 34.7458C145.817 34.3944 146.306 34.1312 146.832 33.9717L146.83 33.9713Z" fill="#333333"/>
</svg>
