<svg width="239" height="44" viewBox="0 0 239 44" fill="none" xmlns="http://www.w3.org/2000/svg">
<path d="M9.899 16.0514C9.43474 15.9628 8.99636 15.7505 8.62081 15.4325C6.07884 13.8252 3.46507 12.2741 0.966183 10.5462C0.540042 10.2523 0.231439 9.78605 0.104497 9.2442C0.151185 8.78762 0.151185 8.32651 0.104497 7.86993C0.217401 7.43182 0.427312 7.03264 0.714768 6.70951C1.00222 6.38638 1.35792 6.14973 1.74888 6.02145C2.00927 5.88903 2.29392 5.82729 2.57967 5.84126C2.86541 5.85522 3.14417 5.9445 3.39326 6.10183C4.56371 6.76081 5.66237 7.56454 6.80407 8.26374C6.88397 8.3203 6.94464 8.40516 6.97644 8.50483C7.98171 9.3085 9.13065 9.8952 10.1862 10.6104C10.9473 11.1248 11.8378 11.4141 12.3404 12.3625C12.4819 12.6061 12.5773 12.8796 12.6205 13.1662C12.5488 13.4636 12.5488 13.7769 12.6205 14.0743C12.5567 14.5529 12.3658 14.9988 12.0725 15.3543C11.7792 15.7097 11.3972 15.9582 10.9761 16.0674C10.6197 16.0034 10.2568 15.998 9.899 16.0514Z" fill="white"/>
<path d="M21.9141 8.53085L17.699 5.84654C17.4836 5.70991 17.2825 5.54114 17.0815 5.38844C16.9557 5.13639 16.7755 4.92363 16.5573 4.76961C15.7387 3.34709 16.1911 1.8201 17.6488 1.08876C17.7294 1.13076 17.8195 1.14475 17.9073 1.12894C17.9503 1.12894 17.9935 1.12894 18.0365 1.12894C18.0796 1.12894 17.9216 1.08072 17.8857 1.01643C18.1281 0.90042 18.3921 0.852235 18.6548 0.87604C18.9175 0.899845 19.1712 0.994924 19.3937 1.15305C21.0452 2.1898 22.7112 3.21047 24.3412 4.30347C25.1598 4.84997 25.9999 5.39647 26.8688 5.85457C27.6677 6.16959 28.3316 6.80932 28.7286 7.64678C29.2384 8.96483 28.6352 10.2346 27.2134 10.9901H27.1201C26.7323 10.9901 26.3374 10.9901 25.9568 11.0624C24.9124 10.6199 23.9153 10.0484 22.984 9.35859C22.5747 9.14162 22.1295 9.005 21.9141 8.53085Z" fill="white"/>
<path d="M21.9141 8.53085L25.2593 10.6138C25.4818 10.7312 25.7095 10.8359 25.9415 10.9272C26.3478 10.891 26.756 10.891 27.1623 10.9272V10.9754C24.5843 12.5828 22.028 14.2785 19.4286 15.8618C18.8989 16.1667 18.2828 16.2246 17.7151 16.0228C17.1473 15.821 16.6739 15.376 16.3984 14.7848C16.2525 14.4962 16.1613 14.1771 16.1307 13.8473C16.1 13.5175 16.1304 13.1842 16.2201 12.8682C16.3097 12.5521 16.4566 12.2602 16.6516 12.0105C16.8466 11.7609 17.0855 11.559 17.3534 11.4174C18.8757 10.4852 20.399 9.49526 21.9141 8.53085Z" fill="white"/>
<path d="M6.96915 8.50605C5.92192 7.97155 4.91148 7.35105 3.9461 6.64954C3.29749 6.16325 2.51898 5.94187 1.74162 6.02269C4.23333 4.41534 6.76812 2.84816 9.21672 1.2408C10.4662 0.437127 12.405 1.2408 12.6276 2.92049C12.5496 3.21692 12.5496 3.53222 12.6276 3.82865C12.5847 4.19863 12.4579 4.55017 12.2593 4.84981C12.0607 5.14945 11.7969 5.38722 11.493 5.54049C10.0138 6.55315 8.4915 7.51756 6.96915 8.50605Z" fill="white"/>
<path d="M0.0967561 7.87145C0.180332 8.08847 0.223441 8.32227 0.223441 8.55861C0.223441 8.7949 0.180332 9.02876 0.0967561 9.24572C-0.032252 8.79902 -0.032252 8.3182 0.0967561 7.87145Z" fill="white"/>
<path d="M9.898 16.0534C10.0646 15.9485 10.2525 15.8934 10.4437 15.8934C10.6349 15.8934 10.8228 15.9485 10.9895 16.0534C10.6347 16.1818 10.2528 16.1818 9.898 16.0534Z" fill="white"/>
<path d="M16.5552 4.76752C16.8281 4.86397 17.101 4.96845 17.0794 5.38636C16.9599 5.32702 16.852 5.24179 16.762 5.13558C16.6721 5.02937 16.6018 4.90429 16.5552 4.76752Z" fill="white"/>
<path d="M12.643 3.82817C12.5612 3.69444 12.5174 3.53616 12.5174 3.37408C12.5174 3.21202 12.5612 3.05373 12.643 2.92001C12.6967 3.21974 12.6967 3.52844 12.643 3.82817Z" fill="white"/>
<path d="M12.6346 14.0522C12.5528 13.9184 12.509 13.7602 12.509 13.5981C12.509 13.436 12.5528 13.2777 12.6346 13.144C12.6921 13.4433 12.6921 13.7529 12.6346 14.0522Z" fill="white"/>
<path d="M17.8845 1.0401L18.2866 1.10439C18.194 1.18076 18.082 1.22196 17.967 1.22196C17.8521 1.22196 17.7401 1.18076 17.6475 1.10439L17.8845 1.0401Z" fill="white"/>
<path d="M27.1598 10.9431C26.7626 11.0837 26.3363 11.0837 25.9391 10.9431C26.13 10.8428 26.3385 10.7908 26.5494 10.7908C26.7604 10.7908 26.9688 10.8428 27.1598 10.9431Z" fill="white"/>
<path d="M49.4016 8.24144C49.4016 10.0384 48.8685 11.47 47.8023 12.5362C46.6043 13.806 45.029 14.4409 43.0763 14.4409C41.2074 14.4409 39.6261 13.794 38.3323 12.5002C37.0385 11.2064 36.3916 9.61311 36.3916 7.72032C36.3916 5.82752 37.0385 4.23422 38.3323 2.94041C39.6261 1.6466 41.2074 0.999694 43.0763 0.999694C44.0227 0.999694 44.9152 1.16741 45.7537 1.50284C46.5923 1.83827 47.2812 2.31147 47.8202 2.92244L46.6343 4.10843C46.2389 3.62924 45.7238 3.25787 45.0889 2.99432C44.4659 2.71878 43.7951 2.58102 43.0763 2.58102C41.6747 2.58102 40.4887 3.0662 39.5183 4.03655C38.5599 5.01889 38.0807 6.24681 38.0807 7.72032C38.0807 9.19382 38.5599 10.4217 39.5183 11.4041C40.4887 12.3744 41.6747 12.8596 43.0763 12.8596C44.3581 12.8596 45.4243 12.5002 46.2749 11.7814C47.1254 11.0627 47.6166 10.0743 47.7484 8.81646H43.0763V7.27108H49.3117C49.3716 7.60651 49.4016 7.92996 49.4016 8.24144Z" fill="white"/>
<path d="M50.5318 9.75088C50.5318 8.39717 50.9571 7.27707 51.8077 6.39057C52.6702 5.50407 53.7544 5.06082 55.0602 5.06082C56.3659 5.06082 57.4441 5.50407 58.2947 6.39057C59.1572 7.27707 59.5885 8.39717 59.5885 9.75088C59.5885 11.1166 59.1572 12.2367 58.2947 13.1112C57.4441 13.9977 56.3659 14.4409 55.0602 14.4409C53.7544 14.4409 52.6702 13.9977 51.8077 13.1112C50.9571 12.2247 50.5318 11.1046 50.5318 9.75088ZM52.185 9.75088C52.185 10.6973 52.4606 11.464 53.0116 12.051C53.5627 12.638 54.2455 12.9315 55.0602 12.9315C55.8748 12.9315 56.5576 12.638 57.1087 12.051C57.6598 11.464 57.9353 10.6973 57.9353 9.75088C57.9353 8.81646 57.6598 8.05575 57.1087 7.46874C56.5457 6.86976 55.8628 6.57026 55.0602 6.57026C54.2575 6.57026 53.5747 6.86976 53.0116 7.46874C52.4606 8.05575 52.185 8.81646 52.185 9.75088Z" fill="white"/>
<path d="M60.5871 9.75088C60.5871 8.39717 61.0124 7.27707 61.8629 6.39057C62.7255 5.50407 63.8096 5.06082 65.1154 5.06082C66.4212 5.06082 67.4994 5.50407 68.3499 6.39057C69.2125 7.27707 69.6437 8.39717 69.6437 9.75088C69.6437 11.1166 69.2125 12.2367 68.3499 13.1112C67.4994 13.9977 66.4212 14.4409 65.1154 14.4409C63.8096 14.4409 62.7255 13.9977 61.8629 13.1112C61.0124 12.2247 60.5871 11.1046 60.5871 9.75088ZM62.2403 9.75088C62.2403 10.6973 62.5158 11.464 63.0669 12.051C63.6179 12.638 64.3008 12.9315 65.1154 12.9315C65.93 12.9315 66.6129 12.638 67.1639 12.051C67.715 11.464 67.9905 10.6973 67.9905 9.75088C67.9905 8.81646 67.715 8.05575 67.1639 7.46874C66.6009 6.86976 65.918 6.57026 65.1154 6.57026C64.3128 6.57026 63.6299 6.86976 63.0669 7.46874C62.5158 8.05575 62.2403 8.81646 62.2403 9.75088Z" fill="white"/>
<path d="M75.0988 12.9315C75.9134 12.9315 76.5783 12.638 77.0934 12.051C77.6325 11.464 77.902 10.6973 77.902 9.75088C77.902 8.82844 77.6325 8.06773 77.0934 7.46874C76.5663 6.86976 75.9014 6.57026 75.0988 6.57026C74.3081 6.57026 73.6432 6.86976 73.1041 7.46874C72.5651 8.06773 72.2955 8.82844 72.2955 9.75088C72.2955 10.6853 72.5651 11.446 73.1041 12.033C73.6432 12.632 74.3081 12.9315 75.0988 12.9315ZM75.0449 18.3224C74.5537 18.3224 74.0925 18.2565 73.6612 18.1247C73.2299 18.0049 72.8346 17.8312 72.4752 17.6036C72.1278 17.376 71.8283 17.1064 71.5767 16.795C71.3252 16.4835 71.1335 16.1361 71.0017 15.7527L72.5651 15.1058C72.7448 15.6209 73.0562 16.0342 73.4995 16.3457C73.9427 16.6572 74.4579 16.8129 75.0449 16.8129C75.9433 16.8129 76.6441 16.5434 77.1473 16.0043C77.6504 15.4652 77.902 14.7225 77.902 13.7761V12.9315H77.8301C77.5187 13.3987 77.0934 13.7701 76.5543 14.0456C76.0272 14.3092 75.4522 14.4409 74.8292 14.4409C73.6792 14.4409 72.6908 13.9917 71.8643 13.0932C71.0496 12.1708 70.6423 11.0567 70.6423 9.75088C70.6423 8.44509 71.0496 7.33697 71.8643 6.42651C72.6908 5.51605 73.6792 5.06082 74.8292 5.06082C75.4522 5.06082 76.0272 5.19859 76.5543 5.47412C77.0934 5.73767 77.5187 6.10306 77.8301 6.57026H77.902V5.34833H79.4834V13.7761C79.4834 15.1897 79.082 16.2978 78.2794 17.1004C77.4648 17.9151 76.3866 18.3224 75.0449 18.3224Z" fill="white"/>
<path d="M83.1522 1.28721V14.1534H81.499V1.28721H83.1522Z" fill="white"/>
<path d="M89.0322 14.4409C87.7384 14.4409 86.6722 13.9977 85.8336 13.1112C84.995 12.2247 84.5758 11.1046 84.5758 9.75088C84.5758 8.40915 84.9831 7.29504 85.7977 6.40854C86.6123 5.51006 87.6545 5.06082 88.9244 5.06082C90.2302 5.06082 91.2664 5.4861 92.0331 6.33666C92.8118 7.17524 93.2012 8.35524 93.2012 9.87667L93.1832 10.0564H86.2649C86.2889 10.9189 86.5764 11.6137 87.1274 12.1408C87.6785 12.6679 88.3374 12.9315 89.1041 12.9315C90.1583 12.9315 90.9849 12.4044 91.5839 11.3502L93.0574 12.069C92.6621 12.8117 92.111 13.3927 91.4042 13.812C90.7094 14.2313 89.9187 14.4409 89.0322 14.4409ZM86.3907 8.69067H91.4401C91.3922 8.07971 91.1406 7.57656 90.6854 7.18123C90.2422 6.77392 89.6432 6.57026 88.8885 6.57026C88.2655 6.57026 87.7264 6.76194 87.2712 7.14529C86.8279 7.52864 86.5344 8.04377 86.3907 8.69067Z" fill="white"/>
<path d="M98.9489 14.1534V1.28721H102.884C104.849 1.28721 106.424 1.8802 107.61 3.0662C108.808 4.25219 109.407 5.80356 109.407 7.72032C109.407 9.64905 108.808 11.2064 107.61 12.3924C106.424 13.5664 104.849 14.1534 102.884 14.1534H98.9489ZM100.602 2.86853V12.5721H102.884C104.382 12.5721 105.562 12.1468 106.424 11.2963C107.287 10.4337 107.718 9.24174 107.718 7.72032C107.718 6.21087 107.287 5.02488 106.424 4.16234C105.562 3.2998 104.382 2.86853 102.884 2.86853H100.602Z" fill="white"/>
<path d="M114.776 14.4409C113.482 14.4409 112.416 13.9977 111.577 13.1112C110.739 12.2247 110.319 11.1046 110.319 9.75088C110.319 8.40915 110.727 7.29504 111.541 6.40854C112.356 5.51006 113.398 5.06082 114.668 5.06082C115.974 5.06082 117.01 5.4861 117.777 6.33666C118.555 7.17524 118.945 8.35524 118.945 9.87667L118.927 10.0564H112.008C112.032 10.9189 112.32 11.6137 112.871 12.1408C113.422 12.6679 114.081 12.9315 114.848 12.9315C115.902 12.9315 116.728 12.4044 117.327 11.3502L118.801 12.069C118.406 12.8117 117.855 13.3927 117.148 13.812C116.453 14.2313 115.662 14.4409 114.776 14.4409ZM112.134 8.69067H117.184C117.136 8.07971 116.884 7.57656 116.429 7.18123C115.986 6.77392 115.387 6.57026 114.632 6.57026C114.009 6.57026 113.47 6.76194 113.015 7.14529C112.571 7.52864 112.278 8.04377 112.134 8.69067Z" fill="white"/>
<path d="M124.558 14.1534H122.905L119.347 5.34833H121.144L123.731 12.1768H123.767L126.391 5.34833H128.152L124.558 14.1534Z" fill="white"/>
<path d="M132.921 14.4409C131.627 14.4409 130.561 13.9977 129.722 13.1112C128.884 12.2247 128.464 11.1046 128.464 9.75088C128.464 8.40915 128.872 7.29504 129.686 6.40854C130.501 5.51006 131.543 5.06082 132.813 5.06082C134.119 5.06082 135.155 5.4861 135.922 6.33666C136.7 7.17524 137.09 8.35524 137.09 9.87667L137.072 10.0564H130.153C130.177 10.9189 130.465 11.6137 131.016 12.1408C131.567 12.6679 132.226 12.9315 132.993 12.9315C134.047 12.9315 134.874 12.4044 135.472 11.3502L136.946 12.069C136.551 12.8117 136 13.3927 135.293 13.812C134.598 14.2313 133.807 14.4409 132.921 14.4409ZM130.279 8.69067H135.329C135.281 8.07971 135.029 7.57656 134.574 7.18123C134.131 6.77392 133.532 6.57026 132.777 6.57026C132.154 6.57026 131.615 6.76194 131.16 7.14529C130.717 7.52864 130.423 8.04377 130.279 8.69067Z" fill="white"/>
<path d="M140.255 1.28721V14.1534H138.602V1.28721H140.255Z" fill="white"/>
<path d="M141.678 9.75088C141.678 8.39717 142.104 7.27707 142.954 6.39057C143.817 5.50407 144.901 5.06082 146.207 5.06082C147.512 5.06082 148.591 5.50407 149.441 6.39057C150.304 7.27707 150.735 8.39717 150.735 9.75088C150.735 11.1166 150.304 12.2367 149.441 13.1112C148.591 13.9977 147.512 14.4409 146.207 14.4409C144.901 14.4409 143.817 13.9977 142.954 13.1112C142.104 12.2247 141.678 11.1046 141.678 9.75088ZM143.332 9.75088C143.332 10.6973 143.607 11.464 144.158 12.051C144.709 12.638 145.392 12.9315 146.207 12.9315C147.021 12.9315 147.704 12.638 148.255 12.051C148.806 11.464 149.082 10.6973 149.082 9.75088C149.082 8.81646 148.806 8.05575 148.255 7.46874C147.692 6.86976 147.009 6.57026 146.207 6.57026C145.404 6.57026 144.721 6.86976 144.158 7.46874C143.607 8.05575 143.332 8.81646 143.332 9.75088Z" fill="white"/>
<path d="M156.462 12.9315C157.252 12.9315 157.917 12.632 158.456 12.033C158.995 11.446 159.265 10.6853 159.265 9.75088C159.265 8.82844 158.995 8.06773 158.456 7.46874C157.917 6.86976 157.252 6.57026 156.462 6.57026C155.659 6.57026 154.988 6.86976 154.449 7.46874C153.922 8.06773 153.658 8.82844 153.658 9.75088C153.658 10.6853 153.922 11.452 154.449 12.051C154.988 12.638 155.659 12.9315 156.462 12.9315ZM156.731 14.4409C156.084 14.4409 155.491 14.3032 154.952 14.0276C154.425 13.7521 154.018 13.3867 153.73 12.9315H153.658L153.73 14.1534V18.0349H152.077V5.34833H153.658V6.57026H153.73C154.018 6.11504 154.425 5.74965 154.952 5.47412C155.491 5.19859 156.084 5.06082 156.731 5.06082C157.893 5.06082 158.876 5.51605 159.678 6.42651C160.505 7.34895 160.918 8.45707 160.918 9.75088C160.918 11.0567 160.505 12.1648 159.678 13.0753C158.876 13.9857 157.893 14.4409 156.731 14.4409Z" fill="white"/>
<path d="M166.386 14.4409C165.092 14.4409 164.026 13.9977 163.187 13.1112C162.348 12.2247 161.929 11.1046 161.929 9.75088C161.929 8.40915 162.337 7.29504 163.151 6.40854C163.966 5.51006 165.008 5.06082 166.278 5.06082C167.584 5.06082 168.62 5.4861 169.387 6.33666C170.165 7.17524 170.555 8.35524 170.555 9.87667L170.537 10.0564H163.618C163.642 10.9189 163.93 11.6137 164.481 12.1408C165.032 12.6679 165.691 12.9315 166.458 12.9315C167.512 12.9315 168.338 12.4044 168.937 11.3502L170.411 12.069C170.016 12.8117 169.464 13.3927 168.758 13.812C168.063 14.2313 167.272 14.4409 166.386 14.4409ZM163.744 8.69067H168.794C168.746 8.07971 168.494 7.57656 168.039 7.18123C167.596 6.77392 166.997 6.57026 166.242 6.57026C165.619 6.57026 165.08 6.76194 164.625 7.14529C164.181 7.52864 163.888 8.04377 163.744 8.69067Z" fill="white"/>
<path d="M173.72 14.1534H172.066V5.34833H173.648V6.7859H173.72C173.887 6.31869 174.229 5.92336 174.744 5.59991C175.271 5.26448 175.786 5.09676 176.289 5.09676C176.768 5.09676 177.176 5.16864 177.511 5.31239L177.008 6.91169C176.804 6.82783 176.481 6.7859 176.038 6.7859C175.415 6.7859 174.87 7.03747 174.402 7.54062C173.947 8.04377 173.72 8.63078 173.72 9.30164V14.1534Z" fill="white"/>
<path d="M184.982 11.7096C184.982 12.4763 184.647 13.1232 183.976 13.6503C183.305 14.1774 182.46 14.4409 181.442 14.4409C180.556 14.4409 179.777 14.2133 179.106 13.7581C178.435 13.2909 177.956 12.6799 177.668 11.9252L179.142 11.2963C179.358 11.8234 179.669 12.2367 180.076 12.5362C180.496 12.8237 180.951 12.9674 181.442 12.9674C181.969 12.9674 182.406 12.8536 182.754 12.626C183.113 12.3984 183.293 12.1289 183.293 11.8174C183.293 11.2543 182.862 10.841 181.999 10.5775L180.49 10.2001C178.777 9.76885 177.92 8.94225 177.92 7.72032C177.92 6.91768 178.243 6.27676 178.89 5.79757C179.549 5.3064 180.388 5.06082 181.406 5.06082C182.185 5.06082 182.886 5.24651 183.509 5.61788C184.143 5.98925 184.587 6.48641 184.838 7.10935L183.365 7.72032C183.197 7.34895 182.922 7.06143 182.538 6.85778C182.167 6.64214 181.748 6.53433 181.28 6.53433C180.849 6.53433 180.46 6.64214 180.112 6.85778C179.777 7.07341 179.609 7.33697 179.609 7.64844C179.609 8.15159 180.082 8.51098 181.029 8.72661L182.358 9.06804C184.108 9.49931 184.982 10.3798 184.982 11.7096Z" fill="white"/>
<path d="M202.687 8.24144C202.687 10.0384 202.154 11.47 201.088 12.5362C199.89 13.806 198.314 14.4409 196.362 14.4409C194.493 14.4409 192.912 13.794 191.618 12.5002C190.324 11.2064 189.677 9.61311 189.677 7.72032C189.677 5.82752 190.324 4.23422 191.618 2.94041C192.912 1.6466 194.493 0.999694 196.362 0.999694C197.308 0.999694 198.201 1.16741 199.039 1.50284C199.878 1.83827 200.567 2.31147 201.106 2.92244L199.92 4.10843C199.524 3.62924 199.009 3.25787 198.374 2.99432C197.751 2.71878 197.08 2.58102 196.362 2.58102C194.96 2.58102 193.774 3.0662 192.804 4.03655C191.845 5.01889 191.366 6.24681 191.366 7.72032C191.366 9.19382 191.845 10.4217 192.804 11.4041C193.774 12.3744 194.96 12.8596 196.362 12.8596C197.644 12.8596 198.71 12.5002 199.56 11.7814C200.411 11.0627 200.902 10.0743 201.034 8.81646H196.362V7.27108H202.597C202.657 7.60651 202.687 7.92996 202.687 8.24144Z" fill="white"/>
<path d="M205.71 14.1534H204.057V5.34833H205.639V6.7859H205.71C205.878 6.31869 206.22 5.92336 206.735 5.59991C207.262 5.26448 207.777 5.09676 208.28 5.09676C208.759 5.09676 209.167 5.16864 209.502 5.31239L208.999 6.91169C208.795 6.82783 208.472 6.7859 208.028 6.7859C207.406 6.7859 206.86 7.03747 206.393 7.54062C205.938 8.04377 205.71 8.63078 205.71 9.30164V14.1534Z" fill="white"/>
<path d="M209.538 9.75088C209.538 8.39717 209.963 7.27707 210.814 6.39057C211.676 5.50407 212.761 5.06082 214.066 5.06082C215.372 5.06082 216.45 5.50407 217.301 6.39057C218.163 7.27707 218.595 8.39717 218.595 9.75088C218.595 11.1166 218.163 12.2367 217.301 13.1112C216.45 13.9977 215.372 14.4409 214.066 14.4409C212.761 14.4409 211.676 13.9977 210.814 13.1112C209.963 12.2247 209.538 11.1046 209.538 9.75088ZM211.191 9.75088C211.191 10.6973 211.467 11.464 212.018 12.051C212.569 12.638 213.252 12.9315 214.066 12.9315C214.881 12.9315 215.564 12.638 216.115 12.051C216.666 11.464 216.942 10.6973 216.942 9.75088C216.942 8.81646 216.666 8.05575 216.115 7.46874C215.552 6.86976 214.869 6.57026 214.066 6.57026C213.264 6.57026 212.581 6.86976 212.018 7.46874C211.467 8.05575 211.191 8.81646 211.191 9.75088Z" fill="white"/>
<path d="M227.736 14.1534H226.154V12.9315H226.082C225.831 13.3628 225.441 13.7222 224.914 14.0097C224.399 14.2972 223.86 14.4409 223.297 14.4409C222.219 14.4409 221.386 14.1355 220.799 13.5245C220.224 12.9015 219.937 12.021 219.937 10.883V5.34833H221.59V10.7751C221.626 12.2127 222.351 12.9315 223.764 12.9315C224.423 12.9315 224.974 12.6679 225.418 12.1408C225.861 11.6017 226.082 10.9608 226.082 10.2181V5.34833H227.736V14.1534Z" fill="white"/>
<path d="M234.061 12.9315C234.851 12.9315 235.516 12.632 236.055 12.033C236.594 11.446 236.864 10.6853 236.864 9.75088C236.864 8.82844 236.594 8.06773 236.055 7.46874C235.516 6.86976 234.851 6.57026 234.061 6.57026C233.258 6.57026 232.587 6.86976 232.048 7.46874C231.521 8.06773 231.258 8.82844 231.258 9.75088C231.258 10.6853 231.521 11.452 232.048 12.051C232.587 12.638 233.258 12.9315 234.061 12.9315ZM234.33 14.4409C233.683 14.4409 233.09 14.3032 232.551 14.0276C232.024 13.7521 231.617 13.3867 231.329 12.9315H231.258L231.329 14.1534V18.0349H229.676V5.34833H231.258V6.57026H231.329C231.617 6.11504 232.024 5.74965 232.551 5.47412C233.09 5.19859 233.683 5.06082 234.33 5.06082C235.492 5.06082 236.475 5.51605 237.277 6.42651C238.104 7.34895 238.517 8.45707 238.517 9.75088C238.517 11.0567 238.104 12.1648 237.277 13.0753C236.475 13.9857 235.492 14.4409 234.33 14.4409Z" fill="white"/>
<path d="M43.0763 41.546C41.1715 41.546 39.5782 40.905 38.2964 39.6232C37.0265 38.3414 36.3916 36.7421 36.3916 34.8253C36.3916 32.9086 37.0265 31.3153 38.2964 30.0454C39.5662 28.7516 41.1595 28.1047 43.0763 28.1047C45.017 28.1047 46.5923 28.8055 47.8023 30.2072L46.6163 31.3572C45.6938 30.2431 44.5138 29.686 43.0763 29.686C41.6507 29.686 40.4587 30.1652 39.5003 31.1236C38.5539 32.07 38.0807 33.3039 38.0807 34.8253C38.0807 36.3468 38.5539 37.5807 39.5003 38.5271C40.4587 39.4854 41.6507 39.9646 43.0763 39.9646C44.5737 39.9646 45.8735 39.3357 46.9757 38.0778L48.1796 39.2458C47.5687 39.9766 46.8199 40.5457 45.9334 40.953C45.0469 41.3483 44.0946 41.546 43.0763 41.546Z" fill="white"/>
<path d="M51.3019 28.3922V41.2584H49.6487V28.3922H51.3019Z" fill="white"/>
<path d="M52.7254 36.8559C52.7254 35.5022 53.1507 34.3821 54.0012 33.4956C54.8638 32.6091 55.9479 32.1658 57.2537 32.1658C58.5595 32.1658 59.6377 32.6091 60.4882 33.4956C61.3508 34.3821 61.782 35.5022 61.782 36.8559C61.782 38.2216 61.3508 39.3417 60.4882 40.2162C59.6377 41.1027 58.5595 41.546 57.2537 41.546C55.9479 41.546 54.8638 41.1027 54.0012 40.2162C53.1507 39.3297 52.7254 38.2096 52.7254 36.8559ZM54.3786 36.8559C54.3786 37.8023 54.6541 38.569 55.2052 39.156C55.7562 39.743 56.4391 40.0365 57.2537 40.0365C58.0683 40.0365 58.7512 39.743 59.3022 39.156C59.8533 38.569 60.1288 37.8023 60.1288 36.8559C60.1288 35.9215 59.8533 35.1608 59.3022 34.5738C58.7392 33.9748 58.0564 33.6753 57.2537 33.6753C56.4511 33.6753 55.7682 33.9748 55.2052 34.5738C54.6541 35.1608 54.3786 35.9215 54.3786 36.8559Z" fill="white"/>
<path d="M70.923 41.2584H69.3416V40.0365H69.2697C69.0182 40.4678 68.6288 40.8272 68.1017 41.1147C67.5866 41.4022 67.0475 41.546 66.4845 41.546C65.4063 41.546 64.5737 41.2405 63.9867 40.6295C63.4117 40.0066 63.1241 39.1261 63.1241 37.988V32.4534H64.7774V37.8802C64.8133 39.3177 65.5381 40.0365 66.9517 40.0365C67.6106 40.0365 68.1616 39.773 68.6049 39.2458C69.0481 38.7068 69.2697 38.0659 69.2697 37.3231V32.4534H70.923V41.2584Z" fill="white"/>
<path d="M76.801 40.0365C77.6156 40.0365 78.2805 39.743 78.7956 39.156C79.3347 38.569 79.6042 37.8023 79.6042 36.8559C79.6042 35.9335 79.3347 35.1727 78.7956 34.5738C78.2685 33.9748 77.6036 33.6753 76.801 33.6753C76.0103 33.6753 75.3454 33.9748 74.8063 34.5738C74.2673 35.1727 73.9977 35.9335 73.9977 36.8559C73.9977 37.7903 74.2673 38.551 74.8063 39.138C75.3454 39.737 76.0103 40.0365 76.801 40.0365ZM76.5314 41.546C75.3814 41.546 74.393 41.0907 73.5664 40.1803C72.7518 39.2578 72.3445 38.1497 72.3445 36.8559C72.3445 35.5621 72.7518 34.454 73.5664 33.5315C74.393 32.6211 75.3814 32.1658 76.5314 32.1658C77.1783 32.1658 77.7653 32.3036 78.2924 32.5791C78.8315 32.8547 79.2448 33.2201 79.5323 33.6753H79.6042L79.5323 32.4534V28.3922H81.1855V41.2584H79.6042V40.0365H79.5323C79.2448 40.4917 78.8315 40.8571 78.2924 41.1327C77.7653 41.4082 77.1783 41.546 76.5314 41.546Z" fill="white"/>
<path d="M90.5314 35.6455H94.432V31.4083H92.551L91.957 30.5569L91.561 30.1015V29.8837H97.8772L98.4712 30.7351L98.8672 31.1905V31.4083H96.1744V42.9715H95.8774L95.2636 42.4963L94.4122 41.9815C94.4122 41.9815 94.5112 40.1599 94.5112 37.1503H90.5314V39.0511H89.6008C88.6108 38.1205 88.0366 37.0909 88.0366 36.5365C88.0366 36.1801 88.195 35.9821 88.9276 35.6455C88.9276 35.6455 88.8286 34.7941 88.8286 33.1903V31.7449C88.8286 31.5073 88.7098 31.3687 88.3336 31.3687C87.7594 31.3687 87.304 31.6063 86.908 32.0221L85.8982 30.3193C86.3734 29.9827 86.8882 29.8045 87.5614 29.8045C88.1752 29.8045 88.7098 30.0421 89.3038 30.5371C90.0166 31.1113 90.5314 31.7251 90.5314 32.6359V35.6455Z" fill="white"/>
<path d="M104.305 31.4083H101.612V42.9715H101.315L100.701 42.4963L99.8497 41.9815V31.4083H97.8499L97.2559 30.5569L96.8599 30.1015V29.8837H103.295L103.909 30.7351L104.305 31.1905V31.4083Z" fill="white"/>
<path d="M103.303 31.4083L102.709 30.5569L102.313 30.1015V29.8837H109.916L110.51 30.7351L110.906 31.1905V31.4083H108.193V35.3881C108.193 36.4375 107.797 36.9721 106.589 37.8433C106.451 37.9225 106.352 37.9819 106.352 38.1601C106.352 38.4967 107.777 40.3975 109.837 42.4963L108.728 43.1299L106.312 40.0609C104.788 38.1205 104.233 37.0513 103.996 36.5167L104.708 35.7247C105.025 35.8435 105.382 35.9227 105.698 35.9227C106.193 35.9227 106.451 35.6851 106.451 35.3089V31.4083H103.303Z" fill="white"/>
<path d="M109.896 31.4083L109.302 30.5569L108.906 30.1015V29.8837H120.489L121.103 30.7351L121.499 31.1905V31.4083H118.806V42.9715H118.509L117.895 42.4963L117.064 41.9815C117.064 41.9815 117.103 40.1995 117.103 35.8633H115.005C113.302 35.8633 112.53 36.7543 112.53 38.0017C112.53 39.2887 113.322 40.8133 114.49 42.2389L113.48 42.7537C112.45 41.4271 110.946 39.2887 110.946 37.2889C110.946 35.4871 112.233 34.2793 114.292 34.2793H117.064V31.4083H109.896Z" fill="white"/>
</svg>
